<?xml version="1.0" encoding="UTF-8" standalone="no"?>
<svg width="22px" height="22px" viewBox="0 0 22 22" version="1.1" xmlns="http://www.w3.org/2000/svg" xmlns:xlink="http://www.w3.org/1999/xlink" xmlns:sketch="http://www.bohemiancoding.com/sketch/ns">
    <!-- Generator: Sketch 3.5.2 (25235) - http://www.bohemiancoding.com/sketch -->
    <title>emoji-smileys-color</title>
    <desc>Created with Sketch.</desc>
    <defs>
        <path id="path-1" d="M0,0 L18,0 L18,19 L0,19 L0,0 Z"></path>
    </defs>
    <g id="General-Playground" stroke="none" stroke-width="1" fill="none" fill-rule="evenodd" sketch:type="MSPage">
        <g id="emoji-smileys-color" sketch:type="MSArtboardGroup">
            <g id="Page-1" sketch:type="MSLayerGroup" transform="translate(2.000000, 2.000000)">
                <path d="M9,1 C13.411,1 17,4.589 17,9 C17,13.411 13.411,17 9,17 C4.589,17 1,13.411 1,9 C1,4.589 4.589,1 9,1" id="Fill-1" fill="#FFE773" sketch:type="MSShapeGroup"></path>
                <path d="M9,0 C4.029,0 0,4.029 0,9 C0,13.971 4.029,18 9,18 C13.971,18 18,13.971 18,9 C18,4.029 13.971,0 9,0 M9,1 C13.411,1 17,4.589 17,9 C17,13.411 13.411,17 9,17 C4.589,17 1,13.411 1,9 C1,4.589 4.589,1 9,1" id="Fill-3" fill="#282B2E" sketch:type="MSShapeGroup"></path>
                <path d="M9,18 L9,18 C7.343,18 6,16.657 6,15 L6,12 L12,12 L12,15 C12,16.657 10.657,18 9,18" id="Fill-5" fill="#FF816C" sketch:type="MSShapeGroup"></path>
                <path d="M13,11 L5,11 L5,15 C5,17.209 6.791,19 9,19 L9,19 C11.209,19 13,17.209 13,15 L13,11 Z M12,12 L12,15 C12,16.654 10.654,18 9,18 C7.346,18 6,16.654 6,15 L6,12 L12,12 L12,12 Z" id="Fill-7" fill="#282B2E" sketch:type="MSShapeGroup"></path>
                <mask id="mask-2" sketch:name="Clip 10" fill="white">
                    <use xlink:href="#path-1"></use>
                </mask>
                <g id="Clip-10"></g>
                <path d="M14,12 L4,12 L4,11 L14,11 L14,12 Z" id="Fill-9" fill="#282B2E" sketch:type="MSShapeGroup" mask="url(#mask-2)"></path>
                <path d="M10,15 L8,15 L8,12 L10,12 L10,15 Z" id="Fill-11" fill="#282B2E" sketch:type="MSShapeGroup" mask="url(#mask-2)"></path>
                <path d="M5,10 L3,10 L3,8 L5,8 L5,10 Z" id="Fill-12" fill="#282B2E" sketch:type="MSShapeGroup" mask="url(#mask-2)"></path>
                <path d="M13,10 L15,10 L15,8 L13,8 L13,10 Z" id="Fill-13" fill="#282B2E" sketch:type="MSShapeGroup" mask="url(#mask-2)"></path>
            </g>
        </g>
    </g>
</svg>