<svg width="200" height="172" viewBox="0 0 200 172" fill="none" xmlns="http://www.w3.org/2000/svg">
<g clip-path="url(#clip0)">
<path opacity="0.5" fill-rule="evenodd" clip-rule="evenodd" d="M39.9352 30.5517L63.342 53.1107L38.6643 76.8945L15.2576 54.3355L39.9352 30.5517Z" fill="#7587FF"/>
<path opacity="0.5" fill-rule="evenodd" clip-rule="evenodd" d="M106.091 101.029C116.635 101.029 125.182 92.3438 125.182 81.6302C125.182 70.9167 116.635 62.2316 106.091 62.2316C95.5474 62.2316 87 70.9167 87 81.6302C87 92.3438 95.5474 101.029 106.091 101.029Z" fill="#7587FF"/>
<path opacity="0.5" fill-rule="evenodd" clip-rule="evenodd" d="M167.656 171.671C178.2 171.671 186.747 162.986 186.747 152.273C186.747 141.559 178.2 132.874 167.656 132.874C157.112 132.874 148.565 141.559 148.565 152.273C148.565 162.986 157.112 171.671 167.656 171.671Z" fill="#7587FF"/>
<path opacity="0.5" fill-rule="evenodd" clip-rule="evenodd" d="M140.692 44.9497C141.054 44.9497 141.347 44.6515 141.347 44.2836C141.347 43.9158 141.054 43.6176 140.692 43.6176C140.33 43.6176 140.036 43.9158 140.036 44.2836C140.036 44.6515 140.33 44.9497 140.692 44.9497Z" fill="#7587FF"/>
<path opacity="0.5" fill-rule="evenodd" clip-rule="evenodd" d="M136.759 44.9497C137.121 44.9497 137.414 44.6515 137.414 44.2836C137.414 43.9158 137.121 43.6176 136.759 43.6176C136.397 43.6176 136.103 43.9158 136.103 44.2836C136.103 44.6515 136.397 44.9497 136.759 44.9497Z" fill="#7587FF"/>
<path opacity="0.5" fill-rule="evenodd" clip-rule="evenodd" d="M132.826 44.9497C133.188 44.9497 133.481 44.6515 133.481 44.2836C133.481 43.9158 133.188 43.6176 132.826 43.6176C132.464 43.6176 132.17 43.9158 132.17 44.2836C132.17 44.6515 132.464 44.9497 132.826 44.9497Z" fill="#7587FF"/>
<path opacity="0.5" fill-rule="evenodd" clip-rule="evenodd" d="M128.893 44.9497C129.255 44.9497 129.548 44.6515 129.548 44.2836C129.548 43.9158 129.255 43.6176 128.893 43.6176C128.531 43.6176 128.237 43.9158 128.237 44.2836C128.237 44.6515 128.531 44.9497 128.893 44.9497Z" fill="#7587FF"/>
<path opacity="0.5" fill-rule="evenodd" clip-rule="evenodd" d="M144.624 44.9497C144.986 44.9497 145.28 44.6515 145.28 44.2836C145.28 43.9158 144.986 43.6176 144.624 43.6176C144.262 43.6176 143.969 43.9158 143.969 44.2836C143.969 44.6515 144.262 44.9497 144.624 44.9497Z" fill="#7587FF"/>
<path opacity="0.5" fill-rule="evenodd" clip-rule="evenodd" d="M148.557 44.9497C148.919 44.9497 149.213 44.6515 149.213 44.2836C149.213 43.9158 148.919 43.6176 148.557 43.6176C148.195 43.6176 147.902 43.9158 147.902 44.2836C147.902 44.6515 148.195 44.9497 148.557 44.9497Z" fill="#7587FF"/>
<path opacity="0.5" fill-rule="evenodd" clip-rule="evenodd" d="M152.49 44.9497C152.852 44.9497 153.146 44.6515 153.146 44.2836C153.146 43.9158 152.852 43.6176 152.49 43.6176C152.128 43.6176 151.835 43.9158 151.835 44.2836C151.835 44.6515 152.128 44.9497 152.49 44.9497Z" fill="#7587FF"/>
<path opacity="0.5" fill-rule="evenodd" clip-rule="evenodd" d="M140.856 48.9458C141.218 48.9458 141.511 48.6476 141.511 48.2797C141.511 47.9119 141.218 47.6137 140.856 47.6137C140.494 47.6137 140.2 47.9119 140.2 48.2797C140.2 48.6476 140.494 48.9458 140.856 48.9458Z" fill="#7587FF"/>
<path opacity="0.5" fill-rule="evenodd" clip-rule="evenodd" d="M136.922 48.9458C137.284 48.9458 137.578 48.6476 137.578 48.2797C137.578 47.9119 137.284 47.6137 136.922 47.6137C136.56 47.6137 136.267 47.9119 136.267 48.2797C136.267 48.6476 136.56 48.9458 136.922 48.9458Z" fill="#7587FF"/>
<path opacity="0.5" fill-rule="evenodd" clip-rule="evenodd" d="M132.99 48.9458C133.352 48.9458 133.645 48.6476 133.645 48.2797C133.645 47.9119 133.352 47.6137 132.99 47.6137C132.628 47.6137 132.334 47.9119 132.334 48.2797C132.334 48.6476 132.628 48.9458 132.99 48.9458Z" fill="#7587FF"/>
<path opacity="0.5" fill-rule="evenodd" clip-rule="evenodd" d="M129.057 48.9458C129.419 48.9458 129.712 48.6476 129.712 48.2797C129.712 47.9119 129.419 47.6137 129.057 47.6137C128.695 47.6137 128.401 47.9119 128.401 48.2797C128.401 48.6476 128.695 48.9458 129.057 48.9458Z" fill="#7587FF"/>
<path opacity="0.5" fill-rule="evenodd" clip-rule="evenodd" d="M144.789 48.9458C145.151 48.9458 145.444 48.6476 145.444 48.2797C145.444 47.9119 145.151 47.6137 144.789 47.6137C144.426 47.6137 144.133 47.9119 144.133 48.2797C144.133 48.6476 144.426 48.9458 144.789 48.9458Z" fill="#7587FF"/>
<path opacity="0.5" fill-rule="evenodd" clip-rule="evenodd" d="M148.721 48.9458C149.083 48.9458 149.377 48.6476 149.377 48.2797C149.377 47.9119 149.083 47.6137 148.721 47.6137C148.359 47.6137 148.066 47.9119 148.066 48.2797C148.066 48.6476 148.359 48.9458 148.721 48.9458Z" fill="#7587FF"/>
<path opacity="0.5" fill-rule="evenodd" clip-rule="evenodd" d="M152.654 48.9458C153.016 48.9458 153.31 48.6476 153.31 48.2797C153.31 47.9119 153.016 47.6137 152.654 47.6137C152.292 47.6137 151.999 47.9119 151.999 48.2797C151.999 48.6476 152.292 48.9458 152.654 48.9458Z" fill="#7587FF"/>
<path opacity="0.5" fill-rule="evenodd" clip-rule="evenodd" d="M140.856 52.9421C141.218 52.9421 141.511 52.6439 141.511 52.2761C141.511 51.9082 141.218 51.61 140.856 51.61C140.494 51.61 140.2 51.9082 140.2 52.2761C140.2 52.6439 140.494 52.9421 140.856 52.9421Z" fill="#7587FF"/>
<path opacity="0.5" fill-rule="evenodd" clip-rule="evenodd" d="M136.922 52.9421C137.284 52.9421 137.578 52.6439 137.578 52.2761C137.578 51.9082 137.284 51.61 136.922 51.61C136.56 51.61 136.267 51.9082 136.267 52.2761C136.267 52.6439 136.56 52.9421 136.922 52.9421Z" fill="#7587FF"/>
<path opacity="0.5" fill-rule="evenodd" clip-rule="evenodd" d="M132.99 52.9421C133.352 52.9421 133.645 52.6439 133.645 52.2761C133.645 51.9082 133.352 51.61 132.99 51.61C132.628 51.61 132.334 51.9082 132.334 52.2761C132.334 52.6439 132.628 52.9421 132.99 52.9421Z" fill="#7587FF"/>
<path opacity="0.5" fill-rule="evenodd" clip-rule="evenodd" d="M129.057 52.9421C129.419 52.9421 129.712 52.6439 129.712 52.2761C129.712 51.9082 129.419 51.61 129.057 51.61C128.695 51.61 128.401 51.9082 128.401 52.2761C128.401 52.6439 128.695 52.9421 129.057 52.9421Z" fill="#7587FF"/>
<path opacity="0.5" fill-rule="evenodd" clip-rule="evenodd" d="M144.789 52.9421C145.151 52.9421 145.444 52.6439 145.444 52.2761C145.444 51.9082 145.151 51.61 144.789 51.61C144.426 51.61 144.133 51.9082 144.133 52.2761C144.133 52.6439 144.426 52.9421 144.789 52.9421Z" fill="#7587FF"/>
<path opacity="0.5" fill-rule="evenodd" clip-rule="evenodd" d="M148.721 52.9421C149.083 52.9421 149.377 52.6439 149.377 52.2761C149.377 51.9082 149.083 51.61 148.721 51.61C148.359 51.61 148.066 51.9082 148.066 52.2761C148.066 52.6439 148.359 52.9421 148.721 52.9421Z" fill="#7587FF"/>
<path opacity="0.5" fill-rule="evenodd" clip-rule="evenodd" d="M152.654 52.9421C153.016 52.9421 153.31 52.6439 153.31 52.2761C153.31 51.9082 153.016 51.61 152.654 51.61C152.292 51.61 151.999 51.9082 151.999 52.2761C151.999 52.6439 152.292 52.9421 152.654 52.9421Z" fill="#7587FF"/>
<path opacity="0.5" fill-rule="evenodd" clip-rule="evenodd" d="M168.295 12.2018C165.22 11.4063 164.444 7.27525 166.978 5.19148L173.292 -1.35399e-08L189.044 59.982L187.472 61.2745C184.299 63.8835 179.924 60.6601 181.303 56.7296V56.7296C182.109 54.4334 180.871 51.9656 178.622 51.3838L177.07 50.9825C173.897 50.1618 172.211 46.6189 173.475 43.4286L174.945 39.7216C176.384 36.0881 174.464 32.0529 170.851 31.1183V31.1183C168.249 30.4454 166.867 27.5401 167.903 24.924L170.832 17.5332C171.725 15.2816 170.535 12.781 168.295 12.2018V12.2018Z" fill="#7587FF"/>
<path opacity="0.5" fill-rule="evenodd" clip-rule="evenodd" d="M113.711 121.092V134.832H54.4512V121.092H113.711Z" fill="#7587FF"/>
</g>
<defs>
<clipPath id="clip0">
<rect width="200" height="172" fill="white"/>
</clipPath>
</defs>
</svg>
