<svg xmlns="http://www.w3.org/2000/svg" viewBox="0 0 500 151.54"><title>gif-picker-illustration-dark</title><path d="M32.9,142.25A63,63,0,0,0,0,151.54H500a52.1,52.1,0,0,0-16.57-10.76V110h5.67a2.48,2.48,0,0,0,2.33-3.33l-10.55-29a1.24,1.24,0,0,0-2.33,0l-10.55,29a2.48,2.48,0,0,0,2.33,3.33H476V138.4A52.06,52.06,0,0,0,463.84,137h-31.6V123h9a3,3,0,0,0,2.71-4.38l-13.5-27a1.18,1.18,0,0,0-2.11,0l-5.83,11.68s0-.05,0-.08l-16.08-45a1.93,1.93,0,0,0-3.64,0l-16.08,45a3.72,3.72,0,0,0,3.5,5h10.06V136a67.43,67.43,0,0,1-14.32-4.07h0a67.52,67.52,0,0,0-25.6-5H141.44a84.9,84.9,0,0,0-35.29,7.68h0A84.4,84.4,0,0,1,96,138.45V127.22h7.93a2.48,2.48,0,0,0,2.33-3.32L93.66,88.72a1.24,1.24,0,0,0-2.34,0L78.76,123.9a2.48,2.48,0,0,0,2.33,3.32H89v13.06a84.55,84.55,0,0,1-18.17,2H46.07V114.59h11A4.2,4.2,0,0,0,61,109L43.66,60.37a1.4,1.4,0,0,0-2.63,0L23.67,109a4.2,4.2,0,0,0,3.95,5.61h11v27.66Zm376-34.1h10.05a3.58,3.58,0,0,0,1.19-.2l-5.32,10.66a3,3,0,0,0,2.7,4.38h9v14h-15c-.87,0-1.73,0-2.59-.07Z" fill="#373a40"/><path d="M176.34,123.52c-7.54,0-13.58-10.27-13.83-10.71a1.13,1.13,0,1,1,2-1.14c.06.09,5.63,9.58,11.87,9.58h0a1.14,1.14,0,1,1,0,2.27Z" fill="#060707"/><path d="M219.68,124.88a4.59,4.59,0,0,0,.67-3.55,4.55,4.55,0,0,0-9,1H178.82a4.54,4.54,0,1,0-8.31,2.54,2.22,2.22,0,0,1,0,2.49,4.54,4.54,0,1,0,8.31,2.54h32.55a4.55,4.55,0,1,0,8.31-2.54A2.22,2.22,0,0,1,219.68,124.88Z" fill="#73777d"/><path d="M166.24,106.14a4.54,4.54,0,1,0,6.45,5.81l29.5,13.76a4.54,4.54,0,1,0,8.6,1.21,2.23,2.23,0,0,1,1.06-2.26,4.58,4.58,0,0,0,2.1-2.93,4.54,4.54,0,0,0-8.56-2.88l-29.5-13.76a4.54,4.54,0,1,0-8.6-1.21A2.25,2.25,0,0,1,166.24,106.14Z" fill="#babbbe"/><path d="M284.53,87.35V75.25a2.76,2.76,0,0,0-2.76-2.76h0A2.75,2.75,0,0,0,279,75.25v3.07a7.8,7.8,0,0,1-7.8,7.79h0a7.79,7.79,0,0,1-7.79-7.79V50.85a15.77,15.77,0,0,0-15.76-15.77h0a15.77,15.77,0,0,0-15.77,15.77V72.68A3.34,3.34,0,0,1,228.54,76h-.1A3.44,3.44,0,0,1,225,72.58V71.31a6.9,6.9,0,0,0-6.9-6.9h0a6.9,6.9,0,0,0-6.9,6.9v16a22.71,22.71,0,0,0,22.71,22.71h27.91A22.71,22.71,0,0,0,284.53,87.35Z" fill="#73777d"/><rect x="260.55" y="29.5" width="15.14" height="83.27" transform="translate(40.5 -87.41) rotate(20)" fill="#dcddde"/><rect x="269.98" y="31.16" width="5.41" height="83.27" transform="translate(41.34 -88.87) rotate(20)" fill="#babbbe"/><path d="M218.94,90.37V86.61a4.69,4.69,0,0,1,4.68-4.68h.15a4.82,4.82,0,0,1,4.82,4.83V88a4.9,4.9,0,0,0,4.91,4.9h0a5.44,5.44,0,0,0,5.44-5.44V62.16a9.63,9.63,0,0,1,9.62-9.63h0a9.63,9.63,0,0,1,9.63,9.63V84.84a7.56,7.56,0,0,0,7.56,7.56h.43a7.52,7.52,0,0,1,7.59,7.51h0a11.67,11.67,0,0,1-11.66,11.67h-22A21.22,21.22,0,0,1,218.94,90.37Z" fill="#babbbe"/><path d="M253.35,110.06H262l6.32-17.35a7.6,7.6,0,0,0-2.15-.31h-.43a7.56,7.56,0,0,1-7.56-7.56V76.29l-11.42,31.38Z" fill="#f6f6f7"/><path d="M268.32,92.71a7.6,7.6,0,0,0-2.15-.31h-.43a7.55,7.55,0,0,1-2.86-.56l-6.64,18.22H262Z" fill="#dcddde"/><rect x="275.88" y="18.6" width="19.68" height="8.33" transform="translate(166.61 283.47) rotate(-70)" fill="#50555d"/><path d="M291,16.89a8.73,8.73,0,0,1-7.88-5,8.65,8.65,0,0,1-.29-6.66l5.69,2.07a2.65,2.65,0,1,0,3.4-1.58L294,0a8.71,8.71,0,0,1-3,16.89Z" fill="#73777d"/><rect x="267.48" y="27.51" width="30.28" height="7.57" transform="translate(27.75 -94.77) rotate(20)" fill="#f6f6f7"/><path d="M207.5,134.45a15.14,15.14,0,1,1,0-30.28h87.22v30.28Z" fill="#212325"/><circle cx="294.72" cy="119.31" r="15.14" fill="#73777d"/><circle cx="294.72" cy="119.31" r="9.25" fill="#babbbe"/><circle cx="294.72" cy="119.31" r="4.21" fill="#73777d"/><path d="M174.38,79.06l2.76,1.33a.76.76,0,0,0,1-1l-1.33-2.76a.76.76,0,0,1,0-.66l1.33-2.76a.76.76,0,0,0-1-1l-2.76,1.33a.76.76,0,0,1-.66,0L171,72.19a.76.76,0,0,0-1,1L171.28,76a.76.76,0,0,1,0,.66L170,79.38a.76.76,0,0,0,1,1l2.76-1.33A.76.76,0,0,1,174.38,79.06Z" fill="#73777d"/><path d="M321.87,60l-1.33,2.76a.75.75,0,0,0,1,1l2.76-1.32a.76.76,0,0,1,.66,0l2.76,1.32a.76.76,0,0,0,1-1L327.41,60a.74.74,0,0,1,0-.65l1.33-2.77a.76.76,0,0,0-1-1L325,56.93a.76.76,0,0,1-.66,0l-2.76-1.33a.76.76,0,0,0-1,1l1.33,2.77A.74.74,0,0,1,321.87,60Z" fill="#73777d"/><rect x="213.58" y="51.21" width="9.08" height="9.08" rx="4.54" fill="#73777d"/><rect x="206.47" y="21.3" width="1.51" height="3.03" rx="0.68" fill="#50555d"/><rect x="206.47" y="28.86" width="1.51" height="3.03" rx="0.68" fill="#50555d"/><rect x="210.26" y="25.08" width="1.51" height="3.03" rx="0.68" transform="translate(237.61 -184.42) rotate(90)" fill="#50555d"/><rect x="202.69" y="25.08" width="1.51" height="3.03" rx="0.68" transform="translate(230.04 -176.85) rotate(90)" fill="#50555d"/><rect x="306.48" y="72.36" width="1.51" height="3.03" rx="0.68" fill="#babbbe"/><rect x="306.48" y="79.93" width="1.51" height="3.03" rx="0.68" fill="#babbbe"/><rect x="310.26" y="76.15" width="1.51" height="3.03" rx="0.68" transform="translate(388.68 -233.36) rotate(90)" fill="#babbbe"/><rect x="302.69" y="76.15" width="1.51" height="3.03" rx="0.68" transform="translate(381.11 -225.79) rotate(90)" fill="#babbbe"/><rect x="189.09" y="121.67" width="18.14" height="9.81" fill="#373a40"/><path d="M208.76,89h-7.68a18.76,18.76,0,0,0-18.76,18.76,18.57,18.57,0,0,0,3,10.08v9.67h4.93v-3a1,1,0,0,1,2,0v3h4.93v-3a1,1,0,0,1,2,0v3h4.94v-3a1,1,0,0,1,2,0v3H211v-3h3.72a11.85,11.85,0,0,0,11.85-11.84V106.8A17.78,17.78,0,0,0,208.76,89Z" fill="#f6f6f7"/><path d="M211,118.65v5.92h3.72a11.85,11.85,0,0,0,10.25-5.89,4,4,0,0,0-3.55-6h-4.5A5.92,5.92,0,0,0,211,118.65Z" fill="#babbbe"/><rect x="187.26" y="105.82" width="7.9" height="10.86" rx="3.95" fill="#373a40"/><rect x="201.08" y="105.82" width="7.9" height="10.86" rx="3.95" fill="#373a40"/><path d="M195.18,117.83l1.06-3a1,1,0,0,1,1.86,0l1.07,3a1,1,0,0,1-.93,1.31h-2.13A1,1,0,0,1,195.18,117.83Z" fill="#373a40"/><path d="M214.27,122.76v1.47a3.31,3.31,0,0,1-3.31,3.31H206v2a1,1,0,1,1-2,0v-2h-4.94v2a1,1,0,0,1-2,0v-2H192.2v2a1,1,0,1,1-2,0v-2h-4.93v2a4.94,4.94,0,0,0,4.93,4.94h22.07a8.89,8.89,0,0,0,8.89-8.89v-2.8a3.46,3.46,0,0,0-3.46-3.46h0A3.45,3.45,0,0,0,214.27,122.76Z" fill="#dcddde"/><path d="M342.43,99.32h0a5.14,5.14,0,0,0-4.23-5.12,5.05,5.05,0,0,0-5.83,5h0a16.38,16.38,0,0,1-1.91,7.95,7.93,7.93,0,1,0,13.9,0A16.27,16.27,0,0,1,342.43,99.32Z" fill="#060707"/><path d="M357.9,105.11a3.53,3.53,0,0,0,.51-2.71,3.47,3.47,0,0,0-6.85.77H323.25a3.47,3.47,0,1,0-6.34,1.94,1.69,1.69,0,0,1,0,1.9,3.47,3.47,0,1,0,6.34,1.93h28.31a3.47,3.47,0,0,0,6.85.77,3.51,3.51,0,0,0-.51-2.7A1.69,1.69,0,0,1,357.9,105.11Z" fill="#babbbe"/><path d="M333.93,129.91a1.14,1.14,0,0,1-1.13-1.14v-14.2a1.14,1.14,0,0,1,2.27,0v14.2A1.14,1.14,0,0,1,333.93,129.91Z" fill="#060707"/><path d="M340.88,129.91a1.14,1.14,0,0,1-1.14-1.14v-14.2a1.14,1.14,0,0,1,2.27,0v14.2A1.14,1.14,0,0,1,340.88,129.91Z" fill="#060707"/><path d="M331.62,113a6.89,6.89,0,0,1-6.88-6.88v-.75a1.14,1.14,0,0,1,2.27,0v.75a4.62,4.62,0,0,0,4.61,4.61,1.14,1.14,0,0,1,0,2.27Z" fill="#060707"/><path d="M343.19,113a1.14,1.14,0,1,1,0-2.27,4.62,4.62,0,0,0,4.61-4.61v-.75a1.14,1.14,0,0,1,2.27,0v.75A6.89,6.89,0,0,1,343.19,113Z" fill="#060707"/><path d="M169.34,109.92h0a5.12,5.12,0,0,0-1-6.56,5,5,0,0,0-7.55,1.28h0a16.42,16.42,0,0,1-5.71,5.85A7.92,7.92,0,1,0,167,117.63,16.13,16.13,0,0,1,169.34,109.92Z" fill="#060707"/><path d="M163.6,134.45a1.14,1.14,0,0,1-1.14-1.14v-4.44a7,7,0,0,0-1.29-4.05l-3.57-5a1.13,1.13,0,0,1,1.85-1.31l3.57,5a9.19,9.19,0,0,1,1.71,5.36v4.44A1.14,1.14,0,0,1,163.6,134.45Z" fill="#060707"/><path d="M149.74,134.45a1.16,1.16,0,0,1-.72-.26,1.13,1.13,0,0,1-.15-1.6l2.3-2.77a14.5,14.5,0,0,0,3.19-7.06l.82-5.19a1.13,1.13,0,1,1,2.24.35l-.81,5.19a16.85,16.85,0,0,1-3.7,8.17L150.62,134A1.15,1.15,0,0,1,149.74,134.45Z" fill="#060707"/><path d="M171.21,123.51a7.72,7.72,0,0,1-5.08-1.75c-3.62-3-3.77-8.76-3.78-9a1.14,1.14,0,0,1,1.12-1.16h0a1.13,1.13,0,0,1,1.13,1.11h0c0,.05.15,5,3,7.31a6.17,6.17,0,0,0,5.15,1.08A1.15,1.15,0,0,1,174,122a1.14,1.14,0,0,1-.94,1.3A11.34,11.34,0,0,1,171.21,123.51Z" fill="#060707"/></svg>