<?xml version="1.0" encoding="UTF-8" standalone="no"?>
<svg width="22px" height="22px" viewBox="0 0 22 22" version="1.1" xmlns="http://www.w3.org/2000/svg" xmlns:xlink="http://www.w3.org/1999/xlink" xmlns:sketch="http://www.bohemiancoding.com/sketch/ns">
    <!-- Generator: Sketch 3.5.2 (25235) - http://www.bohemiancoding.com/sketch -->
    <title>emoji-food-color</title>
    <desc>Created with Sketch.</desc>
    <defs>
        <path id="path-1" d="M0,0 L12,0 L12,18 L0,18 L0,0 Z"></path>
    </defs>
    <g id="General-Playground" stroke="none" stroke-width="1" fill="none" fill-rule="evenodd" sketch:type="MSPage">
        <g id="emoji-food-color" sketch:type="MSArtboardGroup">
            <g id="Page-1" sketch:type="MSLayerGroup" transform="translate(5.000000, 2.000000)">
                <path d="M7.0002,9.9999 L5.0002,9.9999 L3.9992,9.9999 L3.9992,10.9999 L3.9992,16.9999 L3.9992,17.9999 L5.0002,17.9999 L7.0002,17.9999 L8.0002,17.9999 L8.0002,16.9999 L8.0002,10.9999 L8.0002,9.9999 L7.0002,9.9999 Z M5.0002,10.9999 L7.0002,10.9999 L7.0002,16.9999 L5.0002,16.9999 L5.0002,10.9999 Z" id="Fill-1" fill="#282B2E" sketch:type="MSShapeGroup"></path>
                <g id="Group-9">
                    <path d="M9,14 L3,14 C1.895,14 1,13.105 1,12 L1,6 C1,3.239 3.239,1 6,1 L6,1 C8.761,1 11,3.239 11,6 L11,12 C11,13.105 10.105,14 9,14" id="Fill-2" fill="#FFB36E" sketch:type="MSShapeGroup"></path>
                    <path d="M6,0 C2.692,0 0,2.692 0,6 L0,12 C0,13.654 1.346,15 3,15 L9,15 C10.654,15 12,13.654 12,12 L12,6 C12,2.692 9.308,0 6,0 M6,1 C8.761,1 11,3.239 11,6 L11,12 C11,13.105 10.105,14 9,14 L3,14 C1.895,14 1,13.105 1,12 L1,6 C1,3.239 3.239,1 6,1" id="Fill-4" fill="#282B2E" sketch:type="MSShapeGroup"></path>
                    <mask id="mask-2" sketch:name="Clip 7" fill="white">
                        <use xlink:href="#path-1"></use>
                    </mask>
                    <g id="Clip-7"></g>
                    <path d="M8,11 L7,11 L7,5 L8,5 L8,11 Z" id="Fill-6" fill="#282B2E" sketch:type="MSShapeGroup" mask="url(#mask-2)"></path>
                    <path d="M5,11 L4,11 L4,5 L5,5 L5,11 Z" id="Fill-8" fill="#282B2E" sketch:type="MSShapeGroup" mask="url(#mask-2)"></path>
                </g>
            </g>
        </g>
    </g>
</svg>