<?xml version="1.0" encoding="UTF-8" standalone="no"?>
<svg width="22px" height="22px" viewBox="0 0 22 22" version="1.1" xmlns="http://www.w3.org/2000/svg" xmlns:xlink="http://www.w3.org/1999/xlink" xmlns:sketch="http://www.bohemiancoding.com/sketch/ns">
    <!-- Generator: Sketch 3.5.2 (25235) - http://www.bohemiancoding.com/sketch -->
    <title>emoji-travel-color</title>
    <desc>Created with Sketch.</desc>
    <defs>
        <path id="path-1" d="M0,0 L18,0 L18,15 L0,15 L0,0 Z"></path>
    </defs>
    <g id="General-Playground" stroke="none" stroke-width="1" fill="none" fill-rule="evenodd" sketch:type="MSPage">
        <g id="emoji-travel-color" sketch:type="MSArtboardGroup">
            <g id="Page-1" sketch:type="MSLayerGroup" transform="translate(2.000000, 4.000000)">
                <path d="M8,8 L11,8 L11,4 L8,4 L8,8 Z" id="Fill-1" fill="#D88359" sketch:type="MSShapeGroup"></path>
                <path d="M12,3.0001 L11,3.0001 L8,3.0001 L7,3.0001 L7,4.0001 L7,8.0001 L7,9.0001 L8,9.0001 L11,9.0001 L12,9.0001 L12,8.0001 L12,4.0001 L12,3.0001 Z M11,8.0001 L8,8.0001 L8,4.0001 L11,4.0001 L11,8.0001 Z" id="Fill-2" fill="#282B2E" sketch:type="MSShapeGroup"></path>
                <path d="M6,1.001 L12.999,1.001 L12.999,0 L6,0 L6,1.001 Z" id="Fill-3" fill="#282B2E" sketch:type="MSShapeGroup"></path>
                <path d="M9,3.667 L10,3.667 L10,1 L9,1 L9,3.667 Z" id="Fill-4" fill="#282B2E" sketch:type="MSShapeGroup"></path>
                <g id="Group-15">
                    <path d="M14,6 L14,8 L5,8 L5,6 L2,6 L1,6 L1,8 L2,8 L2,9 C2,11.761 4.239,14 7,14 L12,14 C14.761,14 17,11.761 17,9 L17,6 L14,6 Z" id="Fill-5" fill="#D88359" sketch:type="MSShapeGroup"></path>
                    <mask id="mask-2" sketch:name="Clip 8" fill="white">
                        <use xlink:href="#path-1"></use>
                    </mask>
                    <g id="Clip-8"></g>
                    <path d="M17,3 L14,3 L14,2 L17,2 L17,3 Z" id="Fill-7" fill="#282B2E" sketch:type="MSShapeGroup" mask="url(#mask-2)"></path>
                    <path d="M4,3 L1,3 L1,2 L4,2 L4,3 Z" id="Fill-9" fill="#282B2E" sketch:type="MSShapeGroup" mask="url(#mask-2)"></path>
                    <path d="M17.626,10 L2,10 L2,9 L17.626,9 L17.626,10 Z" id="Fill-10" fill="#282B2E" sketch:type="MSShapeGroup" mask="url(#mask-2)"></path>
                    <path d="M18,5 L17,5 L14,5 L13,5 L13,6 L13,7 L6,7 L6,6 L6,5 L5,5 L2,5 L1,5 L0,5 L0,6 L0,8 L0,9 L1,9 L1,9 C1,12.308 3.692,15 7,15 L12,15 C15.308,15 18,12.308 18,9 L18,6 L18,5 Z M17,6 L17,9 C17,11.761 14.761,14 12,14 L7,14 C4.239,14 2,11.761 2,9 L2,8 L1,8 L1,6 L2,6 L5,6 L5,8 L14,8 L14,6 L17,6 L17,6 Z" id="Fill-11" fill="#282B2E" sketch:type="MSShapeGroup" mask="url(#mask-2)"></path>
                    <path d="M3,6 L2,6 L2,3 L3,3 L3,6 Z" id="Fill-12" fill="#282B2E" sketch:type="MSShapeGroup" mask="url(#mask-2)"></path>
                    <path d="M16,6 L15,6 L15,3 L16,3 L16,6 Z" id="Fill-13" fill="#282B2E" sketch:type="MSShapeGroup" mask="url(#mask-2)"></path>
                    <path d="M8,8.0001 L11,8.0001 L8,8.0001 Z" id="Fill-14" fill="#D88359" sketch:type="MSShapeGroup" mask="url(#mask-2)"></path>
                </g>
            </g>
        </g>
    </g>
</svg>