<svg xmlns="http://www.w3.org/2000/svg" viewBox="0 0 325 150"><defs><style>.cls-1,.cls-3{fill:#4f545c;}.cls-1,.cls-8{opacity:0.3;}.cls-2,.cls-8{fill:#72767d;}.cls-4{fill:#202225;}.cls-5{fill:#b9bbbe;}.cls-6{fill:#dcddde;}.cls-7{fill:#36393f;}.cls-9{fill:#18191c;}.cls-10,.cls-11{fill:none;stroke:#4f545c;stroke-width:2px;}.cls-10{stroke-linecap:round;stroke-linejoin:round;}.cls-11{stroke-miterlimit:10;}</style></defs><title>Server-Analytics-Empty-State-Dark</title><g id="Dark_Theme" data-name="Dark Theme"><path class="cls-1" d="M325,150h0a42.9,42.9,0,0,0-42.92-42.87H260.17v-5.3A65.51,65.51,0,0,0,226.7,44.68h0a65.68,65.68,0,0,0-32.12-8.39H87.88V73.14H71.36a40.49,40.49,0,0,0-40.52,40.47V125H25A25,25,0,0,0,0,150H325Z"/><rect class="cls-2" x="150.64" y="80.07" width="55.48" height="23.31"/><rect class="cls-2" x="206.05" y="103.38" width="29.53" height="23.31"/><rect class="cls-2" x="235.65" y="126.69" width="29.53" height="23.31"/><rect class="cls-2" x="151.03" y="103.38" width="84.63" height="46.62" transform="translate(386.68 253.38) rotate(180)"/><rect class="cls-3" x="121.11" y="80.07" width="55.48" height="23.31"/><rect class="cls-4" x="206.12" y="126.69" width="29.53" height="23.31"/><rect class="cls-4" x="121.49" y="103.38" width="84.63" height="46.62" transform="translate(327.61 253.38) rotate(180)"/><path class="cls-5" d="M81.43,16.79h95.16a0,0,0,0,1,0,0V131.35A18.65,18.65,0,0,1,157.93,150H81.43a0,0,0,0,1,0,0V16.79A0,0,0,0,1,81.43,16.79Z"/><rect class="cls-3" x="87.45" y="24.95" width="83.12" height="78.43" rx="2.37"/><rect class="cls-3" x="123.55" y="142.31" width="10.91" height="3.64" rx="1.82"/><rect class="cls-4" x="91.07" y="28.54" width="75.87" height="63.19"/><rect class="cls-2" x="59.57" y="16.79" width="21.85" height="133.21" transform="translate(141 166.79) rotate(180)"/><rect class="cls-3" x="94.35" y="118.83" width="21.9" height="7.32"/><rect class="cls-3" x="94.37" y="118.83" width="21.87" height="7.33" transform="translate(-17.19 227.8) rotate(-90)"/><ellipse class="cls-6" cx="158.9" cy="117.89" rx="4.79" ry="4.78"/><ellipse class="cls-6" cx="143.26" cy="127.08" rx="4.79" ry="4.78"/><rect class="cls-7" x="59.56" y="24.95" width="16.09" height="3.58"/><rect class="cls-7" x="59.56" y="31.35" width="16.09" height="3.58"/><rect class="cls-7" x="59.56" y="37.75" width="16.09" height="3.58"/><rect class="cls-7" x="59.56" y="44.15" width="16.09" height="3.58"/><path class="cls-2" d="M261.31,114.21a10.83,10.83,0,1,1,0-21.65h2.28v21.65Z"/><path class="cls-2" d="M229.1,90.9a10.83,10.83,0,1,1,0-21.65h2.27V90.9Z"/><path class="cls-2" d="M196.88,67.59a10.83,10.83,0,1,1,0-21.65h2.28V67.59Z"/><ellipse class="cls-5" cx="263.59" cy="103.38" rx="10.84" ry="10.83"/><ellipse class="cls-5" cx="231.37" cy="80.07" rx="10.84" ry="10.83"/><ellipse class="cls-5" cx="199.16" cy="56.77" rx="10.84" ry="10.83"/><circle class="cls-8" cx="160.72" cy="34.75" r="2.07"/><circle class="cls-8" cx="154" cy="34.75" r="2.07"/><circle class="cls-8" cx="147.27" cy="34.75" r="2.07"/><circle class="cls-8" cx="140.55" cy="34.75" r="2.07"/><ellipse class="cls-5" cx="116.98" cy="66.2" rx="19.3" ry="19.27"/><path class="cls-2" d="M117,46.93V85.48a19.28,19.28,0,1,0,0-38.55Z"/><path class="cls-3" d="M130.63,52.58A19.25,19.25,0,0,0,117,46.93V66.2Z"/><rect class="cls-2" x="150.85" y="43.15" width="11.95" height="3.78" rx="1.89"/><circle class="cls-7" cx="105.24" cy="122.49" r="1.81"/><path class="cls-2" d="M227.88,52.85l-1.09,2.25a.62.62,0,0,0,.83.83l2.25-1.09a.64.64,0,0,1,.54,0l2.26,1.09a.62.62,0,0,0,.82-.83l-1.08-2.25a.57.57,0,0,1,0-.54l1.08-2.25a.62.62,0,0,0-.82-.83l-2.26,1.09a.64.64,0,0,1-.54,0l-2.25-1.09a.62.62,0,0,0-.83.83l1.09,2.25A.64.64,0,0,1,227.88,52.85Z"/><rect class="cls-2" x="33" y="72.85" width="1.71" height="2.56" rx="0.85"/><rect class="cls-2" x="33" y="79.67" width="1.71" height="2.56" rx="0.85"/><rect class="cls-2" x="36.42" y="76.25" width="1.71" height="2.56" rx="0.85" transform="translate(114.81 40.26) rotate(90)"/><rect class="cls-2" x="29.59" y="76.25" width="1.71" height="2.56" rx="0.85" transform="translate(107.98 47.09) rotate(90)"/><rect class="cls-9" x="287.17" y="116.54" width="1.71" height="2.56" rx="0.85"/><rect class="cls-9" x="287.17" y="123.36" width="1.71" height="2.56" rx="0.85"/><rect class="cls-9" x="290.59" y="119.95" width="1.71" height="2.56" rx="0.85" transform="translate(412.67 -170.21) rotate(90)"/><rect class="cls-9" x="283.76" y="119.95" width="1.71" height="2.56" rx="0.85" transform="translate(405.84 -163.38) rotate(90)"/><polygon class="cls-10" points="98.25 1.14 92.85 9.81 103.66 9.81 98.25 1.14"/><path class="cls-7" d="M162.8,85.48h-22v-1.1a10,10,0,0,1,2.93-7.08l1-1a3.11,3.11,0,0,1,4.41,0h0a3.11,3.11,0,0,0,4.46-.06l3.29-3.48a3.45,3.45,0,0,1,6,2.37Z"/><path class="cls-11" d="M70.65,150V86.4a4.18,4.18,0,0,0-4.18-4.18H59.56"/><path class="cls-6" d="M199.16,45.94V56.77H210A10.84,10.84,0,0,0,199.16,45.94Z"/><path class="cls-6" d="M188.32,56.77h10.84V67.59A10.83,10.83,0,0,1,188.32,56.77Z"/><ellipse class="cls-5" cx="199.16" cy="56.77" rx="8.34" ry="8.33"/><rect class="cls-2" x="196.94" y="50.92" width="4.2" height="11.7" rx="2.1"/><path class="cls-6" d="M231.37,69.25V80.07h10.84A10.83,10.83,0,0,0,231.37,69.25Z"/><path class="cls-6" d="M220.53,80.07h10.84V90.9A10.83,10.83,0,0,1,220.53,80.07Z"/><ellipse class="cls-5" cx="231.37" cy="80.07" rx="8.34" ry="8.33"/><rect class="cls-2" x="229.16" y="74.23" width="4.2" height="11.7" rx="2.1"/><path class="cls-6" d="M263.59,92.56v10.82h10.84A10.83,10.83,0,0,0,263.59,92.56Z"/><path class="cls-6" d="M252.75,103.38h10.84v10.83A10.83,10.83,0,0,1,252.75,103.38Z"/><ellipse class="cls-5" cx="263.59" cy="103.38" rx="8.34" ry="8.33"/><rect class="cls-2" x="261.37" y="97.54" width="4.2" height="11.7" rx="2.1"/></g></svg>