<svg xmlns="http://www.w3.org/2000/svg" width="660" height="97" viewBox="0 0 660 97" xmlns:xlink="http://www.w3.org/1999/xlink">
  <defs>
    <linearGradient id="b" x1="-2.92%" x2="113.994%" y1="110.958%" y2="-13.704%">
      <stop stop-color="#B473F5" offset="0%"/>
      <stop stop-color="#E292AA" offset="100%"/>
    </linearGradient>
    <rect id="a" width="660" height="97"/>
  </defs>
  <g fill="none" fill-rule="evenodd">
    <mask id="c" fill="white">
      <use xlink:href="#a"/>
    </mask>
    <use fill="url(#b)" xlink:href="#a"/>
    <g transform="translate(23 12)" opacity=".2" mask="url(#c)" stroke-linecap="round" stroke-linejoin="round">
      <path stroke="#FFFFFF" d="M659.52607 59C659.825649 57.6871938 660 56.3258106 660 54.921157 660 44.9553009 652.030775 36.8761955 642.200461 36.8761955 638.296279 36.8761955 634.697112 38.1657336 631.762735 40.3265979 626.872241 26.717868 613.996818 17 598.881805 17 581.978182 17 567.875052 29.1528458 564.608884 45.3104444 563.066297 44.6964952 561.392243 44.347679 559.635039 44.347679 552.104511 44.347679 546 50.5363599 546 58.1707196 546 58.4509564 546.025166 58.7240495 546.041273 59L659.52607 59zM349 33L375 33"/>
      <g transform="translate(0 3)">
        <path stroke="#FFFFFF" d="M56.5708098 36.1764706L133 36.1764706C130.082097 32.7349213 125.77809 30.5481739 120.965757 30.5481739 119.72896 30.5481739 118.530492 30.7063285 117.374569 30.9786489 115.20902 22.5925708 107.742479 16.3991734 98.836855 16.3991734 97.2119402 16.3991734 95.6422128 16.6275052 94.1350978 17.0154237 88.2501251 6.84422479 77.4231799 0 65.0018235 0 52.1407749 0 40.955614 7.31561944 35.2317881 18.0879284M49.2757017 42.3529412C49.3002037 42.0306652 49.3245033 41.7079828 49.3245033 41.3794077 49.3245033 34.346639 43.6428564 28.6450366 36.6342499 28.6450366 33.4578898 28.6450366 30.5613798 29.824209 28.3353357 31.7598968 25.3466898 28.5147851 21.0825185 26.4705882 16.332153 26.4705882 7.47637341 26.4705882.283090112 33.5356658 0 42.3529412L49.2757017 42.3529412zM28.1854305 59.2187986C28.1854305 59.2187986 14.3129139 59.2187986 28.1854305 59.2187986M110.099338 5.39526922C110.099338 5.39526922 96.2268212 5.39526922 110.099338 5.39526922"/>
      </g>
      <path stroke="#FFFFFF" d="M333 20C331.185866 15.6443384 326.98552 12.5916632 322.09022 12.5916632 321.387409 12.5916632 320.702728 12.6665284 320.033355 12.7874326 317.050086 6.96972211 311.12303 3 304.288907 3 295.815093 3 288.737837 9.10099544 286.941228 17.26545 285.101512 17.8162588 283.426973 18.7623393 282 20L333 20zM515.52607 91C515.825649 89.6871938 516 88.3258106 516 86.921157 516 76.9553009 508.030775 68.8761955 498.200662 68.8761955 494.296279 68.8761955 490.697112 70.1657336 487.762735 72.3265979 482.872039 58.717868 469.997019 49 454.881805 49 437.978384 49 423.875052 61.1528458 420.608884 77.3104444 419.066297 76.6964952 417.392243 76.347679 415.635039 76.347679 408.104713 76.347679 402 82.5363599 402 90.1707196 402 90.4509564 402.025166 90.7240495 402.041273 91L515.52607 91zM538 19C536.878845 8.32155858 527.912803 0 517.013073 0 509.76366 0 503.371442 3.68356654 499.570815 9.29049393 497.03669 7.67071132 494.039472 6.71934901 490.81591 6.71934901 483.220419 6.71934901 476.850931 11.9356391 475 19L538 19z"/>
    </g>
  </g>
</svg>
