<svg width="195" height="80" viewBox="0 0 195 80" fill="none" xmlns="http://www.w3.org/2000/svg">
<path d="M191.137 79.9999H162.162L176.649 27.9517L191.137 79.9999Z" fill="#FF9A15"/>
<path d="M195 79.9999H176.263L185.632 46.3613L195 79.9999Z" fill="#83DDC5"/>
<path d="M139.562 51.518C139.562 55.8072 143.039 59.277 147.337 59.277H160.327C171.192 59.277 179.209 69.3493 176.746 79.9517V79.9999H101.412V35.1807H123.191C132.221 35.1807 139.562 42.506 139.562 51.518Z" fill="#3E70DD"/>
<path d="M143.425 73.0121V57.3495C143.425 55.229 141.686 53.4941 139.562 53.4941C137.437 53.4941 135.698 55.229 135.698 57.3495V66.988C135.698 67.8073 135.071 68.4338 134.25 68.4338C133.429 68.4338 132.801 67.8073 132.801 66.988V52.7712C132.801 49.4459 130.097 46.7471 126.764 46.7471C123.432 46.7471 120.728 49.4459 120.728 52.7712C120.728 61.1085 120.728 80.0001 120.728 80.0001H132.801H135.698H143.425H152.6C152.6 77.3495 150.427 75.1808 147.771 75.1808H145.598C144.391 75.1808 143.425 74.217 143.425 73.0121Z" fill="#D4E4FF"/>
<path d="M125.557 35.1807C132.221 35.1807 137.63 29.7831 137.63 23.1325C137.63 18.0241 134.443 13.6386 129.952 11.9036C128.262 5.06024 122.08 0 114.692 0C107.255 0 101.025 5.15663 99.4317 12.0482C99.2869 12.0482 99.142 12.0482 98.9971 12.0482C93.6851 12.0482 89.3389 16.3855 89.3389 21.6867V35.1807H125.557Z" fill="#83DDC5"/>
<path d="M40.9509 79.9999H2.31787L21.6344 32.2891L40.9509 79.9999Z" fill="#83DDC5"/>
<path d="M27.5742 59.3252V61.783C27.5742 62.5541 26.9464 63.1806 26.1737 63.1806C25.4011 63.1806 24.7733 62.5541 24.7733 61.783V60.3855C24.7733 58.8433 23.5177 57.6385 22.0207 57.6385C20.4753 57.6385 19.2681 58.8915 19.2681 60.3855V73.0602H24.7733H27.5259H38.6329V48.2891C32.5482 48.3373 27.5742 53.2529 27.5742 59.3252Z" fill="#F47FFF"/>
<path d="M148.641 33.928H148.544C148.254 33.928 148.061 33.687 148.061 33.446V32.2412C148.061 31.952 148.302 31.7593 148.544 31.7593H148.641C148.93 31.7593 149.123 32.0002 149.123 32.2412V33.446C149.123 33.7352 148.882 33.928 148.641 33.928Z" fill="#D4E4FF"/>
<path d="M148.641 39.4699H148.544C148.254 39.4699 148.061 39.229 148.061 38.988V37.7832C148.061 37.494 148.302 37.3013 148.544 37.3013H148.641C148.93 37.3013 149.123 37.5422 149.123 37.7832V38.988C149.123 39.229 148.882 39.4699 148.641 39.4699Z" fill="#D4E4FF"/>
<path d="M150.234 35.6628V35.5664C150.234 35.2772 150.476 35.0845 150.717 35.0845H151.925C152.214 35.0845 152.407 35.3254 152.407 35.5664V35.6628C152.407 35.9519 152.166 36.1447 151.925 36.1447H150.717C150.428 36.1447 150.234 35.9037 150.234 35.6628Z" fill="#D4E4FF"/>
<path d="M144.681 35.6628V35.5664C144.681 35.2772 144.922 35.0845 145.164 35.0845H146.371C146.661 35.0845 146.854 35.3254 146.854 35.5664V35.6628C146.854 35.9519 146.612 36.1447 146.371 36.1447H145.164C144.922 36.1447 144.681 35.9037 144.681 35.6628Z" fill="#D4E4FF"/>
<path d="M168.44 21.8796H168.343C168.054 21.8796 167.86 21.6386 167.86 21.3977V20.1929C167.86 19.9037 168.102 19.7109 168.343 19.7109H168.44C168.73 19.7109 168.923 19.9519 168.923 20.1929V21.3977C168.923 21.6868 168.681 21.8796 168.44 21.8796Z" fill="white"/>
<path d="M168.44 27.4216H168.343C168.054 27.4216 167.86 27.1806 167.86 26.9397V25.7349C167.86 25.4457 168.102 25.2529 168.343 25.2529H168.44C168.73 25.2529 168.923 25.4939 168.923 25.7349V26.9397C168.923 27.1806 168.681 27.4216 168.44 27.4216Z" fill="white"/>
<path d="M170.033 23.6144V23.5181C170.033 23.2289 170.275 23.0361 170.516 23.0361H171.723C172.013 23.0361 172.206 23.2771 172.206 23.5181V23.6144C172.206 23.9036 171.965 24.0964 171.723 24.0964H170.516C170.226 24.0964 170.033 23.8554 170.033 23.6144Z" fill="white"/>
<path d="M164.48 23.6144V23.5181C164.48 23.2289 164.721 23.0361 164.963 23.0361H166.17C166.46 23.0361 166.653 23.2771 166.653 23.5181V23.6144C166.653 23.9036 166.412 24.0964 166.17 24.0964H164.963C164.721 24.0964 164.48 23.8554 164.48 23.6144Z" fill="white"/>
<path d="M101.411 22.1685H38.6328V60.7227H101.411V22.1685Z" fill="white"/>
<path d="M89.3386 29.3975H45.8765V53.4938H89.3386V29.3975Z" fill="#202225"/>
<path d="M96.5823 60.7227H28.9746V65.5419H96.5823V60.7227Z" fill="#D4E4FF"/>
<path d="M86.9241 65.542H19.3164V70.3613H86.9241V65.542Z" fill="#AEC7FF"/>
<path d="M77.2659 70.3613H9.6582V75.1806H77.2659V70.3613Z" fill="#D4E4FF"/>
<path d="M67.6077 75.1807H0V79.9999H67.6077V75.1807Z" fill="#AEC7FF"/>
<path d="M86.9244 60.7227V65.5419H77.2662V70.3612H67.608V75.1805H57.9497V79.9998H115.899V60.7227H86.9244Z" fill="#7196FF"/>
<path d="M101.412 22.1685L115.899 35.1805V60.7227H101.412V22.1685Z" fill="#7196FF"/>
<path d="M104.309 55.9037H102.377C97.8381 55.9037 94.168 52.241 94.168 47.7109C94.168 46.3615 95.2304 45.3013 96.5825 45.3013C97.9347 45.3013 98.9971 46.3615 98.9971 47.7109C98.9971 49.5904 100.494 51.0844 102.377 51.0844H104.309C105.661 51.0844 106.724 52.1446 106.724 53.494C106.724 54.8434 105.661 55.9037 104.309 55.9037Z" fill="#7196FF"/>
<path d="M115.319 43.8552H106.241C104.889 43.8552 103.826 42.795 103.826 41.4456C103.826 40.0962 104.889 39.036 106.241 39.036H115.319C118.555 39.036 121.211 36.3854 121.211 33.1564V27.9516C121.211 26.6022 122.273 25.542 123.626 25.542C124.978 25.542 126.04 26.6022 126.04 27.9516V33.1564C126.04 39.036 121.211 43.8552 115.319 43.8552Z" fill="#7196FF"/>
<path d="M123.336 23.4219C122.998 20.8677 125.171 18.6508 127.778 18.9882C128.116 21.5424 125.895 23.7593 123.336 23.4219Z" fill="white"/>
<path d="M99.0455 43.6626C98.7075 41.1084 100.881 38.8916 103.488 39.2289C103.826 41.7831 101.605 44 99.0455 43.6626Z" fill="#83DDC5"/>
<path d="M118.99 18.9878C121.549 18.6505 123.771 20.8192 123.432 23.4216C120.873 23.7589 118.652 21.5421 118.99 18.9878Z" fill="white"/>
<path d="M102.088 13.7832C101.749 11.229 103.923 9.01216 106.53 9.34951C106.868 11.9037 104.647 14.1206 102.088 13.7832Z" fill="white"/>
<path d="M97.7417 9.34917C100.301 9.01182 102.523 11.1805 102.184 13.7829C99.625 14.1203 97.4036 11.9034 97.7417 9.34917Z" fill="white"/>
<path d="M168.053 55.4219H157.429V80.0002H168.053V55.4219Z" fill="white"/>
<path d="M168.054 55.4219H162.742V80.0002H168.054V55.4219Z" fill="#D4E4FF"/>
<path d="M169.985 41.4457L162.741 34.2168L155.498 41.4457L159.361 45.3011V55.4216H166.122V45.3011L169.985 41.4457Z" fill="#AEC7FF"/>
<path d="M172.4 53.9761H153.083V59.2773H172.4V53.9761Z" fill="#7196FF"/>
<path d="M162.741 64.5785L157.429 59.2773H162.741V64.5785Z" fill="#D4E4FF"/>
<path d="M165.643 41.4786L162.741 38.582L159.838 41.4786L162.741 44.3751L165.643 41.4786Z" fill="#7196FF"/>
<path d="M165.639 41.4458L162.742 38.5542V44.3373L165.639 41.4458Z" fill="#3E70DD"/>
<path d="M25.8356 18.9881L24.918 20.9158C24.7249 21.3496 25.1595 21.8315 25.6424 21.6387L27.5741 20.7231C27.7189 20.6749 27.8638 20.6749 28.0087 20.7231L29.9403 21.6387C30.375 21.8315 30.8579 21.3978 30.6647 20.9158L29.7472 18.9881C29.6989 18.8435 29.6989 18.699 29.7472 18.5544L30.6647 16.6267C30.8579 16.1929 30.4232 15.711 29.9403 15.9038L28.0087 16.8195C27.8638 16.8676 27.7189 16.8676 27.5741 16.8195L25.6424 15.9038C25.2078 15.711 24.7249 16.1448 24.918 16.6267L25.8356 18.5544C25.8839 18.699 25.8839 18.8435 25.8356 18.9881Z" fill="#7196FF"/>
<path d="M120.728 60.7227V65.5419H125.557V70.3612H130.386V75.1805H135.215V79.9998H101.412V60.7227H120.728Z" fill="#AEC7FF"/>
<path d="M69.5396 41.9277H65.6763V45.7832H69.5396V41.9277Z" fill="white"/>
<path d="M78.232 41.9277H74.3687V45.7832H78.232V41.9277Z" fill="white"/>
<path d="M60.8472 41.9277H56.9839V45.7832H60.8472V41.9277Z" fill="white"/>
</svg>
