<svg id="Light_Theme" data-name="Light Theme" xmlns="http://www.w3.org/2000/svg" viewBox="0 0 325 150"><defs><style>.cls-1{fill:#dcddde;opacity:0.3;}.cls-2{fill:#e3e5e8;}.cls-3{fill:#9099a4;}.cls-4{fill:#747f8d;}.cls-5{fill:#c7ccd1;}.cls-6{fill:#23262a;}.cls-7{fill:#4f5660;}.cls-8,.cls-9{fill:none;stroke-width:2px;}.cls-8{stroke:#e3e5e8;stroke-linecap:round;stroke-linejoin:round;}.cls-9{stroke:#747f8d;stroke-miterlimit:10;}.cls-10{fill:#fff;}</style></defs><title>Server-Analytics-Empty-State-Light</title><path class="cls-1" d="M325,150h0A42.93,42.93,0,0,0,282.08,107H260.17v-5.3A65.6,65.6,0,0,0,226.7,44.55h0a65.58,65.58,0,0,0-32.12-8.4H87.88V73H71.36a40.52,40.52,0,0,0-40.52,40.52V125H25A25,25,0,0,0,0,150H325Z"/><rect class="cls-2" x="150.64" y="79.99" width="55.48" height="23.34"/><rect class="cls-3" x="206.05" y="103.32" width="29.53" height="23.34"/><rect class="cls-2" x="235.65" y="126.66" width="29.53" height="23.34"/><rect class="cls-3" x="151.03" y="103.32" width="55.09" height="46.68" transform="translate(357.15 253.32) rotate(180)"/><rect class="cls-4" x="121.11" y="79.99" width="55.48" height="23.34"/><rect class="cls-2" x="206.12" y="103.32" width="29.53" height="23.34"/><rect class="cls-3" x="121.49" y="103.32" width="84.63" height="46.68" transform="translate(327.61 253.32) rotate(180)"/><rect class="cls-3" x="121.49" y="126.66" width="114.16" height="23.34" transform="translate(357.15 276.66) rotate(180)"/><path class="cls-5" d="M81.43,16.63h95.16a0,0,0,0,1,0,0V131.34A18.66,18.66,0,0,1,157.92,150H81.43a0,0,0,0,1,0,0V16.63A0,0,0,0,1,81.43,16.63Z"/><rect class="cls-4" x="87.45" y="24.8" width="83.12" height="78.53" rx="2.37"/><rect class="cls-4" x="123.55" y="142.3" width="10.91" height="3.65" rx="1.82"/><rect class="cls-6" x="91.07" y="28.38" width="75.87" height="63.27"/><rect class="cls-3" x="59.57" y="16.63" width="21.85" height="133.37" transform="translate(141 166.63) rotate(180)"/><rect class="cls-3" x="94.35" y="118.79" width="21.9" height="7.33"/><rect class="cls-3" x="94.35" y="118.79" width="21.9" height="7.33" transform="translate(-17.15 227.77) rotate(-90)"/><circle class="cls-2" cx="158.9" cy="117.85" r="4.79"/><circle class="cls-2" cx="143.26" cy="127.05" r="4.79"/><rect class="cls-4" x="59.56" y="24.8" width="16.09" height="3.59"/><rect class="cls-4" x="59.56" y="31.2" width="16.09" height="3.59"/><rect class="cls-4" x="59.56" y="37.61" width="16.09" height="3.59"/><rect class="cls-4" x="59.56" y="44.02" width="16.09" height="3.59"/><path class="cls-3" d="M261.31,114.17a10.85,10.85,0,0,1,0-21.69h2.28v21.69Z"/><path class="cls-3" d="M229.1,90.83a10.84,10.84,0,0,1,0-21.68h2.27V90.83Z"/><path class="cls-3" d="M196.88,67.49a10.84,10.84,0,0,1,0-21.68h2.28V67.49Z"/><circle class="cls-5" cx="263.59" cy="103.32" r="10.84"/><circle class="cls-5" cx="231.37" cy="79.99" r="10.84"/><circle class="cls-5" cx="199.16" cy="56.65" r="10.84"/><circle class="cls-7" cx="160.72" cy="34.6" r="2.07"/><circle class="cls-7" cx="154" cy="34.6" r="2.07"/><circle class="cls-7" cx="147.27" cy="34.6" r="2.07"/><circle class="cls-7" cx="140.55" cy="34.6" r="2.07"/><circle class="cls-5" cx="116.98" cy="66.1" r="19.3"/><path class="cls-3" d="M117,46.8V85.4a19.3,19.3,0,0,0,0-38.6Z"/><path class="cls-4" d="M130.63,52.45A19.25,19.25,0,0,0,117,46.8V66.1Z"/><rect class="cls-3" x="150.85" y="43.01" width="11.95" height="3.79" rx="1.89"/><circle class="cls-4" cx="105.24" cy="122.46" r="1.81"/><path class="cls-5" d="M223.69,54.91l-1.09,2.26a.62.62,0,0,0,.83.82l2.25-1.08a.64.64,0,0,1,.54,0L228.48,58a.61.61,0,0,0,.82-.82l-1.08-2.26a.57.57,0,0,1,0-.54l1.08-2.25a.62.62,0,0,0-.82-.83l-2.26,1.09a.64.64,0,0,1-.54,0l-2.25-1.09a.62.62,0,0,0-.83.83l1.09,2.25A.64.64,0,0,1,223.69,54.91Z"/><rect class="cls-3" x="33" y="72.75" width="1.71" height="2.56" rx="0.85"/><rect class="cls-3" x="33" y="79.58" width="1.71" height="2.56" rx="0.85"/><rect class="cls-3" x="36.42" y="76.16" width="1.71" height="2.56" rx="0.85" transform="translate(114.71 40.17) rotate(90)"/><rect class="cls-3" x="29.59" y="76.16" width="1.71" height="2.56" rx="0.85" transform="translate(107.89 47) rotate(90)"/><rect class="cls-4" x="287.17" y="116.5" width="1.71" height="2.56" rx="0.85"/><rect class="cls-4" x="287.17" y="123.32" width="1.71" height="2.56" rx="0.85"/><rect class="cls-4" x="290.59" y="119.91" width="1.71" height="2.56" rx="0.85" transform="translate(412.63 -170.25) rotate(90)"/><rect class="cls-4" x="283.76" y="119.91" width="1.71" height="2.56" rx="0.85" transform="translate(405.8 -163.42) rotate(90)"/><polygon class="cls-8" points="98.25 1.13 92.85 9.82 103.66 9.82 98.25 1.13"/><path class="cls-7" d="M162.8,85.4h-22V84.29a10,10,0,0,1,2.93-7.08l1-1a3.11,3.11,0,0,1,4.41,0h0a3.1,3.1,0,0,0,4.46-.07l3.29-3.48a3.45,3.45,0,0,1,6,2.37Z"/><path class="cls-9" d="M70.65,150V86.32a4.18,4.18,0,0,0-4.18-4.18H59.56"/><path class="cls-10" d="M199.16,45.81V56.65H210A10.84,10.84,0,0,0,199.16,45.81Z"/><path class="cls-10" d="M188.32,56.65h10.84V67.49A10.84,10.84,0,0,1,188.32,56.65Z"/><circle class="cls-5" cx="199.16" cy="56.65" r="8.34"/><rect class="cls-3" x="196.94" y="50.79" width="4.2" height="11.71" rx="2.1"/><path class="cls-10" d="M231.37,69.15V80h10.84A10.84,10.84,0,0,0,231.37,69.15Z"/><path class="cls-10" d="M220.53,80h10.84V90.83A10.84,10.84,0,0,1,220.53,80Z"/><circle class="cls-5" cx="231.37" cy="79.99" r="8.34"/><rect class="cls-3" x="229.16" y="74.13" width="4.2" height="11.71" rx="2.1"/><path class="cls-10" d="M263.59,92.48v10.84h10.84A10.85,10.85,0,0,0,263.59,92.48Z"/><path class="cls-10" d="M252.75,103.32h10.84v10.85A10.84,10.84,0,0,1,252.75,103.32Z"/><circle class="cls-5" cx="263.59" cy="103.32" r="8.34"/><rect class="cls-3" x="261.37" y="97.47" width="4.2" height="11.71" rx="2.1"/></svg>