<svg width="166" height="144" fill="none" xmlns="http://www.w3.org/2000/svg">
  <path fill-rule="evenodd" clip-rule="evenodd" d="M37.166 97.663c-11.31-19.59-10.505-43.974 1.559-64.254C50.774 13.157 75.375-4.65 99.283 4.976c3.534 1.422 6.837 3.38 9.573 5.937 4.337 4.056 7.082 9.431 9.817 14.67 4.78 9.157 10.133 18.608 18.345 25.229 7.693 6.202 18.161 8.095 24.324 16.294 8.494 11.301 1.792 25.203-7.204 34.846-12.247 13.127-27.935 26.734-45.608 25.886-7.867-.378-19.981 0-30.423-.378-17.911-.647-32.292-14.817-40.94-29.797z" fill="#4F5D7F"/>
  <path fill-rule="evenodd" clip-rule="evenodd" d="M133.923 35.88C121.854 27 115.63 5.7 133.477 1.455a18.302 18.302 0 0 1 5.163-.487c9.907.51 17.914 7.904 19.901 16.947 1.324 6.02.261 14.977-5.314 18.984-6.445 4.631-13.541 3.223-19.304-1.017z" fill="#4F5D7F"/>
  <path fill-rule="evenodd" clip-rule="evenodd" d="M56.87 110.011l-13.665 3.258a2.16 2.16 0 0 1-2.598-1.622l-1.737-7.432a2.184 2.184 0 0 1 1.606-2.625l13.665-3.257a2.16 2.16 0 0 1 2.598 1.623l1.737 7.431a2.182 2.182 0 0 1-1.606 2.624z" fill="#FF5C5C"/>
  <path fill-rule="evenodd" clip-rule="evenodd" d="M130.427 64.723a43.836 43.836 0 0 0-3.543-4.033L55.385 77.734c-4.413 13.389-2.33 28.685 6.907 40.649.466.603.945 1.19 1.436 1.762.01.015.015.029.027.045 1.382 1.824 1.8 3.646 1.528 5.917-.09.748-.573 1.324-.284 2.134.386 1.081 1.047 1.177 2.04 1.449 1.721.47 53.883.127 55.879.084 2.095-.044 4.465.171 6.263-1.123.411-.296.591-.976.137-1.35-2.069-1.713-2.088-3.66-1.256-5.599 1.151-2.688 3.934-5.358 5.15-7.364a44.015 44.015 0 0 0 5.863-16.28c1.757-11.772-1.399-23.946-8.648-33.335z" fill="#000"/>
  <path fill-rule="evenodd" clip-rule="evenodd" d="M67.088 123.86c.01.089.025.177.032.266-.018-.225-.027-.29-.032-.266z" fill="#4F5D7F"/>
  <path fill-rule="evenodd" clip-rule="evenodd" d="M106.589 84.71l-53.97 12.865-7.13-30.509 53.97-12.865 7.13 30.509z" fill="#000"/>
  <path fill-rule="evenodd" clip-rule="evenodd" d="M56.71 72.109c2.142 2.638 5.097 1.74 7.964.863 3.052-.933 6.17-2.356 5.964-6.094-.103-1.884-.896-3.7-1.865-5.361L53.697 65.11c.525 2.48 1.418 5.036 3.012 6.999z" fill="#202225"/>
  <path fill-rule="evenodd" clip-rule="evenodd" d="M77.019 109.691l-25.227 6.014c-3.483.83-6.973-1.349-7.795-4.867l-2.977-12.74 33.27-.085 2.729 11.678z" fill="#B7C2CE"/>
  <path fill-rule="evenodd" clip-rule="evenodd" d="M113.622 113.913c-12.227 9.629-29.867 7.424-39.4-4.925-9.534-12.349-7.351-30.166 4.875-39.795 12.227-9.63 29.867-7.425 39.401 4.925 9.534 12.348 7.351 30.165-4.876 39.795z" fill="#7687B2"/>
  <path fill-rule="evenodd" clip-rule="evenodd" d="M135.968 112.47c-6.437 1.534-25.933-12.087-37.137-21.348C96.47 80.8 91.836 54.837 96.32 47.501c.644-1.055 1.264-1.307 1.673-1.404.237-.057.504-.077.792-.062 13.441.743 25.284 6.903 33.346 17.346 10.15 13.147 12.071 31.09 5.137 47.998-.252.615-.628.931-1.299 1.091z" fill="#FF7F14"/>
  <path fill-rule="evenodd" clip-rule="evenodd" d="M132.131 63.38c-6.555-8.487-15.607-14.146-25.986-16.365.447 5.008-1.687 10.086-5.628 13.444-1.879 1.6-3.934 2.486-5.926 2.63.596 10.046 2.824 21.848 4.24 28.034 11.203 9.261 30.7 22.882 37.137 21.347.67-.16 1.047-.476 1.299-1.091 6.934-16.907 5.014-34.851-5.136-47.998z" fill="#C16F40" fill-opacity=".3"/>
  <path d="M74.567 46.273l16.344-3.896a3.224 3.224 0 0 1 3.39 1.297l17.647 25.224" stroke="#E4E9F7" stroke-width="5" stroke-linecap="round" stroke-linejoin="round"/>
  <path fill-rule="evenodd" clip-rule="evenodd" d="M96.895 92.34s15.17-46.428 21.14-43.403c5.972 3.025 11.386 7.387 15.799 13.103 11.44 14.818 12.095 33.92 5.428 50.174-4.727 11.528-42.367-19.875-42.367-19.875z" fill="#FF903E"/>
  <path fill-rule="evenodd" clip-rule="evenodd" d="M120.888 56.544c-1.244 4.652 2.403 1.963 4.217 2.013 3.128.085 2.903 3.518 3.983 5.555 1.62 3.057 3.667.998 6.189 2.176.785.366 1.518.81 2.227 1.287a46.582 46.582 0 0 0-13.721-15.163c-1.243 1.165-2.505 2.67-2.895 4.132zM133.563 101.425c-1.653.25-3.821-.104-5.082-1.293-4.183-3.944 1.245-10.732-4.606-14.564-4.779-3.13-11.332-.166-16.179-4.115-2.53-2.06-3.54-5.067-3.952-8.205-3.853 9.922-6.849 19.091-6.849 19.091s37.64 31.403 42.368 19.875a57.292 57.292 0 0 0 3.691-13.492c-3.314-2.238-5.901 2.175-9.391 2.703z" fill="#D17E47" fill-opacity=".6"/>
  <path fill-rule="evenodd" clip-rule="evenodd" d="M135.061 88.22c-.052.017-.099.043-.149.06-.005.002-.008.007-.013.008l-.005.005c-.006.007-.011.013-.02.027l-.017.028c.035.457-.186.896-.665 1.01a.864.864 0 0 1-.36.004.545.545 0 0 0-.016.035c.073.517-.246.874-.627 1.018-.478 1.044-.652 2.22.742 2.473 1.532.277 2.873-1.005 3.147-2.446.291-1.521-.4-2.722-2.017-2.221z" fill="#D17E47" fill-opacity=".6"/>
  <path fill-rule="evenodd" clip-rule="evenodd" d="M141.355 105.75c-1.221.846-3.021 1.398-5.665 1.067-10.737-1.341-30.856-17.086-36.468-21.627-2.902 3.762-4.655 6.694-4.43 7.653l.168.712.559.466c1.04.868 25.631 21.283 37.923 22.819 5.183.647 7.122-2.098 7.817-3.792 2.002-4.883 1.268-8.11.096-7.298z" fill="#DAE2ED"/>
  <path fill-rule="evenodd" clip-rule="evenodd" d="M53.373 84.8l-9.186 2.19-5.954-25.478c-.411-1.76.668-3.522 2.41-3.938l2.879-.686c1.741-.415 3.486.675 3.897 2.433l5.955 25.48z" fill="#000"/>
  <path fill-rule="evenodd" clip-rule="evenodd" d="M67.36 104.165l-17.263-5.114 2.893-9.963 17.263 5.114-2.894 9.963z" fill="#D0D9EA"/>
  <path fill-rule="evenodd" clip-rule="evenodd" d="M51.985 102.517L8.768 93.469a2.544 2.544 0 0 1-1.854-1.547c-.686-1.738-1.421-5.279.24-11.002 1.662-5.722 4.175-8.302 5.681-9.39a2.52 2.52 0 0 1 2.388-.29l41.21 15.962a2.601 2.601 0 0 1 1.545 3.153l-3.006 10.351a2.566 2.566 0 0 1-2.987 1.811z" fill="#EBEFF7"/>
  <path fill-rule="evenodd" clip-rule="evenodd" d="M19.898 80.496c2.86 2.264 4.414 3.02 7.557.249.967-.854 1.779-1.408 3.154-1.402.783.003 5.095.945 6.944.546l-22.33-8.65a2.515 2.515 0 0 0-2.387.292c-1.507 1.087-4.02 3.666-5.682 9.39-.015.051-.026.1-.041.152 3.402-3.437 8.002-4.362 12.785-.577zM30.665 84.689c.178-.634-.075-1.438-.599-1.842-.683-.526-1.314.051-1.74.645-.344.702-.434 1.936.355 2.363.723.39 1.788-.465 1.984-1.166z" fill="#B7C2CE" fill-opacity=".6"/>
  <path fill-rule="evenodd" clip-rule="evenodd" d="M83.898 111.769l-19.728-5.844a1.3 1.3 0 0 1-.872-1.611l3.617-12.453c.2-.688.914-1.082 1.594-.88l19.73 5.844-4.34 14.944z" fill="#DAE2ED"/>
  <path fill-rule="evenodd" clip-rule="evenodd" d="M110.966 110.473c-10.345 8.147-25.272 6.282-33.34-4.167-8.066-10.45-6.219-25.525 4.127-33.673 10.346-8.148 25.272-6.282 33.339 4.167s6.22 25.525-4.126 33.673z" fill="#EBEFF7"/>
  <path fill-rule="evenodd" clip-rule="evenodd" d="M108.643 107.463c-8.7 6.852-21.252 5.283-28.036-3.504-6.784-8.787-5.23-21.465 3.47-28.316 8.7-6.851 21.251-5.283 28.035 3.504 6.784 8.787 5.231 21.464-3.469 28.316z" fill="#DAE2ED"/>
  <path fill-rule="evenodd" clip-rule="evenodd" d="M102.039 77.93l8.656 9.284c.529.567.718 1.377.496 2.123l-3.632 12.214a2.168 2.168 0 0 1-1.572 1.495l-12.29 2.929c-.75.18-1.538-.06-2.068-.627l-8.656-9.284a2.199 2.199 0 0 1-.495-2.123l3.632-12.214a2.17 2.17 0 0 1 1.573-1.495l12.288-2.929c.751-.179 1.54.06 2.068.627z" fill="#C5CEDD"/>
  <path fill-rule="evenodd" clip-rule="evenodd" d="M100.616 97.066a6.876 6.876 0 0 1-9.716-1.214c-2.35-3.045-1.813-7.438 1.203-9.814a6.877 6.877 0 0 1 9.716 1.215c2.351 3.045 1.813 7.439-1.203 9.813z" fill="#EBEFF7"/>
  <path fill-rule="evenodd" clip-rule="evenodd" d="M146.522 131.544h-8.474a1.703 1.703 0 0 1-1.695-1.712c0-.946.758-1.712 1.695-1.712h8.474c.937 0 1.695.766 1.695 1.712s-.758 1.712-1.695 1.712z" fill="#C5CEDD"/>
  <path fill-rule="evenodd" clip-rule="evenodd" d="M148.196 133.683h-3.39a.852.852 0 0 1-.848-.856v-5.991c0-.473.38-.856.848-.856h3.39c.467 0 .847.383.847.856v5.991c0 .473-.38.856-.847.856z" fill="#DAE2ED"/>
  <path fill-rule="evenodd" clip-rule="evenodd" d="M154.715 134.561v-6.847c0-.946.758-1.712 1.694-1.712.937 0 1.695.766 1.695 1.712v6.847c0 .946-.758 1.712-1.695 1.712a1.702 1.702 0 0 1-1.694-1.712z" fill="#C5CEDD"/>
  <mask id="a" maskUnits="userSpaceOnUse" x="152" y="133" width="9" height="5">
    <path fill-rule="evenodd" clip-rule="evenodd" d="M160.223 137.107v-3.423h-7.627v3.423h7.627z" fill="#fff"/>
  </mask>
  <g mask="url(#a)">
    <path fill-rule="evenodd" clip-rule="evenodd" d="M152.596 136.251v-1.711c0-.473.38-.856.847-.856h5.933c.467 0 .847.383.847.856v1.711c0 .473-.38.856-.847.856h-5.933a.852.852 0 0 1-.847-.856z" fill="#DAE2ED"/>
  </g>
  <path fill-rule="evenodd" clip-rule="evenodd" d="M56.371 67.704c-.995-.057-1.837.635-2.824.57-.545-.036-.542.821 0 .856 1 .065 1.843-.626 2.825-.57.544.03.543-.826 0-.856zM57.97 69.694l-.186.007a.424.424 0 0 0-.187.05c-.34.087-.64.254-.996.363-.62.19-1.283.17-1.924.157-.546-.01-.546.846 0 .856.56.011 1.12.013 1.677-.082.543-.094 1.078-.474 1.616-.495.543-.02.547-.876 0-.856zM68.535 71.823l-1.412-1.426c-.386-.39-.986.215-.6.605l1.413 1.427c.387.39.986-.215.6-.606zM70.948 69.145c-.18.039-.521-.326-.654-.43-.248-.191-.504-.365-.815-.426-.533-.104-.761.721-.226.826.732.143 1.079 1.038 1.92.855.534-.114.308-.94-.225-.825z" fill="#4F545C"/>
  <path fill-rule="evenodd" clip-rule="evenodd" d="M63.922 139.392l-17.963-.977.552-10.367 17.964.976-.553 10.368z" fill="#D0D9EA"/>
  <mask id="b" maskUnits="userSpaceOnUse" x="0" y="119" width="52" height="24">
    <path fill-rule="evenodd" clip-rule="evenodd" d="M0 119.404v23.158h51.658v-23.158H0z" fill="#fff"/>
  </mask>
  <g mask="url(#b)">
    <path fill-rule="evenodd" clip-rule="evenodd" d="M48.584 141.351l-44.12 1.21a2.53 2.53 0 0 1-2.156-1.076c-1.062-1.533-2.583-4.809-2.266-10.764.318-5.955 2.178-9.047 3.397-10.456a2.525 2.525 0 0 1 2.258-.837l43.736 5.986a2.588 2.588 0 0 1 2.221 2.712l-.574 10.771a2.582 2.582 0 0 1-2.496 2.454z" fill="#EBEFF7"/>
  </g>
  <path fill-rule="evenodd" clip-rule="evenodd" d="M37.223 140.899c-2.654.081-4.209.498-6.575-1.11-3.372-2.29-5.775-4.935-10.177-4.923-5.573.015-10.477 3.515-16.017.993-1.918-.873-3.368-2.221-4.45-3.848-.05 5.142 1.321 8.056 2.304 9.474a2.527 2.527 0 0 0 2.156 1.076l37.172-1.019c-1.413-.384-2.872-.69-4.413-.643zM80.055 142.869l-18.837-1.024a1.294 1.294 0 0 1-1.214-1.366l.69-12.96a1.291 1.291 0 0 1 1.353-1.226l18.837 1.024a1.706 1.706 0 0 1 1.6 1.802l-.645 12.132a1.703 1.703 0 0 1-1.784 1.618z" fill="#DAE2ED"/>
  <path fill-rule="evenodd" clip-rule="evenodd" d="M43.516 129.604a1.626 1.626 0 0 1-1.704 1.546 1.63 1.63 0 0 1-1.53-1.721 1.625 1.625 0 0 1 1.704-1.546 1.63 1.63 0 0 1 1.53 1.721zM34.323 128.337a1.625 1.625 0 0 1-1.704 1.546 1.63 1.63 0 0 1-1.53-1.721 1.626 1.626 0 0 1 1.703-1.546 1.63 1.63 0 0 1 1.531 1.721z" fill="#B7C2CE"/>
</svg>
