<svg xmlns="http://www.w3.org/2000/svg" width="190" height="225" xmlns:xlink="http://www.w3.org/1999/xlink">
  <defs>
    <path id="a" d="M9.063 4.2662v-4H.0632v4H9.063z"/>
    <path id="c" d="M0 .58351986V27.6388253h60.9563574V.58351986H0z"/>
  </defs>
  <g fill="none" fill-rule="evenodd">
    <path fill="#FF7B78" d="M67.1062 186.4584l-16.124 3.806c-1.37.323-2.743-.525-3.066-1.895l-2.05-8.683c-.323-1.37.526-2.743 1.896-3.066l16.124-3.806c1.37-.323 2.743.526 3.066 1.896l2.049 8.682c.324 1.37-.525 2.743-1.895 3.066"/>
    <path fill="#4F5D7F" d="M153.9038 133.5471c-1.31-1.68-2.713-3.242-4.181-4.712l-84.368 19.913c-5.208 15.643-2.749 33.514 8.15 47.491.55.705 1.115 1.391 1.694 2.059.011.017.018.034.032.052 1.631 2.131 2.125 4.26 1.803 6.914-.106.873-.676 1.546-.335 2.493.455 1.262 1.236 1.375 2.407 1.692 2.031.55 63.582.149 65.937.099 2.473-.052 5.269.2 7.391-1.312.485-.346.697-1.141.162-1.578-2.442-2.001-2.464-4.276-1.483-6.541 1.359-3.14 4.643-6.26 6.077-8.603 3.548-5.796 5.907-12.3 6.919-19.02 2.073-13.754-1.651-27.977-10.205-38.947"/>
    <path fill="#4F5D7F" d="M79.1637 202.639c.012.104.03.206.038.31-.021-.262-.032-.339-.038-.31"/>
    <path fill="#2F3849" d="M125.775 156.8982l-63.684 15.031-8.413-35.644 63.684-15.031"/>
    <path fill="#494E63" d="M66.9169 142.1764c2.529 3.082 6.016 2.034 9.399 1.009 3.601-1.091 7.279-2.753 7.037-7.12-.122-2.201-1.057-4.322-2.201-6.264l-17.79 4.198c.62 2.898 1.674 5.884 3.555 8.177"/>
    <path fill="#B7C2CE" d="M90.8824 186.0843l-29.768 7.026c-4.11.97-8.228-1.576-9.198-5.686l-3.513-14.884 39.259-.1 3.22 13.644z"/>
    <path fill="#7687B2" d="M134.0742 191.0165c-14.428 11.25-35.243 8.674-46.493-5.753-11.25-14.428-8.674-35.244 5.753-46.494 14.428-11.25 35.243-8.674 46.493 5.754 11.25 14.427 8.675 35.243-5.753 46.493"/>
    <path fill="#D17E47" d="M160.4418 189.3315c-7.595 1.792-30.601-14.121-43.821-24.941-2.787-12.06-8.254-42.393-2.964-50.964.76-1.232 1.491-1.526 1.974-1.64.28-.066.594-.09.934-.072 15.861.868 29.836 8.065 39.349 20.265 11.977 15.36 14.243 36.324 6.061 56.077-.297.719-.741 1.088-1.533 1.275"/>
    <path fill="#C16F40" d="M155.9141 131.9794c-7.734-9.917-18.416-16.528-30.663-19.121.528 5.851-1.991 11.784-6.641 15.707-2.217 1.87-4.642 2.905-6.993 3.074.703 11.736 3.333 25.524 5.003 32.752 13.22 10.819 36.227 26.733 43.822 24.94.791-.187 1.236-.556 1.533-1.275 8.182-19.753 5.916-40.717-6.061-56.077"/>
    <path stroke="#E4E9F8" stroke-width="4" d="M87.9888 111.9925l19.286-4.552c1.518-.358 3.101.241 4.001 1.515l20.823 29.47" stroke-linecap="round" stroke-linejoin="round"/>
    <path fill="#DE8C4F" d="M114.3357 165.8117s17.901-54.242 24.946-50.708c7.046 3.535 13.435 8.631 18.642 15.309 13.5 17.312 14.272 39.629 6.406 58.619-5.578 13.469-49.994-23.22-49.994-23.22"/>
    <path fill="#D17E47" d="M142.6474 123.9915c-1.468 5.435 2.836 2.294 4.976 2.352 3.692.099 3.426 4.11 4.7 6.49 1.912 3.572 4.327 1.166 7.304 2.542.926.428 1.791.946 2.627 1.504-1.265-2.218-2.703-4.38-4.331-6.467-3.475-4.458-7.487-8.194-11.859-11.248-1.467 1.361-2.956 3.12-3.417 4.827m14.9567 52.4355c-1.95.292-4.509-.121-5.996-1.51-4.937-4.608 1.469-12.539-5.436-17.016-5.639-3.657-13.371-.194-19.091-4.807-2.985-2.407-4.177-5.92-4.663-9.587-4.547 11.593-8.082 22.305-8.082 22.305s44.415 36.689 49.994 23.22c2.1-5.07 3.567-10.378 4.356-15.763-3.911-2.615-6.964 2.541-11.082 3.158"/>
    <path fill="#D17E47" d="M159.3715 161.0006c-.061.019-.116.049-.175.07-.006.002-.01.007-.016.009-.002.002-.002.003-.005.005-.008.009-.014.015-.024.032-.011.018-.014.022-.02.032.041.535-.22 1.047-.785 1.181-.136.032-.282.031-.425.004-.007.014-.013.027-.019.041.086.604-.29 1.021-.74 1.19-.563 1.219-.769 2.594.876 2.889 1.808.324 3.39-1.174 3.714-2.858.343-1.777-.472-3.18-2.381-2.595"/>
    <path fill="#DAE2ED" d="M166.7993 181.4797c-1.441.988-3.565 1.633-6.685 1.247-12.67-1.567-36.41-19.962-43.032-25.267-3.425 4.395-5.493 7.82-5.227 8.941l.198.831.659.545c1.228 1.014 30.245 24.865 44.749 26.66 6.116.756 8.404-2.451 9.224-4.43 2.363-5.705 1.497-9.475.114-8.527"/>
    <path fill="#2F3849" d="M62.9807 157.0045l-10.84 2.558-7.026-29.767c-.485-2.055.788-4.115 2.843-4.6l3.398-.802c2.055-.485 4.114.788 4.599 2.843l7.026 29.768z"/>
    <path fill="#C5CEDD" d="M79.4841 179.6282l-20.37-5.974 3.414-11.64 20.37 5.974"/>
    <path fill="#DAE2ED" d="M61.3424 177.7031l-50.996-10.571c-.985-.204-1.816-.873-2.188-1.807-.809-2.031-1.677-6.168.284-12.854 1.961-6.686 4.926-9.699 6.703-10.971.819-.585 1.879-.699 2.818-.339l48.627 18.649c1.475.565 2.269 2.169 1.824 3.684l-3.547 12.093c-.444 1.516-1.978 2.437-3.525 2.116"/>
    <path fill="#B7C2CE" d="M23.4791 151.975c3.376 2.645 5.209 3.528 8.918.291 1.141-.997 2.099-1.645 3.722-1.638.924.004 6.012 1.104 8.193.638l-26.349-10.105c-.939-.36-1.999-.246-2.817.34-1.778 1.271-4.743 4.284-6.704 10.97-.018.061-.031.118-.049.179 4.015-4.016 9.443-5.097 15.086-.675m12.7061 4.8993c.21-.741-.089-1.68-.707-2.152-.806-.615-1.551.06-2.053.754-.406.82-.513 2.261.418 2.76.853.457 2.11-.543 2.342-1.362"/>
    <path fill="#D0D9EB" d="M99.0002 188.5125l-23.28-6.828c-.803-.236-1.264-1.078-1.028-1.882l4.268-14.549c.235-.804 1.078-1.264 1.881-1.029l23.28 6.828-5.121 17.46z"/>
    <path fill="#ECEFF8" d="M130.9404 186.9975c-12.208 9.519-29.821 7.34-39.341-4.868-9.519-12.208-7.339-29.821 4.869-39.341 12.208-9.519 29.821-7.339 39.34 4.869 9.519 12.207 7.34 29.821-4.868 39.34"/>
    <path fill="#DAE2ED" d="M128.1982 183.4809c-10.266 8.005-25.077 6.172-33.082-4.094-8.005-10.265-6.172-25.077 4.094-33.082 10.266-8.004 25.077-6.172 33.082 4.094 8.005 10.266 6.172 25.077-4.094 33.082"/>
    <path fill="#C5CEDD" d="M120.4065 148.9782l10.214 10.846c.624.663.847 1.609.585 2.481l-4.286 14.269c-.262.872-.969 1.538-1.855 1.747l-14.501 3.422c-.886.21-1.816-.07-2.441-.733l-10.214-10.846c-.624-.663-.847-1.609-.585-2.481l4.286-14.269c.262-.872.97-1.538 1.856-1.747l14.5-3.422c.886-.209 1.817.07 2.441.733"/>
    <path fill="#ECEFF8" d="M118.7273 171.3349c-3.558 2.774-8.691 2.139-11.465-1.419-2.774-3.557-2.139-8.69 1.419-11.465 3.558-2.774 8.691-2.139 11.465 1.419 2.774 3.558 2.139 8.691-1.419 11.465M142.538 51.5627c0 9.279-7.522 16.802-16.802 16.802-9.279 0-16.802-7.523-16.802-16.802s7.523-16.802 16.802-16.802c9.28 0 16.802 7.523 16.802 16.802"/>
    <path fill="#ECEFF8" d="M154.985 42.7502c0 6.874-5.573 12.447-12.447 12.447-6.874 0-12.447-5.573-12.447-12.447 0-6.874 5.573-12.447 12.447-12.447 6.874 0 12.447 5.573 12.447 12.447M144.9136 7.6377c0 4.218-3.419 7.637-7.637 7.637-4.219 0-7.638-3.419-7.638-7.637s3.419-7.637 7.638-7.637c4.218 0 7.637 3.419 7.637 7.637m2.1031 68.0738c0 3.877-3.143 7.02-7.02 7.02s-7.02-3.143-7.02-7.02 3.143-7.02 7.02-7.02 7.02 3.143 7.02 7.02"/>
    <path fill="#C5CEDD" d="M172.8965 211.6152h-10c-1.105 0-2-.895-2-2s.895-2 2-2h10c1.105 0 2 .895 2 2s-.895 2-2 2"/>
    <path fill="#DAE2ED" d="M174.8708 214.1152h-4c-.552 0-1-.448-1-1v-7c0-.552.448-1 1-1h4c.552 0 1 .448 1 1v7c0 .552-.448 1-1 1"/>
    <path fill="#C5CEDD" d="M182.5632 215.1409v-8c0-1.105.895-2 2-2s2 .895 2 2v8c0 1.105-.895 2-2 2s-2-.895-2-2"/>
    <g transform="translate(180 213.85)">
      <mask id="b" fill="#fff">
        <use xlink:href="#a"/>
      </mask>
      <path fill="#DAE2ED" d="M.0632 3.2662v-2c0-.552.448-1 1-1h7c.552 0 1 .448 1 1v2c0 .552-.448 1-1 1h-7c-.552 0-1-.448-1-1" mask="url(#b)"/>
    </g>
    <path fill="#8892A0" d="M66.5184 137.0298c-1.175-.066-2.168.742-3.333.667-.643-.042-.64.959 0 1 1.179.076 2.175-.732 3.333-.667.643.036.641-.964 0-1m1.8861 2.3256c-.073.003-.146.005-.219.008-.086.003-.158.025-.221.058-.402.102-.756.297-1.175.424-.733.222-1.514.199-2.271.184-.644-.012-.644.988 0 1 .662.013 1.323.015 1.979-.096.641-.109 1.272-.554 1.907-.578.641-.024.645-1.023 0-1m12.4674 2.4875l-1.667-1.667c-.455-.455-1.163.252-.707.707l1.667 1.667c.456.456 1.163-.251.707-.707m2.8469-3.1286c-.212.045-.615-.381-.772-.502-.292-.224-.595-.427-.962-.498-.629-.122-.898.842-.266.964.863.168 1.273 1.213 2.266 1 .629-.134.363-1.099-.266-.964"/>
    <path fill="#D0D9EB" d="M75.4282 220.7846l-21.197-1.141.652-12.112 21.197 1.14"/>
    <g transform="translate(0 196.85)">
      <mask id="d" fill="#fff">
        <use xlink:href="#c"/>
      </mask>
      <path fill="#ECEFF8" d="M57.3289 26.2247l-52.061 1.413c-1.006.027-1.968-.433-2.544-1.257-1.254-1.791-3.048-5.618-2.674-12.576.375-6.957 2.57-10.57 4.008-12.216.662-.758 1.667-1.112 2.665-.977l51.608 6.993c1.566.212 2.706 1.59 2.621 3.168l-.677 12.584c-.085 1.577-1.367 2.825-2.946 2.868" mask="url(#d)"/>
    </g>
    <path fill="#DAE2ED" d="M43.923 222.5453c-3.131.094-4.966.581-7.758-1.297-3.979-2.676-6.815-5.766-12.009-5.752-6.576.018-12.363 4.107-18.9 1.16-2.263-1.02-3.974-2.595-5.251-4.495-.059 6.007 1.559 9.412 2.718 11.068.577.825 1.539 1.285 2.545 1.258l43.863-1.191c-1.668-.449-3.39-.806-5.208-.751m50.5422 2.3008l-22.228-1.196c-.836-.045-1.478-.76-1.433-1.596l.815-15.141c.045-.836.76-1.477 1.596-1.432l22.228 1.196c1.103.059 1.949 1.002 1.889 2.105l-.762 14.174c-.06 1.103-1.002 1.949-2.105 1.89"/>
    <path fill="#B7C2CE" d="M51.349 209.3489c-.057 1.054-.957 1.863-2.011 1.806-1.054-.057-1.863-.957-1.806-2.011.057-1.054.957-1.863 2.011-1.806 1.054.057 1.863.957 1.806 2.011m-10.8478-1.4796c-.057 1.054-.957 1.863-2.011 1.806-1.054-.057-1.863-.957-1.806-2.011.057-1.054.957-1.863 2.011-1.806 1.054.057 1.863.957 1.806 2.011"/>
  </g>
</svg>