<?xml version="1.0" encoding="utf-8"?>
<!-- Generator: Adobe Illustrator 17.1.0, SVG Export Plug-In . SVG Version: 6.00 Build 0)  -->
<!DOCTYPE svg PUBLIC "-//W3C//DTD SVG 1.1//EN" "http://www.w3.org/Graphics/SVG/1.1/DTD/svg11.dtd">
<svg version="1.1" id="Layer_1" xmlns="http://www.w3.org/2000/svg" xmlns:xlink="http://www.w3.org/1999/xlink" x="0px" y="0px"
	 viewBox="0 3 16 10" enable-background="new 0 3 16 10" xml:space="preserve">
<path fill="#FFFFFF" d="M15.9,12.3l0.1,0.6c0,0-2.7,0.4-5.9-0.5C7.2,11.6,3.4,9.5,1,4.6c0-0.1,0-0.1,0-0.2c0,0,0.1-0.1,0.1-0.1
	l1.4,0.8L0.4,3.4C0.5,3.9,1,4.8,1.6,7L1.1,6.9C0.6,4.2,0,3.2,0,3.2C0,3.1,0,3.1,0,3c0.1,0,0.1,0,0.2,0l3.6,2.5
	c0.1,0,0.1,0.1,0.1,0.2c0,0.1-0.1,0.1-0.2,0.1L1.4,4.7c2.2,4.8,6,6.7,8.8,7.4C13.3,13,15.9,12.3,15.9,12.3z"/>
</svg>
