<svg xmlns="http://www.w3.org/2000/svg" width="660" height="97" viewBox="0 0 660 97" xmlns:xlink="http://www.w3.org/1999/xlink">
  <defs>
    <linearGradient id="b" x1="0%" y1="49.75%" y2="49.75%">
      <stop stop-color="#F39C12" stop-opacity=".9" offset="0%"/>
      <stop stop-color="#F39C12" stop-opacity=".7" offset="68.375%"/>
      <stop stop-color="#F39C12" stop-opacity=".6" offset="100%"/>
    </linearGradient>
    <rect id="a" width="660" height="97"/>
  </defs>
  <g fill="none" fill-rule="evenodd">
    <rect width="660" height="97" fill="#F39C12"/>
    <path fill="#F29C12" d="M373.141466,96.254 L383.392111,9.515 C386.788981,-19.23 411.168406,-40.888 440.129354,-40.888 C469.090301,-40.888 493.470226,-19.23 496.867097,9.515 L507.117741,96.254 L373.141466,96.254 L373.141466,96.254 Z"/>
    <path stroke="#F2F3F4" d="M499.270871,31.76535 L484.243095,18.46235 C476.489826,11.59885 464.479712,13.04285 458.576462,21.54835 L458.576462,21.54835 C449.647045,34.41385 430.612063,34.41385 421.682646,21.54835 L421.682646,21.54835 C415.779395,13.04285 403.769282,11.59885 396.016012,18.46235 L380.988237,31.76535" stroke-linecap="round" stroke-linejoin="round"/>
    <path stroke="#F2F3F4" d="M373.141466,96.254 L383.392111,9.515 C386.788981,-19.23 411.168406,-40.888 440.129354,-40.888 L440.129354,-40.888 C469.090301,-40.888 493.470226,-19.23 496.867097,9.515 L507.117741,96.254" stroke-linecap="round" stroke-linejoin="round"/>
    <path fill="#F29C12" d="M602.394006,96.254 L624.039926,34.958 C632.27296,11.6435 654.321601,-3.9475 679.059223,-3.9475 L679.062725,-3.9475 C703.800347,-3.9475 725.848988,11.6435 734.082022,34.958 L755.727941,96.254"/>
    <path stroke="#F2F3F4" d="M602.394006,96.254 L624.039926,34.958 C632.27296,11.6435 654.321601,-3.9475 679.059223,-3.9475 L679.062725,-3.9475 C703.800347,-3.9475 725.848988,11.6435 734.082022,34.958 L755.727941,96.254" stroke-linecap="round" stroke-linejoin="round"/>
    <path stroke="#F2F3F4" d="M738.843944,47.72575 L723.653079,34.11025 C715.815763,27.08625 703.675078,28.56425 697.708292,37.26925 L697.708292,37.26925 C688.681822,50.43675 669.440226,50.43675 660.413756,37.26925 L660.413756,37.26925 C654.44697,28.56425 642.306285,27.08625 634.468969,34.11025 L619.278104,47.72575" stroke-linecap="round" stroke-linejoin="round"/>
    <path fill="#F29C12" d="M-1.89695295,96.254 L6.16448617,28.0375 C8.83595725,5.431 28.0095154,-11.602 50.7860575,-11.602 L50.7860575,-11.602 C73.5625997,-11.602 92.7361578,5.431 95.4081291,28.0375 L103.469568,96.254"/>
    <path stroke="#F2F3F4" d="M97.29827,45.5365 L85.479762,35.074 C79.3819041,29.6765 69.936703,30.812 65.2941466,37.5015 L65.2941466,37.5015 C58.2712793,47.6195 43.3010358,47.6195 36.2786689,37.5015 L36.2786689,37.5015 C31.6361124,30.812 22.190411,29.6765 16.0930534,35.074 L4.27404518,45.5365" stroke-linecap="round" stroke-linejoin="round"/>
    <path stroke="#F2F3F4" d="M-1.89695295,96.254 L6.16448617,28.0375 C8.83595725,5.431 28.0095154,-11.602 50.7860575,-11.602 L50.7860575,-11.602 C73.5625997,-11.602 92.7361578,5.431 95.4081291,28.0375 L103.469568,96.254" stroke-linecap="round" stroke-linejoin="round"/>
    <path fill="#F29C12" d="M72.3613882,96.254 L79.4708031,-8.199 C80.5814147,-24.5125 94.1453838,-37.178 110.504892,-37.178 L110.506393,-37.178 C126.866402,-37.178 140.430371,-24.5125 141.540482,-8.199 L148.650398,96.254"/>
    <path stroke="#F2F3F4" d="M142.525875,2.53165 L130.471237,-6.52535 C128.338062,-8.12785 125.288883,-7.55535 123.883109,-5.28835 L118.997419,2.59065 C115.090768,8.89065 105.920718,8.89065 102.014067,2.59065 L97.1283764,-5.28835 C95.7226023,-7.55535 92.6734233,-8.12785 90.5402486,-6.52535 L78.4856106,2.53165" stroke-linecap="round" stroke-linejoin="round"/>
    <path stroke="#F2F3F4" d="M72.3613882,96.254 L79.4708031,-8.199 C80.5814147,-24.5125 94.1453838,-37.178 110.504892,-37.178 L110.506393,-37.178 C126.866402,-37.178 140.430371,-24.5125 141.540482,-8.199 L148.650398,96.254" stroke-linecap="round" stroke-linejoin="round"/>
    <path fill="#FFFFFF" d="M213.590858,96.254 L218.840749,-7.1155 C220.189491,-33.665 242.120568,-54.5 268.719215,-54.5 L268.719215,-54.5 C295.317361,-54.5 317.248938,-33.665 318.597181,-7.1155 L323.847572,96.254"/>
    <path stroke="#F2F3F4" d="M213.590858,96.254 L218.840749,-7.1155 C220.189491,-33.665 242.120568,-54.5 268.719215,-54.5 L268.719215,-54.5 C295.317361,-54.5 317.248938,-33.665 318.597181,-7.1155 L323.847572,96.254" stroke-linecap="round" stroke-linejoin="round"/>
    <path stroke="#F2F3F4" d="M319.520539,13.1754 L302.757308,0.9329 C297.880623,-2.6286 291.077377,-1.8066 287.190736,2.8139 L277.509905,14.3209 C272.920378,19.7764 264.517751,19.7764 259.928724,14.3209 L250.247893,2.8139 C246.360753,-1.8066 239.557507,-2.6286 234.680821,0.9329 L217.91759,13.1754" stroke-linecap="round" stroke-linejoin="round"/>
    <path fill="#F29C12" d="M213.590858,96.254 L218.840749,-7.1155 C220.189491,-33.665 242.120568,-54.5 268.719215,-54.5 L268.719215,-54.5 C295.317361,-54.5 317.248938,-33.665 318.597181,-7.1155 L323.847572,96.254"/>
    <path stroke="#F2F3F4" d="M213.590858,96.254 L218.840749,-7.1155 C220.189491,-33.665 242.120568,-54.5 268.719215,-54.5 L268.719215,-54.5 C295.317361,-54.5 317.248938,-33.665 318.597181,-7.1155 L323.847572,96.254" stroke-linecap="round" stroke-linejoin="round"/>
    <path stroke="#F2F3F4" d="M319.520539,13.1754 L302.757308,0.9329 C297.880623,-2.6286 291.077377,-1.8066 287.190736,2.8139 L277.509905,14.3209 C272.920378,19.7764 264.517751,19.7764 259.928724,14.3209 L250.247893,2.8139 C246.360753,-1.8066 239.557507,-2.6286 234.680821,0.9329 L217.91759,13.1754" stroke-linecap="round" stroke-linejoin="round"/>
    <path fill="#F29C12" d="M161.266995,96.254 L168.68508,33.4805 C171.143934,12.6775 188.78765,-2.9965 209.746691,-2.9965 L209.746691,-2.9965 C230.705732,-2.9965 248.349448,12.6775 250.808302,33.4805 L258.226387,96.254"/>
    <path stroke="#F2F3F4" d="M252.54766,49.58315 L241.671671,39.95565 C236.061081,34.98865 227.368795,36.03365 223.096942,42.18915 L223.096942,42.18915 C216.634384,51.50015 202.858798,51.50015 196.39674,42.18915 L196.396239,42.18915 C192.124387,36.03365 183.432601,34.98865 177.821511,39.95565 L166.945522,49.58315" stroke-linecap="round" stroke-linejoin="round"/>
    <path stroke="#F2F3F4" d="M161.266995,96.254 L168.68508,33.4805 C171.143934,12.6775 188.78765,-2.9965 209.746691,-2.9965 L209.746691,-2.9965 C230.705732,-2.9965 248.349448,12.6775 250.808302,33.4805 L258.226387,96.254" stroke-linecap="round" stroke-linejoin="round"/>
    <path fill="#F29C12" d="M267.741276,96.16975 L271.422804,77.36975 C278.593752,40.74625 310.706435,14.32375 348.045497,14.32375 L348.046997,14.32375 C385.392062,14.32375 417.507747,40.75425 424.673193,77.38475 L428.364225,96.25425"/>
    <path stroke="#F2F3F4" d="M267.741276,96.16975 L271.422804,77.36975 C278.593752,40.74625 310.706435,14.32375 348.045497,14.32375 L348.046997,14.32375 C385.392062,14.32375 417.507747,40.75425 424.673193,77.38475 L428.364225,96.25425" stroke-linecap="round" stroke-linejoin="round"/>
    <path stroke="#F2F3F4" d="M415.631964,52.7267 L392.576768,43.0062 C385.867574,40.1772 378.17834,40.9577 372.175034,45.0772 L372.174534,45.0777 C357.641531,55.0512 338.46397,55.0512 323.930968,45.0777 L323.930467,45.0772 C317.927162,40.9577 310.237927,40.1772 303.528733,43.0062 L280.473537,52.7267" stroke-linecap="round" stroke-linejoin="round"/>
    <path fill="#F29C11" d="M551.129177,-21.4405 L552.211773,-21.4405 L551.129177,-21.4405 Z M552.211773,-18.5565 L551.129177,-18.5565 L552.211773,-18.5565 Z M644.183418,24.5445 C639.402285,4.5605 625.684732,-5.5275 623.752167,-6.864 L623.752167,-9.575 L640.106673,-15.2135 C640.308284,-15.2825 640.443859,-15.4725 640.443859,-15.686 C640.443859,-15.8995 640.308284,-16.0895 640.106673,-16.1585 L623.414982,-21.913 C623.261898,-21.9665 623.093305,-21.9415 622.961232,-21.8475 C622.82966,-21.754 622.751617,-21.602 622.751617,-21.4405 L622.751617,-9.9315 L622.751617,-6.954 C621.552956,-6.1465 608.871974,2.7545 603.229366,20.774 C599.813986,9.5225 592.119248,3.684 590.702468,2.688 L590.702468,0.81 L601.076681,-2.7665 C601.278792,-2.836 601.413867,-3.026 601.413867,-3.239 C601.413867,-3.4525 601.278792,-3.6425 601.076681,-3.712 L590.365283,-7.404 C590.212198,-7.458 590.043606,-7.4325 589.911533,-7.339 C589.77996,-7.245 589.701917,-7.093 589.701917,-6.9315 L589.701917,0.4535 L589.701917,2.627 C589.07057,3.055 586.445124,4.9445 583.582548,8.4845 L565.726215,-2.9765 C565.645671,-3.028 565.551619,-3.0555 565.456066,-3.0555 L561.142191,-3.0555 L561.142191,-18.0565 C561.142191,-18.333 560.918067,-18.5565 560.641915,-18.5565 L557.445155,-18.5565 L557.445155,-21.4405 L558.746371,-21.4405 C559.022523,-21.4405 559.246647,-21.664 559.246647,-21.9405 C559.246647,-22.2165 559.022523,-22.4405 558.746371,-22.4405 L551.129177,-22.4405 L551.129177,-34.0565 C551.129177,-34.333 550.905554,-34.5565 550.628901,-34.5565 C550.352749,-34.5565 550.128626,-34.333 550.128626,-34.0565 L550.128626,-22.4405 L508.73133,-22.4405 L508.73133,-34.0565 C508.73133,-34.333 508.507207,-34.5565 508.231055,-34.5565 C507.954902,-34.5565 507.730779,-34.333 507.730779,-34.0565 L507.730779,-22.4405 L500.113585,-22.4405 C499.837433,-22.4405 499.613309,-22.2165 499.613309,-21.9405 C499.613309,-21.664 499.837433,-21.4405 500.113585,-21.4405 L501.414801,-21.4405 L501.414801,-18.5565 L498.218041,-18.5565 C497.941889,-18.5565 497.717765,-18.333 497.717765,-18.0565 L497.717765,-3.0555 L492.991163,-3.0555 C492.89511,-3.0555 492.801558,-3.028 492.720513,-2.9765 L474.84517,8.4965 C472.092655,5.0905 469.558259,3.21 468.799841,2.6855 L468.799841,0.81 L479.174054,-2.7665 C479.376165,-2.836 479.51124,-3.026 479.51124,-3.239 C479.51124,-3.4525 479.376165,-3.6425 479.174054,-3.712 L468.462656,-7.404 C468.310072,-7.458 468.140979,-7.4325 468.008906,-7.339 C467.877333,-7.245 467.79929,-7.093 467.79929,-6.9315 L467.79929,0.4535 L467.79929,2.6285 C466.65466,3.419 458.993942,9.048 455.403965,20.0835 C449.829395,3.056 438.023394,-5.631 436.240412,-6.864 L436.240412,-9.575 L452.594918,-15.2135 C452.796529,-15.2825 452.932104,-15.4725 452.932104,-15.686 C452.932104,-15.8995 452.796529,-16.0895 452.594918,-16.1585 L435.903727,-21.913 C435.750142,-21.9665 435.581549,-21.9415 435.449977,-21.8475 C435.318404,-21.754 435.239861,-21.602 435.239861,-21.4405 L435.239861,-9.9315 L435.239861,-6.954 C433.960657,-6.092 419.594246,3.991 414.676037,24.5445 C414.640518,24.6935 414.675537,24.85 414.770089,24.9705 C414.865142,25.0905 415.009721,25.1605 415.162806,25.1605 L418.195475,25.1605 L418.195475,95.754 C418.195475,96.0305 418.419599,96.254 418.695751,96.254 C418.971903,96.254 419.196026,96.0305 419.196026,95.754 L639.663929,95.754 C639.663929,96.0305 639.888053,96.254 640.164205,96.254 C640.440357,96.254 640.66448,96.0305 640.66448,95.754 L640.66448,25.1605 L643.69715,25.1605 C643.850235,25.1605 643.994814,25.0905 644.089867,24.9705 C644.184419,24.85 644.219438,24.6935 644.183418,24.5445 L644.183418,24.5445 Z"/>
    <path stroke="#F2F3F4" d="M435.740387 24.66085L456.185645 24.66085C451.050317 3.19885 435.740387-6.59915 435.740387-6.59915L435.608314-6.59915C435.608314-6.59915 420.297883 3.19885 415.163056 24.66085L435.608314 24.66085M418.695801 24.77695L418.695801 95.75395M452.6528 24.77695L452.6528 95.75395M441.177331 47.27695L430.17127 47.27695 430.17127 39.27695C430.17127 36.23945 432.635127 33.77695 435.6743 33.77695 438.713474 33.77695 441.177331 36.23945 441.177331 39.27695L441.177331 47.27695 441.177331 47.27695zM428.170168 47.27695L443.178433 47.27695M435.6743 33.77695L435.6743 47.27695M430.344766 41.1103L441.003635 41.1103M441.177331 73.27695L430.17127 73.27695 430.17127 65.27695C430.17127 62.23945 432.635127 59.77695 435.6743 59.77695 438.713474 59.77695 441.177331 62.23945 441.177331 65.27695L441.177331 73.27695 441.177331 73.27695zM428.170168 73.27695L443.178433 73.27695M435.6743 59.77695L435.6743 73.27695M430.344766 67.1103L441.003635 67.1103M623.251842 24.66085L643.6971 24.66085C638.562273 3.19885 623.251842-6.59915 623.251842-6.59915L623.119769-6.59915C623.119769-6.59915 607.809338 3.19885 602.674511 24.66085L623.119769 24.66085M606.207256 24.77695L606.207256 95.75395M640.164255 24.77695L640.164255 95.75395M628.688786 47.27695L617.682725 47.27695 617.682725 39.27695C617.682725 36.23945 620.146582 33.77695 623.185756 33.77695L623.185756 33.77695C626.224929 33.77695 628.688786 36.23945 628.688786 39.27695L628.688786 47.27695 628.688786 47.27695zM615.681623 47.27695L630.689888 47.27695M623.185756 33.77695L623.185756 47.27695M617.856221 41.1103L628.51509 41.1103M628.688786 73.27695L617.682725 73.27695 617.682725 65.27695C617.682725 62.23945 620.146582 59.77695 623.185756 59.77695L623.185756 59.77695C626.224929 59.77695 628.688786 62.23945 628.688786 65.27695L628.688786 73.27695 628.688786 73.27695zM615.681623 73.27695L630.689888 73.27695M623.185756 59.77695L623.185756 73.27695M617.856221 67.1103L628.51509 67.1103M487.809709 47.27695L476.803649 47.27695 476.803649 39.27695C476.803649 36.23945 479.267505 33.77695 482.306679 33.77695 485.345853 33.77695 487.809709 36.23945 487.809709 39.27695L487.809709 47.27695 487.809709 47.27695zM474.802547 47.27695L489.810811 47.27695M482.306679 33.77695L482.306679 47.27695M476.977194 41.1103L487.636064 41.1103M487.809709 73.27695L476.803649 73.27695 476.803649 65.27695C476.803649 62.23945 479.267505 59.77695 482.306679 59.77695 485.345853 59.77695 487.809709 62.23945 487.809709 65.27695L487.809709 73.27695 487.809709 73.27695zM474.802547 73.27695L489.810811 73.27695M482.306679 59.77695L482.306679 73.27695M476.977194 67.1103L487.636064 67.1103" stroke-linecap="round" stroke-linejoin="round"/>
    <polyline stroke="#F2F3F4" points="522.763 -2.556 492.991 -2.556 455.859 21.277" stroke-linecap="round" stroke-linejoin="round"/>
    <path stroke="#F2F3F4" d="M474.568618,8.948 C471.317328,4.882 468.299666,2.9505 468.299666,2.9505 L468.214619,2.9505 C468.214619,2.9505 458.389709,9.2385 455.094394,23.011" stroke-linecap="round" stroke-linejoin="round"/>
    <polygon stroke="#F2F3F4" points="468.3 .454 468.3 -6.932 479.011 -3.239" stroke-linecap="round" stroke-linejoin="round"/>
    <path stroke="#F2F3F4" d="M468.299566.45365L468.299566 2.95065M605.793979 31.77695L592.152967 31.77695 565.455766 14.27695 547.633452 14.27695C547.633452 14.27695 543.556707.27695 529.444436-6.40205L529.002192-6.40205C514.889921.27695 510.813176 14.27695 510.813176 14.27695L492.990862 14.27695 466.293661 31.77695 452.65265 31.77695M570.637019 47.27695L581.64308 47.27695 581.64308 39.27695C581.64308 36.23945 579.179223 33.77695 576.140049 33.77695 573.100876 33.77695 570.637019 36.23945 570.637019 39.27695L570.637019 47.27695 570.637019 47.27695zM583.644182 47.27695L568.635917 47.27695M576.140049 33.77695L576.140049 47.27695M581.469484 41.1103L570.810615 41.1103M570.637019 73.27695L581.64308 73.27695 581.64308 65.27695C581.64308 62.23945 579.179223 59.77695 576.140049 59.77695 573.100876 59.77695 570.637019 62.23945 570.637019 65.27695L570.637019 73.27695 570.637019 73.27695zM583.644182 73.27695L568.635917 73.27695M576.140049 59.77695L576.140049 73.27695M581.469484 67.1103L570.810615 67.1103" stroke-linecap="round" stroke-linejoin="round"/>
    <polyline stroke="#F2F3F4" points="535.684 -2.556 565.456 -2.556 602.587 21.277" stroke-linecap="round" stroke-linejoin="round"/>
    <path stroke="#F2F3F4" d="M603.322668,23.01125 C600.027353,9.23825 590.202443,2.95075 590.202443,2.95075 L590.117396,2.95075 C590.117396,2.95075 586.896623,5.01175 583.524766,9.35925" stroke-linecap="round" stroke-linejoin="round"/>
    <polygon stroke="#F2F3F4" points="590.202 .454 590.202 -6.932 600.914 -3.239" stroke-linecap="round" stroke-linejoin="round"/>
    <path stroke="#F2F3F4" d="M590.202243.45375L590.202243 2.95075M558.246646 95.754L550.242238 95.754 550.242238 64.577C550.242238 53.1075 540.906097 43.777 529.430778 43.777 517.953458 43.777 508.617818 53.1075 508.617818 64.577L508.617818 95.754 500.61341 95.754 500.61341 64.577C500.61341 48.6965 513.540028 35.777 529.429278 35.777 545.320028 35.777 558.246646 48.6965 558.246646 64.577L558.246646 95.754 558.246646 95.754z" stroke-linecap="round" stroke-linejoin="round"/>
    <polygon stroke="#F2F3F4" points="505.222 29.969 553.638 29.969 553.638 23.968 505.222 23.968" stroke-linecap="round" stroke-linejoin="round"/>
    <path stroke="#F2F3F4" d="M510.381038 20.0847L510.381038 23.4687M514.614169 20.0847L514.614169 23.4687M518.84725 20.0847L518.84725 23.4687M523.080381 20.0847L523.080381 23.4687M527.313462 20.0847L527.313462 23.4687M531.546593 20.0847L531.546593 23.4687M535.779674 20.0847L535.779674 23.4687M540.012806 20.0847L540.012806 23.4687M544.245887 20.0847L544.245887 23.4687M548.478967 20.0847L548.478967 23.4687M507.117591 20.0847L551.742665 20.0847M521.125305 23.9686L521.125305 14.8846C521.125305 10.3006 524.843352 6.5846 529.429878 6.5846L529.430378 6.5846C534.016404 6.5846 537.734951 10.3006 537.734951 14.8846L537.734951 23.9686" stroke-linecap="round" stroke-linejoin="round"/>
    <use fill="url(#b)" xlink:href="#a"/>
  </g>
</svg>
