<?xml version="1.0" encoding="UTF-8" standalone="no"?>
<svg width="22px" height="22px" viewBox="0 0 22 22" version="1.1" xmlns="http://www.w3.org/2000/svg" xmlns:xlink="http://www.w3.org/1999/xlink" xmlns:sketch="http://www.bohemiancoding.com/sketch/ns">
    <!-- Generator: Sketch 3.5.2 (25235) - http://www.bohemiancoding.com/sketch -->
    <title>emoji-object-color</title>
    <desc>Created with Sketch.</desc>
    <defs>
        <path id="path-1" d="M0,0 L15,0 L15,16 L0,16 L0,0 Z"></path>
    </defs>
    <g id="General-Playground" stroke="none" stroke-width="1" fill="none" fill-rule="evenodd" sketch:type="MSPage">
        <g id="emoji-object-color" sketch:type="MSArtboardGroup">
            <g id="Page-1" sketch:type="MSLayerGroup" transform="translate(4.000000, 3.000000)">
                <path d="M10.75,14 L4.25,14 C3.007,14 2,13.194 2,12.2 L2,10.4 C2,9.075 3.343,8 5,8 L10,8 C11.657,8 13,9.075 13,10.4 L13,12.2 C13,13.194 11.993,14 10.75,14" id="Fill-1" fill="#C9D2F0" sketch:type="MSShapeGroup"></path>
                <path d="M11,2 L4,2 C3.172,2 2.5,2.672 2.5,3.5 C2.5,4.328 3.172,5 4,5 L11,5 C11.828,5 12.5,4.328 12.5,3.5 C12.5,2.672 11.828,2 11,2 M11,3 C11.276,3 11.5,3.224 11.5,3.5 C11.5,3.776 11.276,4 11,4 L4,4 C3.724,4 3.5,3.776 3.5,3.5 C3.5,3.224 3.724,3 4,3 L11,3" id="Fill-3" fill="#282B2E" sketch:type="MSShapeGroup"></path>
                <path d="M11,6 L9,6 L9,7 L11,7 C12.654,7 14,8.346 14,10 L14,13 C14,14.103 13.103,15 12,15 L3,15 C1.897,15 1,14.103 1,13 L1,10 C1,8.346 2.346,7 4,7 L6,7 L6,6 L4,6 C1.791,6 0,7.791 0,10 L0,13 C0,14.657 1.343,16 3,16 L12,16 C13.657,16 15,14.657 15,13 L15,10 C15,7.791 13.209,6 11,6" id="Fill-5" fill="#282B2E" sketch:type="MSShapeGroup"></path>
                <path d="M10,8 L5,8 C3.343,8 2,9.075 2,10.4 L2,12.2 C2,13.194 3.007,14 4.25,14 L10.75,14 C11.993,14 13,13.194 13,12.2 L13,10.4 C13,9.075 11.657,8 10,8 M10,9 C11.084,9 12,9.641 12,10.4 L12,12.2 C12,12.578 11.487,13 10.75,13 L4.25,13 C3.513,13 3,12.578 3,12.2 L3,10.4 C3,9.641 3.916,9 5,9 L10,9" id="Fill-7" fill="#282B2E" sketch:type="MSShapeGroup"></path>
                <path d="M6,6 L6,5 L9,5 L9,6 L10,6 L10,4 L5,4 L5,6 L6,6 Z" id="Fill-9" fill="#282B2E" sketch:type="MSShapeGroup"></path>
                <mask id="mask-2" sketch:name="Clip 12" fill="white">
                    <use xlink:href="#path-1"></use>
                </mask>
                <g id="Clip-12"></g>
                <path d="M9,3 L6,3 L6,1 L9,1 L9,3 Z" id="Fill-11" fill="#D88359" sketch:type="MSShapeGroup" mask="url(#mask-2)"></path>
                <path d="M9,0 L6,0 C5.448,0 5,0.448 5,1 L5,3 L10,3 L10,1 C10,0.448 9.552,0 9,0 L9,0 Z M9,2 L6,2 L6,1 L9,1 L9,2 Z" id="Fill-13" fill="#282B2E" sketch:type="MSShapeGroup" mask="url(#mask-2)"></path>
            </g>
        </g>
    </g>
</svg>