<?xml version="1.0" encoding="UTF-8" standalone="no"?>
<svg width="22px" height="22px" viewBox="0 0 22 22" version="1.1" xmlns="http://www.w3.org/2000/svg" xmlns:xlink="http://www.w3.org/1999/xlink" xmlns:sketch="http://www.bohemiancoding.com/sketch/ns">
    <!-- Generator: Sketch 3.5.2 (25235) - http://www.bohemiancoding.com/sketch -->
    <title>emoji-symbol-color</title>
    <desc>Created with Sketch.</desc>
    <defs>
        <path id="path-1" d="M0,0.625 L16,0.625 L16,16 L0,16"></path>
    </defs>
    <g id="General-Playground" stroke="none" stroke-width="1" fill="none" fill-rule="evenodd" sketch:type="MSPage">
        <g id="emoji-symbol-color" sketch:type="MSArtboardGroup">
            <g id="Page-1" sketch:type="MSLayerGroup" transform="translate(3.000000, 3.000000)">
                <path d="M11.038,12.4715 L8,14.7505 L4.962,12.4715 C2.468,10.6005 1,7.6655 1,4.5475 L1,4.5475 C1,2.9335 2.308,1.6255 3.922,1.6255 L3.925,1.6255 C4.854,1.6255 5.744,1.9935 6.4,2.6505 L8,4.2505 L9.6,2.6505 C10.256,1.9935 11.146,1.6255 12.075,1.6255 L12.077,1.6255 C13.692,1.6255 15,2.9335 15,4.5475 L15,4.5475 C15,7.6655 13.532,10.6005 11.038,12.4715" id="Fill-1" fill="#FF816C" sketch:type="MSShapeGroup"></path>
                <g id="Group-5">
                    <mask id="mask-2" sketch:name="Clip 4" fill="white">
                        <use xlink:href="#path-1"></use>
                    </mask>
                    <g id="Clip-4"></g>
                    <path d="M12.0775,0.625 L12.0745,0.625 C10.8725,0.625 9.7425,1.093 8.8925,1.943 L7.9995,2.836 L7.1075,1.943 C6.2575,1.093 5.1275,0.625 3.9255,0.625 C1.7595,0.625 -0.0005,2.385 -0.0005,4.547 C-0.0005,7.962 1.6305,11.223 4.3615,13.271 L7.3995,15.55 L7.9995,16 L8.5995,15.55 L11.6375,13.271 C14.3695,11.223 15.9995,7.962 15.9995,4.547 C15.9995,2.385 14.2405,0.625 12.0775,0.625 M12.0775,1.625 C13.6915,1.625 14.9995,2.933 14.9995,4.547 C14.9995,7.665 13.5325,10.601 11.0375,12.471 L7.9995,14.75 L4.9615,12.471 C2.4675,10.601 0.9995,7.665 0.9995,4.547 C0.9995,2.933 2.3085,1.625 3.9225,1.625 L3.9255,1.625 C4.8535,1.625 5.7435,1.994 6.4005,2.65 L7.9995,4.25 L9.5995,2.65 C10.2565,1.994 11.1465,1.625 12.0745,1.625 L12.0775,1.625" id="Fill-3" fill="#282B2E" sketch:type="MSShapeGroup" mask="url(#mask-2)"></path>
                </g>
            </g>
        </g>
    </g>
</svg>