<?xml version="1.0" encoding="UTF-8" standalone="no"?>
<svg width="22px" height="22px" viewBox="0 0 22 22" version="1.1" xmlns="http://www.w3.org/2000/svg" xmlns:xlink="http://www.w3.org/1999/xlink" xmlns:sketch="http://www.bohemiancoding.com/sketch/ns">
    <!-- Generator: Sketch 3.5.2 (25235) - http://www.bohemiancoding.com/sketch -->
    <title>emoji-activity-color</title>
    <desc>Created with Sketch.</desc>
    <defs>
        <path id="path-1" d="M0,0 L17,0 L17,16 L0,16 L0,0 Z"></path>
    </defs>
    <g id="General-Playground" stroke="none" stroke-width="1" fill="none" fill-rule="evenodd" sketch:type="MSPage">
        <g id="emoji-activity-color" sketch:type="MSArtboardGroup">
            <g id="Page-1" sketch:type="MSLayerGroup" transform="translate(3.000000, 3.000000)">
                <path d="M13,4 L4,4 C2.343,4 1,5.343 1,7 L1,13.05 C1,14.127 1.873,15 2.95,15 L2.955,15 C3.608,15 4.218,14.674 4.58,14.131 L4.615,14.078 C5.482,12.78 6.939,12 8.5,12 L8.501,12 C10.062,12 11.52,12.78 12.386,14.08 L12.42,14.13 C12.782,14.673 13.392,15 14.046,15 L14.05,15 C15.127,15 16,14.127 16,13.05 L16,7 C16,5.343 14.657,4 13,4" id="Fill-1" fill="#D5D7DB" sketch:type="MSShapeGroup"></path>
                <path d="M13,3 L4,3 C1.794,3 0,4.794 0,7 L0,13.05 C0,14.677 1.323,16 2.95,16 C3.944,16 4.863,15.509 5.412,14.686 L5.447,14.633 C6.129,13.61 7.271,13 8.5,13 C9.73,13 10.872,13.611 11.554,14.634 L11.588,14.684 C12.137,15.508 13.056,16 14.046,16 C15.677,16 17,14.677 17,13.05 L17,7 C17,4.794 15.206,3 13,3 M13,4 C14.657,4 16,5.343 16,7 L16,13.05 C16,14.127 15.127,15 14.05,15 L14.046,15 C13.392,15 12.782,14.673 12.42,14.13 L12.386,14.08 C11.52,12.78 10.062,12 8.501,12 L8.5,12 C6.939,12 5.482,12.78 4.615,14.078 L4.58,14.13 C4.218,14.674 3.608,15 2.955,15 L2.95,15 C1.873,15 1,14.127 1,13.05 L1,7 C1,5.343 2.343,4 4,4 L13,4" id="Fill-3" fill="#282B2E" sketch:type="MSShapeGroup"></path>
                <mask id="mask-2" sketch:name="Clip 6" fill="white">
                    <use xlink:href="#path-1"></use>
                </mask>
                <g id="Clip-6"></g>
                <path d="M5,9 L4,9 L4,6 L5,6 L5,9 Z" id="Fill-5" fill="#282B2E" sketch:type="MSShapeGroup" mask="url(#mask-2)"></path>
                <path d="M6,8 L3,8 L3,7 L6,7 L6,8 Z" id="Fill-7" fill="#282B2E" sketch:type="MSShapeGroup" mask="url(#mask-2)"></path>
                <path d="M14,7 L13,7 L13,6 L14,6 L14,7 Z" id="Fill-8" fill="#282B2E" sketch:type="MSShapeGroup" mask="url(#mask-2)"></path>
                <path d="M12,9 L11,9 L11,8 L12,8 L12,9 Z" id="Fill-9" fill="#282B2E" sketch:type="MSShapeGroup" mask="url(#mask-2)"></path>
                <path d="M12,7 L11,7 L11,6 L12,6 L12,7 Z" id="Fill-10" fill="#282B2E" sketch:type="MSShapeGroup" mask="url(#mask-2)"></path>
                <path d="M14,9 L13,9 L13,8 L14,8 L14,9 Z" id="Fill-11" fill="#282B2E" sketch:type="MSShapeGroup" mask="url(#mask-2)"></path>
                <path d="M9,0 L8,0 L8,3 L9,3 L9,0 Z" id="Fill-12" fill="#282B2E" sketch:type="MSShapeGroup" mask="url(#mask-2)"></path>
                <path d="M8,11 L7,11 L7,10 L8,10 L8,11 Z" id="Fill-13" fill="#282B2E" sketch:type="MSShapeGroup" mask="url(#mask-2)"></path>
                <path d="M10,11 L9,11 L9,10 L10,10 L10,11 Z" id="Fill-14" fill="#282B2E" sketch:type="MSShapeGroup" mask="url(#mask-2)"></path>
            </g>
        </g>
    </g>
</svg>