<svg width="292" height="133" viewBox="0 0 292 133" fill="none" xmlns="http://www.w3.org/2000/svg">
<g clip-path="url(#clip0)">
<path opacity="0.3" d="M228.3 51H191.7V41.4C191.7 38.4 194.1 36 197.1 36H203.2C206.2 36 208.6 38.4 208.6 41.4C208.6 43 209.9 44.2 211.4 44.2H221.4C225.3 44.3 228.3 47.3 228.3 51Z" fill="#4F545C"/>
<path opacity="0.3" d="M89.9 78.6L87.7 75.8C81.4 67.9 71.8 63.3 61.7 63.3C52.9 63.3 44.4 66.8 38.2 73L29.4 81.8C26.4 84.8 22.4 86.4 18.2 86.4H17.5C7.8 86.6 0 94.4 0 104H98.8V103.9C98.8 94.7 95.6 85.8 89.9 78.6Z" fill="#4F545C"/>
<path opacity="0.3" d="M292 108.6H174.6C174.6 100.3 181.3 93.6 189.6 93.6H212.5C214.7 93.6 216.5 91.8 216.5 89.6V83.8C216.5 74.9 223.7 67.7 232.6 67.7H245.3C254.2 67.7 261.4 74.9 261.4 83.8C261.4 85.5 262.7 86.8 264.4 86.8H274.3C284 86.8 291.9 94.7 291.9 104.4V108.6H292Z" fill="#4F545C"/>
<path d="M220.5 123.3L219.4 126.7C218.8 128.4 216.4 128.4 215.8 126.7L214.7 123.3C214.1 121.6 211.7 121.6 211.1 123.3L210 126.7C209.4 128.4 207 128.4 206.4 126.7L205.3 123.3C204.7 121.6 202.3 121.6 201.7 123.3L200.6 126.7C200 128.4 197.6 128.4 197 126.7L195.9 123.3C195.3 121.6 192.9 121.6 192.3 123.3L189.4 132H227L224.1 123.3C223.5 121.6 221.1 121.6 220.5 123.3Z" fill="#4F545C"/>
<path d="M138.2 32L76.5 9.5L86.8 29.7C88.8 33.6 92.3 36.7 96.4 38.2L145.5 56.1L147.2 51.4L138.2 32Z" fill="#DCDDDE"/>
<path d="M152.4 29.9L70.4 2.98023e-08C69.9 -0.2 69.4 0.4 69.6 0.9L72.7 7.2C73.1 7.9 73.7 8.5 74.4 8.7L76.4 9.4L138.2 32L147.3 51.4L145.6 56.1L144.3 59.6L165 67.1L168 59L155.9 33.1C155.2 31.6 153.9 30.4 152.4 29.9Z" fill="white"/>
<path d="M174.157 66.9093C174.264 45.094 156.667 27.3224 134.851 27.2153C113.036 27.1081 95.2645 44.706 95.1573 66.5213C95.0502 88.3365 112.648 106.108 134.463 106.215C156.279 106.322 174.05 88.7245 174.157 66.9093Z" fill="#18191C"/>
<path d="M161 35.5C161.1 41.5 145.2 56.2 134.8 64.4C125.2 64.5 101.4 63.5 95.8 58C95 57.2 94.9 56.6 94.9 56.2C94.9 56 94.9 55.7 95 55.5C98.3 43.7 106.1 34.3 116.9 29.2C130.5 22.7 146.7 24.6 160.3 34.1C160.8 34.5 161 34.9 161 35.5Z" fill="#B9BBBE"/>
<path d="M135.4 66.4C135.4 66.4 97.4 43.7 101.3 39C105.2 34.3 110.1 30.3 116 27.5C131.4 20.2 148.3 23.4 161.4 32.5C170.6 39 135.4 66.4 135.4 66.4Z" fill="#B9BBBE"/>
<path d="M156.357 66.8218C156.416 54.8372 146.749 45.0741 134.764 45.0153C122.779 44.9564 113.016 54.6241 112.957 66.6087C112.899 78.5933 122.566 88.3564 134.551 88.4153C146.535 88.4741 156.299 78.8064 156.357 66.8218Z" fill="#4F545C"/>
<path d="M152.857 66.8046C152.907 56.753 144.798 48.5646 134.747 48.5152C124.695 48.4659 116.507 56.5743 116.457 66.6259C116.408 76.6774 124.516 84.8659 134.568 84.9152C144.62 84.9646 152.808 76.8562 152.857 66.8046Z" fill="#36393F"/>
<path d="M192.2 65.8H185.3C185.3 68.3 185.3 70.9 185.3 73.4H192.1C192 70.8 192 68.3 192.2 65.8Z" fill="#4F545C"/>
<path d="M189.7 82.2H160.6C160.3 82.2 160 81.9 160 81.6C160 81.3 160.3 81 160.6 81H189.7C190 81 190.3 80.7 190.3 80.4V75.7C190.3 75.4 190.6 75.1 190.9 75.1C191.2 75.1 191.5 75.4 191.5 75.7V80.4C191.6 81.4 190.7 82.2 189.7 82.2Z" fill="#E4E9F7"/>
<path d="M193.1 78.5H188.8C188.5 78.5 188.2 78.2 188.2 77.9V64.6C188.2 64.3 188.5 64 188.8 64H193.1C193.4 64 193.7 64.3 193.7 64.6V77.9C193.7 78.2 193.5 78.5 193.1 78.5Z" fill="#18191C"/>
<path d="M192.1 65.8H194.6C194.9 65.8 195.2 66.1 195.2 66.4C195.2 68.5 195.2 70.6 195.2 72.7C195.2 73 194.9 73.3 194.6 73.3H192.2C190.3 73.3 188.7 72 188.3 70.2C188 67.8 189.8 65.8 192.1 65.8Z" fill="#4F545C"/>
<path d="M183.9 103.9H180.5C179.6 103.9 178.9 104.6 178.9 105.5V112.7C178.9 114.7 177.3 116.3 175.3 116.3C173.3 116.3 171.7 114.7 171.7 112.7V103.1V81.9V82.5C171.7 80.3 173.5 78.5 175.7 78.5H187.9C190.1 78.5 191.9 80.3 191.9 82.5V95.9C191.9 100.3 188.3 103.9 183.9 103.9Z" fill="#4F545C"/>
<path d="M178.9 78.5H174.6C174.3 78.5 174 78.2 174 77.9V64.6C174 64.3 174.3 64 174.6 64H178.9C179.2 64 179.5 64.3 179.5 64.6V77.9C179.5 78.2 179.2 78.5 178.9 78.5Z" fill="black"/>
<path d="M176.7 75.7V80.4C176.7 81.1 176.1 81.6 175.5 81.6H146.4" stroke="#2F3849" stroke-width="8" stroke-miterlimit="10"/>
<path d="M188.5 68.7C185.3 64.4 180.2 61.5 174.4 61.5H154.9H150.9C145.1 61.5 140.4 66.2 140.4 72V91.2C140.4 95.1 143.5 98.2 147.4 98.2H153.5H181.4C187.2 98.2 191.9 93.5 191.9 87.7V79C191.9 75.1 190.6 71.6 188.5 68.7Z" fill="#72767D"/>
<path d="M157.9 61.5H150.8C145 61.5 140.3 66.2 140.3 72V88.8C140.3 92.7 143.4 95.8 147.3 95.8H158C157.9 84.3 157.9 72.9 157.9 61.5Z" fill="#4F545C"/>
<path d="M152.6 103.9H149.2C148.3 103.9 147.6 104.6 147.6 105.5V112.7C147.6 114.7 146 116.3 144 116.3C142 116.3 140.4 114.7 140.4 112.7V103.1V76.3V76.9C140.4 74.7 142.2 72.9 144.4 72.9H156.6C158.8 72.9 160.6 74.7 160.6 76.9V95.9C160.6 100.3 157 103.9 152.6 103.9Z" fill="#4F545C"/>
<path d="M175.5 82.2H146.4C146.1 82.2 145.8 81.9 145.8 81.6C145.8 81.3 146.1 81 146.4 81H175.5C175.8 81 176.1 80.7 176.1 80.4V75.7C176.1 75.4 176.4 75.1 176.7 75.1C177 75.1 177.3 75.4 177.3 75.7V80.4C177.3 81.4 176.5 82.2 175.5 82.2Z" fill="white"/>
<path d="M178.9 78.5H174.6C174.3 78.5 174 78.2 174 77.9V64.6C174 64.3 174.3 64 174.6 64H178.9C179.2 64 179.5 64.3 179.5 64.6V77.9C179.5 78.2 179.2 78.5 178.9 78.5Z" fill="#18191C"/>
<path d="M179.1 65.8H164.9C162.6 65.8 160.7 63.9 160.7 61.6H151.8V80H160.7C161.5 75.3 165.6 73.4 170.5 73.4H179.1C181 73.4 182.6 72.1 183 70.3C183.2 67.8 181.4 65.8 179.1 65.8Z" fill="#4F545C"/>
<path d="M135.5 86.4L128.1 88.5C126 89.1 124.5 91 124.3 93.1C124.1 96.3 126.7 99 129.9 98.7C132.1 98.5 133.9 97 134.5 94.9L136.6 87.5C137.1 86.9 136.3 86.2 135.5 86.4Z" fill="#4F545C"/>
<path d="M143.844 74.6485L119.671 80.1913L121.772 89.3535L145.945 83.8107L143.844 74.6485Z" fill="#B9BBBE"/>
<path d="M125.8 90.9L95.5 101.3C94.9 101.5 94.3 101.4 93.8 101C92.5 100 90.2 97.6 88.9 92C87.6 86.4 88.7 83.2 89.4 81.8C89.7 81.3 90.2 80.9 90.8 80.8L122.6 76.9C123.2 76.8 123.8 77.2 124 77.9L126.7 89.5C126.8 90.1 126.4 90.7 125.8 90.9Z" fill="#DCDDDE"/>
<path d="M139.832 74.7368L120.386 89.8018L126.142 97.2325L145.589 82.1675L139.832 74.7368Z" fill="#F6F6F7"/>
<path d="M130.5 97L107.4 119.1C107 119.5 106.3 119.7 105.7 119.6C104.1 119.3 101 118 97.5 113.5C94 109 93.6 105.6 93.7 104C93.7 103.4 94.1 102.8 94.6 102.5L121.8 85.6C122.3 85.3 123 85.4 123.4 85.9L130.7 95.3C131 95.8 130.9 96.6 130.5 97Z" fill="white"/>
<path d="M150.3 59.7H185.3C191.7 59.7 196.8 54.5 196.8 48.2V30.3C196.8 23.9 191.6 18.8 185.3 18.8H150.3C143.9 18.8 138.8 24 138.8 30.3V48.2C138.8 54.6 144 59.7 150.3 59.7Z" fill="#72767D"/>
<path d="M178.9 51.8H190.4C196.1 51.8 200.6 47.2 200.6 41.6V35.6C200.6 33.5 198.9 31.8 196.8 31.8H171.2C169.1 31.8 167.4 33.5 167.4 35.6V40.3C167.4 46.7 172.5 51.8 178.9 51.8Z" fill="#B9BBBE"/>
<path opacity="0.3" d="M198.3 25.5C198.3 25.5 208.4 40.6 197.5 57.9L191.3 61.5L151.6 59.8L142.1 47L151.7 21.3H185.6L198.3 25.5Z" fill="#B9BBBE"/>
<path d="M159.7 41.8C161.799 41.8 163.5 40.0987 163.5 38C163.5 35.9013 161.799 34.2 159.7 34.2C157.601 34.2 155.9 35.9013 155.9 38C155.9 40.0987 157.601 41.8 159.7 41.8Z" fill="#202225"/>
<path d="M190.7 47.2H193.9C194.8 47.2 195.5 46.5 195.5 45.6C195.5 44.7 194.8 44 193.9 44H190.7C189.8 44 189.1 44.7 189.1 45.6C189.1 46.5 189.9 47.2 190.7 47.2Z" fill="#72767D"/>
<path d="M179.9 47.2H184.4C185.3 47.2 186 46.5 186 45.6C186 44.7 185.3 44 184.4 44H179.9C179 44 178.3 44.7 178.3 45.6C178.3 46.5 179 47.2 179.9 47.2Z" fill="#72767D"/>
<path d="M166.7 11.3C143.6 11.3 130.8 26.9 130.8 39.8C130.8 52.7 145.9 53.8 149.5 44.7L157 25L190 29.3L198.3 25.6C195.2 20.5 183.8 11.3 166.7 11.3Z" fill="white"/>
<path d="M147.1 47L167.9 58H197.6L194.7 62.8H139L132.6 45.4L147.1 47Z" fill="white"/>
<path d="M177.7 9.39999L177.1 13.2C180.1 15.6 182.9 18.5 185.2 21.9L188.6 14.1C185.9 12.1 182.2 10.9 177.7 9.39999Z" fill="#B9BBBE"/>
<path d="M185.3 21.9L188.7 14.1L191.6 21.9H185.3Z" fill="#B9BBBE"/>
<path d="M142.2 31.9L136 33.9L133.3 22.9C133 21.6 133.7 20.3 135 19.9C136.3 19.5 137.7 20.2 138.1 21.4L142.2 31.9Z" fill="#DCDDDE"/>
<path d="M151.569 43.6149C152.446 36.489 148.269 30.1106 142.24 29.3682C136.21 28.6258 130.611 33.8006 129.734 40.9265C128.856 48.0523 133.033 54.4308 139.063 55.1732C145.092 55.9156 150.691 50.7407 151.569 43.6149Z" fill="#F6F6F7"/>
<path d="M140.4 33.1C136.1 32.6 132.2 36.3 131.5 41.3C130.8 46.3 133.8 50.9 138.1 51.4C142.4 51.9 146.3 48.2 147 43.2C147.6 38.1 144.6 33.6 140.4 33.1Z" fill="#B9BBBE"/>
<path d="M137.7 45.6L137 45.3C136.8 45.2 136.7 45 136.8 44.8L139.3 38.8C139.4 38.6 139.6 38.5 139.8 38.6L140.5 38.9C140.7 39 140.8 39.2 140.7 39.4L138.2 45.4C138.2 45.6 137.9 45.6 137.7 45.6Z" fill="#DCDDDE"/>
<path d="M111.6 32L49.9 9.5L60.2 29.7C62.2 33.6 65.7 36.7 69.8 38.2L119 56.1L120.7 51.4L111.6 32Z" fill="#DCDDDE"/>
<path d="M125.8 29.9L43.8 2.98023e-08C43.3 -0.2 42.8 0.4 43 0.9L46.1 7.2C46.5 7.9 47.1 8.5 47.8 8.7L49.8 9.4L111.6 32L120.7 51.4L119 56.1L117.7 59.6L138.4 67.1L141.4 59L129.3 33.1C128.6 31.6 127.3 30.4 125.8 29.9Z" fill="white"/>
<path d="M146 88.2H138V61.5H149.1V85C149.1 86.8 147.7 88.2 146 88.2Z" fill="#18191C"/>
<path d="M144.5 67.3H131.7C130.6 67.3 129.7 66.4 129.7 65.3V58.4C129.7 57.3 130.6 56.4 131.7 56.4H144.5C145.6 56.4 146.5 57.3 146.5 58.4V65.3C146.4 66.4 145.5 67.3 144.5 67.3Z" fill="#72767D"/>
<path d="M149.1 70.7H139C136.3 70.7 134 68.5 134 65.7V57.9C134 55.2 136.2 52.9 139 52.9H149.1C150.1 52.9 151 53.7 151 54.8V68.8C151 69.9 150.1 70.7 149.1 70.7Z" fill="#B9BBBE"/>
<path d="M231.8 13.7L230.5 16.3C230.2 16.9 230.8 17.6 231.5 17.3L234.1 16C234.3 15.9 234.5 15.9 234.7 16L237.3 17.3C237.9 17.6 238.6 17 238.3 16.3L237 13.7C236.9 13.5 236.9 13.3 237 13.1L238.3 10.5C238.6 9.9 238 9.2 237.3 9.5L234.7 10.8C234.5 10.9 234.3 10.9 234.1 10.8L231.5 9.5C230.9 9.2 230.2 9.8 230.5 10.5L231.8 13.1C231.9 13.3 231.9 13.5 231.8 13.7Z" fill="white"/>
<path d="M47.9 43.7C47.3 43.7 46.9 43.3 46.9 42.7V41.7C46.9 41.1 47.3 40.7 47.9 40.7C48.5 40.7 48.9 41.1 48.9 41.7V42.7C48.9 43.3 48.5 43.7 47.9 43.7Z" fill="#18191C"/>
<path d="M47.9 51.7C47.3 51.7 46.9 51.3 46.9 50.7V49.7C46.9 49.1 47.3 48.7 47.9 48.7C48.5 48.7 48.9 49.1 48.9 49.7V50.7C48.9 51.3 48.5 51.7 47.9 51.7Z" fill="#18191C"/>
<path d="M50.4 46.2C50.4 45.6 50.8 45.2 51.4 45.2H52.4C53 45.2 53.4 45.6 53.4 46.2C53.4 46.8 53 47.2 52.4 47.2H51.4C50.9 47.2 50.4 46.8 50.4 46.2Z" fill="#18191C"/>
<path d="M42.4 46.2C42.4 45.6 42.8 45.2 43.4 45.2H44.4C45 45.2 45.4 45.6 45.4 46.2C45.4 46.8 45 47.2 44.4 47.2H43.4C42.9 47.2 42.4 46.8 42.4 46.2Z" fill="#18191C"/>
<path d="M240.9 58.1L210.9 132.1H270.9L240.9 58.1Z" fill="#202225"/>
<path d="M258.9 88.1L238.9 132.1H278.9L258.9 88.1Z" fill="#72767D"/>
<path d="M51.9 74.1L35.9 132.1H67.9L51.9 74.1Z" fill="#4F545C"/>
<path d="M251.9 132.1H231.9V126.1C231.9 123.9 233.7 122.1 235.9 122.1H247.9C250.1 122.1 251.9 123.9 251.9 126.1V132.1Z" fill="#4F545C"/>
<path d="M50.7 123.3L49.6 126.7C49 128.4 46.6 128.4 46 126.7L44.9 123.3C44.3 121.6 41.9 121.6 41.3 123.3L40.2 126.7C39.6 128.4 37.2 128.4 36.6 126.7L35.5 123.3C34.9 121.6 32.5 121.6 31.9 123.3L30.8 126.7C30.2 128.4 27.8 128.4 27.2 126.7L26.1 123.3C25.5 121.6 23.1 121.6 22.5 123.3L19.6 132H57.1L54.2 123.3C53.7 121.6 51.3 121.6 50.7 123.3Z" fill="#72767D"/>
<path d="M257.9 25.2L248.9 34.2V49.2L257.9 58.2L266.9 49.2V34.2L257.9 25.2ZM262.4 47.3L257.9 51.8L253.4 47.3V36L257.9 31.5L262.4 36V47.3Z" fill="#B9BBBE"/>
<path d="M254.9 36.7V46.7L257.9 49.7L260.9 46.7V36.7L257.9 33.7L254.9 36.7Z" fill="#B9BBBE"/>
<path d="M257.9 25.2V31.5L262.4 36L266.9 34.2L257.9 25.2Z" fill="#DCDDDE"/>
<path d="M27.8 61.2L18.8 70.2V85.2L27.8 94.2L36.8 85.2V70.2L27.8 61.2ZM32.3 83.3L27.8 87.8L23.3 83.3V72.1L27.8 67.6L32.3 72.1V83.3Z" fill="#B9BBBE"/>
<path d="M24.8 72.7V82.7L27.8 85.7L30.8 82.7V72.7L27.8 69.7L24.8 72.7Z" fill="#B9BBBE"/>
<path d="M27.8 61.2V67.6L32.3 72.1L36.8 70.2L27.8 61.2Z" fill="#DCDDDE"/>
</g>
<defs>
<clipPath id="clip0">
<rect width="292" height="132.1" fill="white"/>
</clipPath>
</defs>
</svg>
