<svg xmlns="http://www.w3.org/2000/svg" width="660" height="97" viewBox="0 0 660 97" xmlns:xlink="http://www.w3.org/1999/xlink">
  <defs>
    <linearGradient id="b" x1=".258%" x2="99.032%" y1="49.75%" y2="49.75%">
      <stop stop-color="#7289DA" stop-opacity=".285" offset="0%"/>
      <stop stop-color="#7289DA" stop-opacity=".7" offset="16.562%"/>
      <stop stop-color="#7289DA" stop-opacity=".6" offset="100%"/>
    </linearGradient>
    <rect id="a" width="660" height="97"/>
  </defs>
  <g fill="none" fill-rule="evenodd">
    <rect width="660" height="97" fill="#7289DA"/>
    <path fill="#738BD7" d="M585.61745,32.6999 C585.61745,46.1944 574.67795,57.1339 561.18345,57.1339 C547.68895,57.1339 536.74945,46.1944 536.74945,32.6999 C536.74945,19.2054 547.68895,8.2659 561.18345,8.2659 C574.67795,8.2659 585.61745,19.2054 585.61745,32.6999 L585.61745,32.6999 Z"/>
    <path stroke="#7C93E4" d="M585.61745,32.6999 C585.61745,46.1944 574.67795,57.1339 561.18345,57.1339 C547.68895,57.1339 536.74945,46.1944 536.74945,32.6999 C536.74945,19.2054 547.68895,8.2659 561.18345,8.2659 C574.67795,8.2659 585.61745,19.2054 585.61745,32.6999 L585.61745,32.6999 Z" stroke-linecap="round" stroke-linejoin="round"/>
    <path fill="#738BD7" d="M579.9162,32.6999 C579.9162,43.0459 571.5292,51.4324 561.1837,51.4324 C550.8377,51.4324 542.4507,43.0459 542.4507,32.6999 C542.4507,22.3539 550.8377,13.9674 561.1837,13.9674 C571.5292,13.9674 579.9162,22.3539 579.9162,32.6999"/>
    <path stroke="#7C93E4" d="M579.9162 32.6999C579.9162 43.0459 571.5292 51.4324 561.1837 51.4324 550.8377 51.4324 542.4507 43.0459 542.4507 32.6999 542.4507 22.3539 550.8377 13.9674 561.1837 13.9674 571.5292 13.9674 579.9162 22.3539 579.9162 32.6999L579.9162 32.6999zM561.18355 3.6825L561.18355-12.607M561.12745 68.9351L561.12745 47.6756" stroke-linecap="round" stroke-linejoin="round"/>
    <polygon fill="#738BD7" points="580.697 6.614 586.562 6.614 586.562 .75 580.697 .75"/>
    <polygon stroke="#7C93E4" points="580.697 6.614 586.562 6.614 586.562 .75 580.697 .75" stroke-linecap="round" stroke-linejoin="round"/>
    <polygon fill="#738BD7" points="555.264 1.891 561.128 1.891 561.128 -3.974 555.264 -3.974"/>
    <polygon stroke="#7C93E4" points="555.264 1.891 561.128 1.891 561.128 -3.974 555.264 -3.974" stroke-linecap="round" stroke-linejoin="round"/>
    <polygon fill="#738BD7" points="542.716 4.823 548.581 4.823 548.581 -1.041 542.716 -1.041"/>
    <polygon stroke="#7C93E4" points="542.716 4.823 548.581 4.823 548.581 -1.041 542.716 -1.041" stroke-linecap="round" stroke-linejoin="round"/>
    <polygon fill="#738BD7" points="528.789 70.966 534.653 70.966 534.653 65.102 528.789 65.102"/>
    <polygon stroke="#7C93E4" points="528.789 70.966 534.653 70.966 534.653 65.102 528.789 65.102" stroke-linecap="round" stroke-linejoin="round"/>
    <polygon fill="#738BD7" points="535.604 1.647 539.024 1.647 539.024 -1.774 535.604 -1.774"/>
    <polygon stroke="#7C93E4" points="535.604 1.647 539.024 1.647 539.024 -1.774 535.604 -1.774" stroke-linecap="round" stroke-linejoin="round"/>
    <polygon fill="#738BD7" points="539.942 61.726 543.362 61.726 543.362 58.305 539.942 58.305"/>
    <polygon stroke="#7C93E4" points="539.942 61.726 543.362 61.726 543.362 58.305 539.942 58.305" stroke-linecap="round" stroke-linejoin="round"/>
    <polygon fill="#738BD7" points="585.163 58.057 588.583 58.057 588.583 54.636 585.163 54.636"/>
    <polygon stroke="#7C93E4" points="585.163 58.057 588.583 58.057 588.583 54.636 585.163 54.636" stroke-linecap="round" stroke-linejoin="round"/>
    <polygon fill="#738BD7" points="515.797 12.671 517.751 12.671 517.751 10.717 515.797 10.717"/>
    <polygon stroke="#7C93E4" points="515.797 12.671 517.751 12.671 517.751 10.717 515.797 10.717" stroke-linecap="round" stroke-linejoin="round"/>
    <polygon fill="#738BD7" points="573.461 67.764 575.415 67.764 575.415 65.809 573.461 65.809"/>
    <polygon stroke="#7C93E4" points="573.461 67.764 575.415 67.764 575.415 65.809 573.461 65.809" stroke-linecap="round" stroke-linejoin="round"/>
    <polygon fill="#738BD7" points="528.02 38.703 529.975 38.703 529.975 36.749 528.02 36.749"/>
    <polygon stroke="#7C93E4" points="528.02 38.703 529.975 38.703 529.975 36.749 528.02 36.749" stroke-linecap="round" stroke-linejoin="round"/>
    <polygon fill="#738BD7" points="591.4 18.723 593.355 18.723 593.355 16.768 591.4 16.768"/>
    <polygon stroke="#7C93E4" points="591.4 18.723 593.355 18.723 593.355 16.768 591.4 16.768" stroke-linecap="round" stroke-linejoin="round"/>
    <polygon fill="#738BD7" points="534.193 15.984 536.148 15.984 536.148 14.03 534.193 14.03"/>
    <polygon stroke="#7C93E4" points="534.193 15.984 536.148 15.984 536.148 14.03 534.193 14.03" stroke-linecap="round" stroke-linejoin="round"/>
    <path fill="#738BD7" d="M576.39235,29.7296 C577.63535,29.7456 609.39185,31.5536 608.33685,31.7081 L576.39235,34.9756"/>
    <path stroke="#7C93E4" d="M576.39235,29.7296 C577.63535,29.7456 609.39185,31.5536 608.33685,31.7081 L576.39235,34.9756" stroke-linecap="round" stroke-linejoin="round"/>
    <path fill="#738BD7" d="M548.74365,29.7296 C547.50065,29.7456 515.74415,31.5536 516.79915,31.7081 L548.74365,34.9756"/>
    <path stroke="#7C93E4" d="M548.74365,29.7296 C547.50065,29.7456 515.74415,31.5536 516.79915,31.7081 L548.74365,34.9756" stroke-linecap="round" stroke-linejoin="round"/>
    <path fill="#738BD7" d="M290.8368,-30.70785 C290.8368,-30.70785 279.3493,-2.88135 279.9163,-1.72385 L279.9518,-1.56835 C280.3153,1.07415 277.1998,31.52465 277.1998,31.52465 L280.3318,59.03115 L300.5033,91.50415 L318.3933,61.70565 L321.8973,28.85065 L318.3933,-12.79085 L314.0808,-16.89135 L312.7853,-19.96635 L314.0808,-17.59935 L309.6723,-31.89285"/>
    <path stroke="#7C93E4" d="M290.83675,-30.70785 C290.83675,-30.70785 279.34925,-2.88135 279.91625,-1.72385 C280.48325,-0.56585 277.19975,31.52465 277.19975,31.52465 L280.33175,59.03115 L300.50375,91.50415 L318.39325,61.70565 L321.89725,28.85065 L318.39325,-12.79085 L297.14025,-32.99985" stroke-linecap="round" stroke-linejoin="round"/>
    <polygon stroke="#7C93E4" points="313.596 13.106 318.393 -12.791" stroke-linecap="round" stroke-linejoin="round"/>
    <path stroke="#7C93E4" d="M310.16615,17.5056 L298.37515,38.9761" stroke-linecap="round" stroke-linejoin="round"/>
    <polyline stroke="#7C93E4" points="297.14 -33 296.301 -7.061 297.065 17.007 298.271 37.229 299.548 58.649 300.503 91.504" stroke-linecap="round" stroke-linejoin="round"/>
    <polyline stroke="#7C93E4" points="298.02 38.019 283.127 12.232 279.916 -1.724 297.14 -33" stroke-linecap="round" stroke-linejoin="round"/>
    <path stroke="#7C93E4" d="M321.8974,28.85065 L313.3014,45.46915" stroke-linecap="round" stroke-linejoin="round"/>
    <polygon fill="#738BD7" points="269.848 57.789 329.249 57.789 329.249 41.735 269.848 41.735"/>
    <polygon stroke="#7C93E4" points="269.848 57.789 329.249 57.789 329.249 41.735 269.848 41.735" stroke-linecap="round" stroke-linejoin="round"/>
    <polyline stroke="#7C93E4" points="329.249 50.832 320.285 50.832 320.285 56.452" stroke-linecap="round" stroke-linejoin="round"/>
    <polyline stroke="#7C93E4" points="321.311 41.735 321.311 45.749 315.408 45.749 315.408 51.903 282.54 51.903 282.54 46.819 276.613 46.819 276.613 41.735" stroke-linecap="round" stroke-linejoin="round"/>
    <polyline stroke="#7C93E4" points="269.848 50.832 278.903 50.832 278.903 58.229" stroke-linecap="round" stroke-linejoin="round"/>
    <path fill="#738BD7" d="M299.54845,83.4769 L299.54845,83.4769 C281.81245,65.7409 281.81245,36.9859 299.54845,19.2499 L299.54845,19.2499 L299.54845,19.2499 C317.28445,36.9859 317.28445,65.7409 299.54845,83.4769 L299.54845,83.4769 Z"/>
    <path stroke="#7C93E4" d="M299.54845,83.4769 L299.54845,83.4769 C281.81245,65.7409 281.81245,36.9859 299.54845,19.2499 L299.54845,19.2499 L299.54845,19.2499 C317.28445,36.9859 317.28445,65.7409 299.54845,83.4769 L299.54845,83.4769 L299.54845,83.4769 Z" stroke-linecap="round" stroke-linejoin="round"/>
    <path stroke="#7C93E4" d="M299.54845 50.96885L299.54845 50.96885C294.04445 45.46485 294.04445 36.54035 299.54845 31.03635L299.54845 31.03635 299.54845 31.03635C305.05245 36.54035 305.05245 45.46485 299.54845 50.96885L299.54845 50.96885 299.54845 50.96885zM286.3832 48.0041C286.3832 48.0041 293.4327 51.0631 295.8792 60.5426 298.3252 70.0221 294.6832 77.7346 294.6832 77.7346M312.7137 48.0041C312.7137 48.0041 305.6642 51.0631 303.2177 60.5426 300.7717 70.0221 304.4137 77.7346 304.4137 77.7346" stroke-linecap="round" stroke-linejoin="round"/>
    <path fill="#738BD7" d="M271.721,0.1573 L271.721,83.4768 C271.721,83.4768 257.5395,68.2253 257.5395,43.8763 C257.5395,19.5273 271.721,0.1573 271.721,0.1573"/>
    <path stroke="#7C93E4" d="M271.721,0.1573 L271.721,83.4768 C271.721,83.4768 257.5395,68.2253 257.5395,43.8763 C257.5395,19.5273 271.721,0.1573 271.721,0.1573 L271.721,0.1573 Z" stroke-linecap="round" stroke-linejoin="round"/>
    <path stroke="#7C93E4" d="M267.6027,6.88865 L267.6027,58.22865 C267.6027,58.22865 257.5397,51.36815 257.5397,43.87615" stroke-linecap="round" stroke-linejoin="round"/>
    <path fill="#738BD7" d="M327.3759,0.1573 L327.3759,83.4768 C327.3759,83.4768 341.5574,68.2253 341.5574,43.8763 C341.5574,19.5273 327.3759,0.1573 327.3759,0.1573"/>
    <path stroke="#7C93E4" d="M327.3759,0.1573 L327.3759,83.4768 C327.3759,83.4768 341.5574,68.2253 341.5574,43.8763 C341.5574,19.5273 327.3759,0.1573 327.3759,0.1573 L327.3759,0.1573 Z" stroke-linecap="round" stroke-linejoin="round"/>
    <path stroke="#7C93E4" d="M331.4942,6.88865 L331.4942,58.22865 C331.4942,58.22865 341.5572,51.36815 341.5572,43.87615" stroke-linecap="round" stroke-linejoin="round"/>
    <path fill="#738BD7" d="M455.58155,-30.70785 C455.58155,-30.70785 444.09405,-2.88135 444.66105,-1.72385 L444.69655,-1.56835 C445.06005,1.07415 441.94405,31.52465 441.94405,31.52465 L445.07655,59.03115 L465.24805,91.50415 L483.13755,61.70565 L486.64205,28.85065 L483.13755,-12.79085 L478.82555,-16.89135 L477.53005,-19.96635 L478.82555,-17.59935 L474.41705,-31.89285"/>
    <path stroke="#7C93E4" d="M455.5815,-30.70785 C455.5815,-30.70785 444.094,-2.88135 444.661,-1.72385 C445.228,-0.56585 441.9445,31.52465 441.9445,31.52465 L445.0765,59.03115 L465.2485,91.50415 L483.138,61.70565 L486.642,28.85065 L483.138,-12.79085 L461.885,-32.99985" stroke-linecap="round" stroke-linejoin="round"/>
    <polygon stroke="#7C93E4" points="478.341 13.106 483.138 -12.791" stroke-linecap="round" stroke-linejoin="round"/>
    <path stroke="#7C93E4" d="M474.9109,17.5056 L463.1199,38.9761" stroke-linecap="round" stroke-linejoin="round"/>
    <polyline stroke="#7C93E4" points="461.885 -33 461.046 -7.061 461.81 17.007 463.016 37.229 464.293 58.649 465.248 91.504" stroke-linecap="round" stroke-linejoin="round"/>
    <polyline stroke="#7C93E4" points="462.765 38.019 447.872 12.232 444.661 -1.724 461.885 -33" stroke-linecap="round" stroke-linejoin="round"/>
    <path stroke="#7C93E4" d="M486.6421,28.85065 L478.0466,45.46915" stroke-linecap="round" stroke-linejoin="round"/>
    <polygon fill="#738BD7" points="434.592 57.789 493.993 57.789 493.993 41.735 434.592 41.735"/>
    <polygon stroke="#7C93E4" points="434.592 57.789 493.993 57.789 493.993 41.735 434.592 41.735" stroke-linecap="round" stroke-linejoin="round"/>
    <polyline stroke="#7C93E4" points="493.994 50.832 485.03 50.832 485.03 56.452" stroke-linecap="round" stroke-linejoin="round"/>
    <polyline stroke="#7C93E4" points="486.056 41.735 486.056 45.749 480.153 45.749 480.153 51.903 447.285 51.903 447.285 46.819 441.358 46.819 441.358 41.735" stroke-linecap="round" stroke-linejoin="round"/>
    <polyline stroke="#7C93E4" points="434.593 50.832 443.648 50.832 443.648 58.229" stroke-linecap="round" stroke-linejoin="round"/>
    <path fill="#738BD7" d="M464.2932,83.4769 L464.2932,83.4769 C446.5572,65.7409 446.5572,36.9859 464.2932,19.2499 L464.2932,19.2499 L464.2932,19.2499 C482.0292,36.9859 482.0292,65.7409 464.2932,83.4769 L464.2932,83.4769 Z"/>
    <path stroke="#7C93E4" d="M464.2932,83.4769 L464.2932,83.4769 C446.5572,65.7409 446.5572,36.9859 464.2932,19.2499 L464.2932,19.2499 L464.2932,19.2499 C482.0292,36.9859 482.0292,65.7409 464.2932,83.4769 L464.2932,83.4769 L464.2932,83.4769 Z" stroke-linecap="round" stroke-linejoin="round"/>
    <path stroke="#7C93E4" d="M464.2932 50.96885L464.2932 50.96885C458.7892 45.46485 458.7892 36.54035 464.2932 31.03635L464.2932 31.03635 464.2932 31.03635C469.7972 36.54035 469.7972 45.46485 464.2932 50.96885L464.2932 50.96885 464.2932 50.96885zM451.12795 48.0041C451.12795 48.0041 458.17745 51.0631 460.62395 60.5426 463.06995 70.0221 459.42745 77.7346 459.42745 77.7346M477.45845 48.0041C477.45845 48.0041 470.40895 51.0631 467.96245 60.5426 465.51645 70.0221 469.15895 77.7346 469.15895 77.7346" stroke-linecap="round" stroke-linejoin="round"/>
    <path fill="#738BD7" d="M436.4657,0.1573 L436.4657,83.4768 C436.4657,83.4768 422.2842,68.2253 422.2842,43.8763 C422.2842,19.5273 436.4657,0.1573 436.4657,0.1573"/>
    <path stroke="#7C93E4" d="M436.4657,0.1573 L436.4657,83.4768 C436.4657,83.4768 422.2842,68.2253 422.2842,43.8763 C422.2842,19.5273 436.4657,0.1573 436.4657,0.1573 L436.4657,0.1573 Z" stroke-linecap="round" stroke-linejoin="round"/>
    <path stroke="#7C93E4" d="M432.34745,6.88865 L432.34745,58.22865 C432.34745,58.22865 422.28445,51.36815 422.28445,43.87615" stroke-linecap="round" stroke-linejoin="round"/>
    <path fill="#738BD7" d="M492.12065,0.1573 L492.12065,83.4768 C492.12065,83.4768 506.30215,68.2253 506.30215,43.8763 C506.30215,19.5273 492.12065,0.1573 492.12065,0.1573"/>
    <path stroke="#7C93E4" d="M492.12065,0.1573 L492.12065,83.4768 C492.12065,83.4768 506.30215,68.2253 506.30215,43.8763 C506.30215,19.5273 492.12065,0.1573 492.12065,0.1573 L492.12065,0.1573 Z" stroke-linecap="round" stroke-linejoin="round"/>
    <path stroke="#7C93E4" d="M496.23895,6.88865 L496.23895,58.22865 C496.23895,58.22865 506.30195,51.36815 506.30195,43.87615" stroke-linecap="round" stroke-linejoin="round"/>
    <path fill="#738BD7" d="M27.0928,-30.70785 C27.0928,-30.70785 15.6053,-2.88135 16.1723,-1.72385 L16.2078,-1.56835 C16.5713,1.07415 13.4553,31.52465 13.4553,31.52465 L16.5878,59.03115 L36.7598,91.50415 L54.6493,61.70565 L58.1533,28.85065 L54.6493,-12.79085 L50.3368,-16.89135 L49.0413,-19.96635 L50.3368,-17.59935 L45.9283,-31.89285"/>
    <path stroke="#7C93E4" d="M27.09275,-30.70785 C27.09275,-30.70785 15.60525,-2.88135 16.17225,-1.72385 C16.73925,-0.56585 13.45575,31.52465 13.45575,31.52465 L16.58775,59.03115 L36.75975,91.50415 L54.64925,61.70565 L58.15325,28.85065 L54.64925,-12.79085 L33.39625,-32.99985" stroke-linecap="round" stroke-linejoin="round"/>
    <polygon stroke="#7C93E4" points="49.852 13.106 54.649 -12.791" stroke-linecap="round" stroke-linejoin="round"/>
    <path stroke="#7C93E4" d="M46.42215,17.5056 L34.63115,38.9761" stroke-linecap="round" stroke-linejoin="round"/>
    <polyline stroke="#7C93E4" points="33.396 -33 32.557 -7.061 33.321 17.007 34.527 37.229 35.804 58.649 36.759 91.504" stroke-linecap="round" stroke-linejoin="round"/>
    <polyline stroke="#7C93E4" points="34.276 38.019 19.383 12.232 16.172 -1.724 33.396 -33" stroke-linecap="round" stroke-linejoin="round"/>
    <path stroke="#7C93E4" d="M58.1534,28.85065 L49.5579,45.46915" stroke-linecap="round" stroke-linejoin="round"/>
    <polygon fill="#738BD7" points="6.104 57.789 65.505 57.789 65.505 41.735 6.104 41.735"/>
    <polygon stroke="#7C93E4" points="6.104 57.789 65.505 57.789 65.505 41.735 6.104 41.735" stroke-linecap="round" stroke-linejoin="round"/>
    <polyline stroke="#7C93E4" points="65.505 50.832 56.541 50.832 56.541 56.452" stroke-linecap="round" stroke-linejoin="round"/>
    <polyline stroke="#7C93E4" points="57.567 41.735 57.567 45.749 51.664 45.749 51.664 51.903 18.796 51.903 18.796 46.819 12.869 46.819 12.869 41.735" stroke-linecap="round" stroke-linejoin="round"/>
    <polyline stroke="#7C93E4" points="6.104 50.832 15.159 50.832 15.159 58.229" stroke-linecap="round" stroke-linejoin="round"/>
    <path fill="#738BD7" d="M35.80445,83.4769 L35.80445,83.4769 C18.06845,65.7409 18.06845,36.9859 35.80445,19.2499 L35.80445,19.2499 L35.80445,19.2499 C53.54045,36.9859 53.54045,65.7409 35.80445,83.4769 L35.80445,83.4769 Z"/>
    <path stroke="#7C93E4" d="M35.80445,83.4769 L35.80445,83.4769 C18.06845,65.7409 18.06845,36.9859 35.80445,19.2499 L35.80445,19.2499 L35.80445,19.2499 C53.54045,36.9859 53.54045,65.7409 35.80445,83.4769 L35.80445,83.4769 L35.80445,83.4769 Z" stroke-linecap="round" stroke-linejoin="round"/>
    <path stroke="#7C93E4" d="M35.80445 50.96885L35.80445 50.96885C30.30045 45.46485 30.30045 36.54035 35.80445 31.03635L35.80445 31.03635 35.80445 31.03635C41.30845 36.54035 41.30845 45.46485 35.80445 50.96885L35.80445 50.96885 35.80445 50.96885zM22.6392 48.0041C22.6392 48.0041 29.6887 51.0631 32.1352 60.5426 34.5812 70.0221 30.9392 77.7346 30.9392 77.7346M48.9697 48.0041C48.9697 48.0041 41.9202 51.0631 39.4737 60.5426 37.0277 70.0221 40.6697 77.7346 40.6697 77.7346" stroke-linecap="round" stroke-linejoin="round"/>
    <path fill="#738BD7" d="M7.977,0.1573 L7.977,83.4768 C7.977,83.4768 -6.2045,68.2253 -6.2045,43.8763 C-6.2045,19.5273 7.977,0.1573 7.977,0.1573"/>
    <path stroke="#7C93E4" d="M7.977,0.1573 L7.977,83.4768 C7.977,83.4768 -6.2045,68.2253 -6.2045,43.8763 C-6.2045,19.5273 7.977,0.1573 7.977,0.1573 L7.977,0.1573 Z" stroke-linecap="round" stroke-linejoin="round"/>
    <path stroke="#7C93E4" d="M3.8587,6.88865 L3.8587,58.22865 C3.8587,58.22865 -6.2043,51.36815 -6.2043,43.87615" stroke-linecap="round" stroke-linejoin="round"/>
    <path fill="#738BD7" d="M63.6319,0.1573 L63.6319,83.4768 C63.6319,83.4768 77.8134,68.2253 77.8134,43.8763 C77.8134,19.5273 63.6319,0.1573 63.6319,0.1573"/>
    <path stroke="#7C93E4" d="M63.6319,0.1573 L63.6319,83.4768 C63.6319,83.4768 77.8134,68.2253 77.8134,43.8763 C77.8134,19.5273 63.6319,0.1573 63.6319,0.1573 L63.6319,0.1573 Z" stroke-linecap="round" stroke-linejoin="round"/>
    <path stroke="#7C93E4" d="M67.7502,6.88865 L67.7502,58.22865 C67.7502,58.22865 77.8132,51.36815 77.8132,43.87615" stroke-linecap="round" stroke-linejoin="round"/>
    <path fill="#738BD7" d="M195.7582,-30.70785 C195.7582,-30.70785 184.2707,-2.88135 184.8377,-1.72385 L184.8732,-1.56835 C185.2367,1.07415 182.1212,31.52465 182.1212,31.52465 L185.2532,59.03115 L205.4247,91.50415 L223.3147,61.70565 L226.8187,28.85065 L223.3147,-12.79085 L219.0022,-16.89135 L217.7067,-19.96635 L219.0022,-17.59935 L214.5937,-31.89285"/>
    <path stroke="#7C93E4" d="M195.7582,-30.70785 C195.7582,-30.70785 184.2707,-2.88135 184.8377,-1.72385 C185.4047,-0.56585 182.1212,31.52465 182.1212,31.52465 L185.2532,59.03115 L205.4252,91.50415 L223.3147,61.70565 L226.8187,28.85065 L223.3147,-12.79085 L202.0617,-32.99985" stroke-linecap="round" stroke-linejoin="round"/>
    <polygon stroke="#7C93E4" points="218.517 13.106 223.314 -12.791" stroke-linecap="round" stroke-linejoin="round"/>
    <path stroke="#7C93E4" d="M215.08755,17.5056 L203.29655,38.9761" stroke-linecap="round" stroke-linejoin="round"/>
    <polyline stroke="#7C93E4" points="202.062 -33 201.223 -7.061 201.987 17.007 203.193 37.229 204.47 58.649 205.425 91.504" stroke-linecap="round" stroke-linejoin="round"/>
    <polyline stroke="#7C93E4" points="202.942 38.019 188.048 12.232 184.838 -1.724 202.062 -33" stroke-linecap="round" stroke-linejoin="round"/>
    <path stroke="#7C93E4" d="M226.8188,28.85065 L218.2228,45.46915" stroke-linecap="round" stroke-linejoin="round"/>
    <polygon fill="#738BD7" points="174.769 57.789 234.171 57.789 234.171 41.735 174.769 41.735"/>
    <polygon stroke="#7C93E4" points="174.769 57.789 234.171 57.789 234.171 41.735 174.769 41.735" stroke-linecap="round" stroke-linejoin="round"/>
    <polyline stroke="#7C93E4" points="234.17 50.832 225.207 50.832 225.207 56.452" stroke-linecap="round" stroke-linejoin="round"/>
    <polyline stroke="#7C93E4" points="226.232 41.735 226.232 45.749 220.329 45.749 220.329 51.903 187.462 51.903 187.462 46.819 181.534 46.819 181.534 41.735" stroke-linecap="round" stroke-linejoin="round"/>
    <polyline stroke="#7C93E4" points="174.769 50.832 183.824 50.832 183.824 58.229" stroke-linecap="round" stroke-linejoin="round"/>
    <path fill="#738BD7" d="M204.4699,83.4769 L204.4699,83.4769 C186.7339,65.7409 186.7339,36.9859 204.4699,19.2499 L204.4699,19.2499 L204.4699,19.2499 C222.2059,36.9859 222.2059,65.7409 204.4699,83.4769 L204.4699,83.4769 Z"/>
    <path stroke="#7C93E4" d="M204.4699,83.4769 L204.4699,83.4769 C186.7339,65.7409 186.7339,36.9859 204.4699,19.2499 L204.4699,19.2499 L204.4699,19.2499 C222.2059,36.9859 222.2059,65.7409 204.4699,83.4769 L204.4699,83.4769 L204.4699,83.4769 Z" stroke-linecap="round" stroke-linejoin="round"/>
    <path stroke="#7C93E4" d="M204.4699 50.96885L204.4699 50.96885C198.9659 45.46485 198.9659 36.54035 204.4699 31.03635L204.4699 31.03635 204.4699 31.03635C209.9739 36.54035 209.9739 45.46485 204.4699 50.96885L204.4699 50.96885 204.4699 50.96885zM191.30465 48.0041C191.30465 48.0041 198.35415 51.0631 200.80065 60.5426 203.24665 70.0221 199.60465 77.7346 199.60465 77.7346M217.63515 48.0041C217.63515 48.0041 210.58565 51.0631 208.13915 60.5426 205.69315 70.0221 209.33515 77.7346 209.33515 77.7346" stroke-linecap="round" stroke-linejoin="round"/>
    <path fill="#738BD7" d="M176.64245,0.1573 L176.64245,83.4768 C176.64245,83.4768 162.46095,68.2253 162.46095,43.8763 C162.46095,19.5273 176.64245,0.1573 176.64245,0.1573"/>
    <path stroke="#7C93E4" d="M176.64245,0.1573 L176.64245,83.4768 C176.64245,83.4768 162.46095,68.2253 162.46095,43.8763 C162.46095,19.5273 176.64245,0.1573 176.64245,0.1573 L176.64245,0.1573 Z" stroke-linecap="round" stroke-linejoin="round"/>
    <path stroke="#7C93E4" d="M172.52415,6.88865 L172.52415,58.22865 C172.52415,58.22865 162.46115,51.36815 162.46115,43.87615" stroke-linecap="round" stroke-linejoin="round"/>
    <path fill="#738BD7" d="M232.29735,0.1573 L232.29735,83.4768 C232.29735,83.4768 246.47885,68.2253 246.47885,43.8763 C246.47885,19.5273 232.29735,0.1573 232.29735,0.1573"/>
    <path stroke="#7C93E4" d="M232.29735,0.1573 L232.29735,83.4768 C232.29735,83.4768 246.47885,68.2253 246.47885,43.8763 C246.47885,19.5273 232.29735,0.1573 232.29735,0.1573 L232.29735,0.1573 Z" stroke-linecap="round" stroke-linejoin="round"/>
    <path stroke="#7C93E4" d="M236.4156,6.88865 L236.4156,58.22865 C236.4156,58.22865 246.4786,51.36815 246.4786,43.87615" stroke-linecap="round" stroke-linejoin="round"/>
    <polygon fill="#738BD7" points="1.104 91.504 11.104 91.504 11.104 45.004 1.104 45.004"/>
    <polygon stroke="#9CB4F7" points="1.104 91.504 11.104 91.504 11.104 45.004 1.104 45.004" stroke-linecap="round" stroke-linejoin="round"/>
    <polygon fill="#738BD7" points="28.897 73.283 -13.867 77.777 -16.689 50.925 26.075 46.431"/>
    <polygon stroke="#9CB4F7" points="28.897 73.283 -13.867 77.777 -16.689 50.925 26.075 46.431" stroke-linecap="round" stroke-linejoin="round"/>
    <path stroke="#9CB4F7" d="M6.56355,70.6901 L14.75205,62.8256 C15.16155,62.4321 15.16155,61.7766 14.75205,61.3831 L6.56355,53.5186 C5.92805,52.9081 4.87105,53.3586 4.87105,54.2396 L4.87105,56.6226 C4.87105,57.1746 4.42305,57.6226 3.87105,57.6226 L-1.85145,57.6226 C-2.40345,57.6226 -2.85145,58.0701 -2.85145,58.6226 L-2.85145,65.5861 C-2.85145,66.1381 -2.40345,66.5861 -1.85145,66.5861 L3.87105,66.5861 C4.42305,66.5861 4.87105,66.5336 4.87105,67.0861 L4.87105,69.9691 C4.87105,70.8501 5.92805,71.3006 6.56355,70.6901 L6.56355,70.6901 Z" stroke-linecap="round" stroke-linejoin="round"/>
    <path fill="#738BD7" d="M560.812 93.8273L555.0105 68.6883C555.0085 68.6778 555.001 68.6698 554.998 68.6598 554.9955 68.6508 554.9975 68.6413 554.994 68.6323 554.9875 68.6138 554.9735 68.6008 554.9645 68.5838 554.949 68.5528 554.933 68.5233 554.9115 68.4963 554.893 68.4738 554.8725 68.4558 554.851 68.4368 554.8355 68.4238 554.3245 67.4058 554.3075 67.3943L543.6885 60.4958C543.6775 60.4888 543.665 60.9873 543.654 60.9813 543.6305 60.9678 543.606 60.9588 543.5805 60.9498 543.5465 60.9378 543.513 60.9288 543.478 60.9248 543.465 60.9233 543.454 60.9158 543.4405 60.9153 543.423 60.9133 543.408 60.9213 543.391 60.9213 543.37 60.9223 543.3495 60.9243 543.3285 60.9283 543.2215 60.9448 543.13 60.9958 543.0615 61.0768 543.0595 61.0788 543.057 61.0798 543.0545 61.0823L535.5615 69.7438C535.549 69.7583 535.5465 69.7773 535.536 69.7928 535.5175 69.8198 535.4945 69.8423 535.481 69.8733 535.476 69.8858 535.4775 69.8988 535.4735 69.9113 535.465 69.9368 535.462 69.9623 535.458 69.9888 535.4515 70.0328 535.4495 70.0748 535.4545 70.1173 535.456 70.1308 535.451 70.1443 535.4535 70.1578L537.5865 80.5328 534.628 81.5438 530.957 77.9058C530.946 77.8933 530.932 78.3858 530.92 78.3748 530.9115 78.3668 530.4035 77.8603 530.3945 77.8533 530.356 77.8218 530.8145 78.2973 530.7695 78.2793 530.759 78.2753 530.7495 78.2703 530.739 78.2668 530.636 78.2338 530.524 78.2318 530.419 78.2723L524.6345 80.1898C524.626 80.1933 524.6195 80.1998 524.6115 80.2033 524.594 80.2108 524.5795 80.2218 524.5635 80.2313 524.527 80.2533 524.4945 80.2778 524.4655 80.3078 524.458 80.3153 524.448 80.3188 524.441 80.3268 524.435 80.3333 524.434 80.3418 524.4285 80.3488 524.401 80.3848 524.38 80.4238 524.363 80.4658 524.358 80.4788 524.35 80.4908 524.346 80.5043 524.3305 80.5568 524.322 80.6118 524.325 80.6693L525.0505 93.2388C525.066 93.5053 525.3 93.7133 525.561 93.6933 525.8275 93.6783 526.031 93.4498 526.016 93.1828L535.2555 94.6408C535.3415 94.8073 535.5105 94.9028 535.686 94.9028 535.76 94.9028 535.836 94.8858 535.907 94.8488 536.144 94.7268 536.2375 94.4353 536.115 94.1978 536.115 94.1978 542.937 92.7953 542.937 93.4523 542.937 93.7173 543.1505 93.9288 543.4155 93.9318L543.4205 93.9318C543.683 93.9318 543.898 93.7173 543.904 93.4543 543.915 92.9398 550.453 94.3238 550.453 94.3238 550.5185 94.5298 550.7085 94.6608 550.9135 94.6608 550.962 94.6608 551.0115 94.6538 551.0605 94.6383 551.315 94.5573 551.4555 94.2853 551.3745 94.0313L556.573 93.0213C556.6685 93.1458 556.812 93.2108 556.957 93.2108 557.0595 93.2108 557.163 93.1783 557.251 93.1113 557.463 92.9488 557.503 92.6453 557.3405 92.4333L559.8695 94.0443C559.9215 94.2683 560.1205 94.4193 560.3405 94.4193 560.3765 94.4193 560.413 94.4158 560.4495 94.4073 560.71 94.3473 560.872 94.0873 560.812 93.8273M572.7541 91.39135C573.1076 91.49985 573.4966 91.59385 573.9756 91.68685L574.1691 91.72435 574.1896 92.17385 576.9566 92.17385 577.0466 91.99935 577.2036 92.00385C578.0386 92.02685 578.8881 92.01985 579.7091 92.01385 580.2006 92.00985 580.6871 92.00635 581.1686 92.00885L581.4706 92.01035 581.4381 92.17385 581.9511 92.17385 581.9826 92.01435 582.1911 92.01785C585.2176 92.06785 588.2951 92.08535 591.2711 92.10235L591.6491 92.10435C592.6146 92.10985 593.5796 92.11135 594.5456 92.11335L596.3556 92.11785 596.3496 92.17385 596.8511 92.17385 596.8566 92.11935 599.3726 92.12685 599.3881 92.17385 602.1461 92.16835 602.2046 92.13385 620.1081 92.14785 620.0831 92.17385 620.7646 92.17385 620.8966 92.14885 632.5696 92.16335 632.5626 92.17385 633.2786 92.16985 633.5271 92.17385 649.1376 92.17385C649.3576 91.57835 649.5736 91.05435 649.7961 90.57785 649.8431 90.44135 649.8941 90.29685 649.9491 90.14885L649.9971 89.87635 657.8901 66.16635 658.8881 55.85985C658.8951 55.78335 658.8686 55.70935 658.8136 55.65585 658.7606 55.60385 658.6841 55.58085 658.6101 55.58685L650.3911 56.59385C650.3611 56.60435 650.3361 56.61635 650.3186 56.63035L645.0226 60.74185 648.0481 41.70285 648.0471 41.69585 648.0551 41.65435 648.0531 41.58885 642.3866 6.78635C642.3816 6.76235 642.3716 6.73735 642.3566 6.70935 642.3311 6.67285 642.3181 6.65785 642.3041 6.64485 642.2751 6.62185 642.2551 6.60785 642.2386 6.59885L642.1636 6.58085C642.1541 6.57985 642.1426 6.57985 642.1296 6.58085 642.0841 6.58735 642.0666 6.59235 642.0461 6.60035 641.9936 6.62485 641.9726 6.63935 641.9576 6.65535L617.4601 32.65235 617.4376 32.68985C617.4256 32.70635 617.4161 32.72485 617.4096 32.74285L617.3856 32.81835 614.8881 49.61035 611.9741 46.97535C611.9291 46.93435 611.8701 46.91235 611.8071 46.91185 611.7921 46.91685 611.7776 46.92035 611.7631 46.92235 611.7391 46.92685 611.7111 46.93185 611.7026 46.93585L611.6181 46.99585 608.6256 50.03385 607.1351 30.46285C607.1186 30.41235 607.1116 30.38685 607.1066 30.37785L607.0551 30.30685 588.9836 12.98435 578.6106 2.81535C578.5961 2.80085 578.5776 2.78785 578.5561 2.77585 578.5216 2.75985 578.4951 2.75185 578.4691 2.74785 578.4466 2.74485 578.4306 2.74335 578.4171 2.74435L578.3491 2.76135C578.3396 2.76685 578.3271 2.77485 578.3176 2.78085L578.2516 2.81835C578.2536 2.82035 578.2311 2.84885 578.2136 2.88285L578.1916 2.92285 569.5796 21.22035 563.5666 41.56085C563.5756 41.53735 563.5746 41.56085 563.5701 41.58435 563.5636 41.61935 563.5621 41.63985 563.5636 41.65635L563.5666 41.68685 563.5646 41.70235 571.5591 91.19985C571.5791 91.32185 571.6826 91.41035 571.8061 91.41035 571.9171 91.39585 571.9666 91.35135 571.9956 91.31635L572.1041 91.18435 572.2661 91.23685C572.3516 91.26535 572.4256 91.27985 572.4966 91.28335L572.5101 91.28385 572.5116 91.28385 572.5116 91.29485C572.5356 91.29985 572.5626 91.30685 572.5891 91.31635L572.7046 91.36385 572.6106 91.59635 572.6106 91.59635 572.7541 91.39135z"/>
    <polyline stroke="#9CB4F7" points="611.806 47.16 612.64 61.327 601.14 57.994" stroke-linecap="round" stroke-linejoin="round"/>
    <polyline stroke="#9CB4F7" points="612.639 61.327 616.306 83.524 600.53 76.162" stroke-linecap="round" stroke-linejoin="round"/>
    <path stroke="#9CB4F7" d="M618.80615 53.49355L616.30615 83.52405 599.97265 93.16005C599.97265 92.66005 601.13965 57.99355 601.13965 57.99355L611.80615 47.16005 618.80615 53.49355 623.30615 70.16005 626.82815 86.10605M616.30615 83.5241L623.86265 88.4921" stroke-linecap="round" stroke-linejoin="round"/>
    <path stroke="#9CB4F7" d="M620.7795,93.16025 C621.113,92.66025 625.6395,86.59225 625.6395,86.59225 L633.1395,83.52425 L633.1395,91.66025 L632.946,93.16025" stroke-linecap="round" stroke-linejoin="round"/>
    <polyline stroke="#9CB4F7" points="600.203 86.008 586.973 47.16 577.139 43.994 573.473 48.66 579.306 77.16 591.806 74.16 583.473 55.344" stroke-linecap="round" stroke-linejoin="round"/>
    <polyline stroke="#9CB4F7" points="574.616 54.244 573.473 70.16 574.616 96.176 579.306 77.16" stroke-linecap="round" stroke-linejoin="round"/>
    <polyline stroke="#9CB4F7" points="591.806 74.16 597.306 84.994 585.124 75.764 574.616 96.176" stroke-linecap="round" stroke-linejoin="round"/>
    <path stroke="#9CB4F7" d="M585.1244,75.76385 C584.5999,76.59035 581.5059,93.16035 581.5059,93.16035" stroke-linecap="round" stroke-linejoin="round"/>
    <polyline stroke="#9CB4F7" points="596.306 92.66 597.306 84.994 599.973 93.16" stroke-linecap="round" stroke-linejoin="round"/>
    <polyline stroke="#9CB4F7" points="608.418 50.601 606.889 30.494 588.806 13.16 578.435 2.994 569.806 21.327 563.806 41.632 571.806 91.16" stroke-linecap="round" stroke-linejoin="round"/>
    <polyline stroke="#9CB4F7" points="569.806 21.327 567.806 50.493 563.806 41.631" stroke-linecap="round" stroke-linejoin="round"/>
    <polyline stroke="#9CB4F7" points="578.064 3.782 574.616 19.994 567.806 50.494 574.537 55.343" stroke-linecap="round" stroke-linejoin="round"/>
    <polyline stroke="#9CB4F7" points="574.616 19.994 596.806 36.41 606.89 30.494" stroke-linecap="round" stroke-linejoin="round"/>
    <polyline stroke="#9CB4F7" points="595.139 56.327 596.806 36.41 584.961 46.334" stroke-linecap="round" stroke-linejoin="round"/>
    <path stroke="#9CB4F7" d="M582.30615 15.91215L578.43515 2.99365M582.30615 15.91215L596.80615 36.41015" stroke-linecap="round" stroke-linejoin="round"/>
    <polyline stroke="#9CB4F7" points="606.889 52.154 602.973 45.494 591.797 61.327" stroke-linecap="round" stroke-linejoin="round"/>
    <polyline stroke="#9CB4F7" points="617.639 32.827 628.473 41.631 627.271 66.158" stroke-linecap="round" stroke-linejoin="round"/>
    <polyline stroke="#9CB4F7" points="623.863 71.494 640.973 45.494 644.677 61.327 650.473 56.827 658.639 55.835 657.639 66.159 648.639 93.16" stroke-linecap="round" stroke-linejoin="round"/>
    <polyline stroke="#9CB4F7" points="640.973 45.494 637.139 66.159 625.232 78.88" stroke-linecap="round" stroke-linejoin="round"/>
    <polyline stroke="#9CB4F7" points="650.473 56.827 652.139 62.327 657.639 66.158" stroke-linecap="round" stroke-linejoin="round"/>
    <polyline stroke="#9CB4F7" points="658.139 56.835 651.639 63.327 642.001 78.327" stroke-linecap="round" stroke-linejoin="round"/>
    <polyline stroke="#9CB4F7" points="647.806 41.632 633.806 45.494 628.473 41.632" stroke-linecap="round" stroke-linejoin="round"/>
    <polyline stroke="#9CB4F7" points="633.806 45.494 642.14 6.827 628.473 41.632 623.863 26.223" stroke-linecap="round" stroke-linejoin="round"/>
    <polyline stroke="#9CB4F7" points="637.139 66.159 639.139 96.175 647.806 41.632 642.139 6.827 617.639 32.827 615.066 50.109" stroke-linecap="round" stroke-linejoin="round"/>
    <polyline stroke="#9CB4F7" points="573.473 48.66 583.473 55.343 586.973 47.16" stroke-linecap="round" stroke-linejoin="round"/>
    <polyline stroke="#9CB4F7" points="560.949 93.985 554.949 67.985 543.449 60.333 535.699 69.291 537.949 80.235" stroke-linecap="round" stroke-linejoin="round"/>
    <path stroke="#9CB4F7" d="M543.4494,93.4848 C543.4494,92.7348 545.9494,77.7343 545.9494,77.7343 L534.1994,81.7498 L530.6994,77.7343 L524.1994,80.2348 L524.9494,93.2348" stroke-linecap="round" stroke-linejoin="round"/>
    <polyline stroke="#9CB4F7" points="535.699 69.291 542.949 72.333 554.949 67.985" stroke-linecap="round" stroke-linejoin="round"/>
    <polyline stroke="#9CB4F7" points="551.199 94.235 545.949 77.734 542.949 72.333 543.449 60.333" stroke-linecap="round" stroke-linejoin="round"/>
    <polyline stroke="#9CB4F7" points="557.449 92.735 545.949 77.734 531.97 85.082" stroke-linecap="round" stroke-linejoin="round"/>
    <polyline stroke="#9CB4F7" points="530.699 77.734 531.199 86.235 524.199 80.235" stroke-linecap="round" stroke-linejoin="round"/>
    <polyline stroke="#9CB4F7" points="534.199 81.75 531.199 86.235 535.449 94.485" stroke-linecap="round" stroke-linejoin="round"/>
    <path fill="#738BD7" d="M420.4105,25.2467 C420.4105,37.5747 410.4165,47.5687 398.0885,47.5687 C385.7605,47.5687 375.7665,37.5747 375.7665,25.2467 C375.7665,12.9187 385.7605,2.9247 398.0885,2.9247 C410.4165,2.9247 420.4105,12.9187 420.4105,25.2467 L420.4105,25.2467 Z"/>
    <path stroke="#7C93E4" d="M420.4105,25.2467 C420.4105,37.5747 410.4165,47.5687 398.0885,47.5687 C385.7605,47.5687 375.7665,37.5747 375.7665,25.2467 C375.7665,12.9187 385.7605,2.9247 398.0885,2.9247 C410.4165,2.9247 420.4105,12.9187 420.4105,25.2467 L420.4105,25.2467 Z" stroke-linecap="round" stroke-linejoin="round"/>
    <path fill="#738BD7" d="M415.2021,25.2467 C415.2021,34.6982 407.5401,42.3602 398.0886,42.3602 C388.6371,42.3602 380.9751,34.6982 380.9751,25.2467 C380.9751,15.7952 388.6371,8.1332 398.0886,8.1332 C407.5401,8.1332 415.2021,15.7952 415.2021,25.2467"/>
    <path stroke="#7C93E4" d="M415.2021 25.2467C415.2021 34.6982 407.5401 42.3602 398.0886 42.3602 388.6371 42.3602 380.9751 34.6982 380.9751 25.2467 380.9751 15.7952 388.6371 8.1332 398.0886 8.1332 407.5401 8.1332 415.2021 15.7952 415.2021 25.2467L415.2021 25.2467zM398.0374 58.34975L398.0374 38.92775" stroke-linecap="round" stroke-linejoin="round"/>
    <polygon fill="#738BD7" points="415.916 1.416 421.273 1.416 421.273 -3.942 415.916 -3.942"/>
    <polygon stroke="#7C93E4" points="415.916 1.416 421.273 1.416 421.273 -3.942 415.916 -3.942" stroke-linecap="round" stroke-linejoin="round"/>
    <polygon fill="#738BD7" points="368.494 60.205 373.851 60.205 373.851 54.847 368.494 54.847"/>
    <polygon stroke="#7C93E4" points="368.494 60.205 373.851 60.205 373.851 54.847 368.494 54.847" stroke-linecap="round" stroke-linejoin="round"/>
    <polygon fill="#738BD7" points="378.683 51.764 381.808 51.764 381.808 48.639 378.683 48.639"/>
    <polygon stroke="#7C93E4" points="378.683 51.764 381.808 51.764 381.808 48.639 378.683 48.639" stroke-linecap="round" stroke-linejoin="round"/>
    <polygon fill="#738BD7" points="419.995 48.412 423.12 48.412 423.12 45.287 419.995 45.287"/>
    <polygon stroke="#7C93E4" points="419.995 48.412 423.12 48.412 423.12 45.287 419.995 45.287" stroke-linecap="round" stroke-linejoin="round"/>
    <polygon fill="#738BD7" points="356.624 6.949 358.41 6.949 358.41 5.163 356.624 5.163"/>
    <polygon stroke="#7C93E4" points="356.624 6.949 358.41 6.949 358.41 5.163 356.624 5.163" stroke-linecap="round" stroke-linejoin="round"/>
    <polygon fill="#738BD7" points="409.304 57.28 411.09 57.28 411.09 55.494 409.304 55.494"/>
    <polygon stroke="#7C93E4" points="409.304 57.28 411.09 57.28 411.09 55.494 409.304 55.494" stroke-linecap="round" stroke-linejoin="round"/>
    <polygon fill="#738BD7" points="367.792 30.732 369.577 30.732 369.577 28.945 367.792 28.945"/>
    <polygon stroke="#7C93E4" points="367.792 30.732 369.577 30.732 369.577 28.945 367.792 28.945" stroke-linecap="round" stroke-linejoin="round"/>
    <polygon fill="#738BD7" points="425.693 12.477 427.479 12.477 427.479 10.691 425.693 10.691"/>
    <polygon stroke="#7C93E4" points="425.693 12.477 427.479 12.477 427.479 10.691 425.693 10.691" stroke-linecap="round" stroke-linejoin="round"/>
    <polygon fill="#738BD7" points="373.43 9.976 375.216 9.976 375.216 8.19 373.43 8.19"/>
    <polygon stroke="#7C93E4" points="373.43 9.976 375.216 9.976 375.216 8.19 373.43 8.19" stroke-linecap="round" stroke-linejoin="round"/>
    <path fill="#738BD7" d="M411.9828,22.5331 C413.1183,22.5476 442.1298,24.1996 441.1658,24.3406 L411.9828,27.3256"/>
    <path stroke="#7C93E4" d="M411.9828,22.5331 C413.1183,22.5476 442.1298,24.1996 441.1658,24.3406 L411.9828,27.3256" stroke-linecap="round" stroke-linejoin="round"/>
    <path fill="#738BD7" d="M386.724,22.5331 C385.5885,22.5476 356.577,24.1996 357.541,24.3406 L386.724,27.3256"/>
    <path stroke="#7C93E4" d="M386.724,22.5331 C385.5885,22.5476 356.577,24.1996 357.541,24.3406 L386.724,27.3256" stroke-linecap="round" stroke-linejoin="round"/>
    <path fill="#738BD7" d="M196.60505,91.20845 L186.12855,56.68345 L186.12855,54.13895 C186.12855,54.08195 186.11855,54.02545 186.09955,53.97145 L182.32755,43.35895 C182.32555,43.35345 182.32155,43.34895 182.31955,43.34395 C182.31405,43.32895 182.30505,43.31695 182.29805,43.30295 C182.27805,43.26445 182.25505,43.22895 182.22605,43.19645 C182.21305,43.18195 182.20055,43.16945 182.18605,43.15645 C182.17455,43.14595 182.16605,43.13295 182.15355,43.12395 L179.65505,41.27995 L177.70905,36.31445 C177.67555,36.22845 177.61855,36.15395 177.54505,36.09795 L172.61755,32.37645 C172.53105,32.31095 172.42505,32.27545 172.31655,32.27545 L167.30805,32.27545 L164.14355,29.37445 C164.08105,29.31745 164.00555,29.27745 163.92305,29.25745 C163.38255,29.12645 162.88105,29.06095 162.40655,29.03445 C161.92955,28.02795 160.15555,24.63445 157.50555,23.62495 C154.53755,22.49395 152.02005,22.07445 150.02205,22.37845 C148.77405,22.56845 147.71205,23.39895 147.18105,24.59895 C146.37205,26.42795 145.59955,29.19795 146.51455,32.00795 L146.83905,33.01245 C147.93105,36.41345 148.33955,37.68595 150.84955,37.68595 C151.53455,37.68595 152.30405,37.74995 153.07055,37.86945 L156.01655,49.11995 L156.01655,49.11995 L159.69205,63.26945 C159.70255,63.31045 159.71855,63.34995 159.73905,63.38645 C159.79855,63.49445 161.23055,66.03495 163.48555,66.91795 C163.55305,66.94445 163.62905,66.97545 163.70555,67.00645 L167.26205,78.67395 C168.05155,81.26295 169.79605,83.40245 172.17455,84.69645 L173.37755,85.35045 L175.32005,91.50395 C175.38555,91.71195 175.57855,91.85345 175.79655,91.85345 L196.12655,91.85345 C196.28505,91.85345 196.43405,91.77845 196.52805,91.65145 C196.62255,91.52445 196.65105,91.35995 196.60505,91.20845"/>
    <polyline stroke="#9CB4F7" points="196.127 91.353 185.629 56.758 185.629 54.139 181.857 43.526 179.243 41.597 177.244 36.497 172.317 32.775 162.841 32.775 168.836 37.186 171.386 44.077 173.592 45.869 176.762 55.242 176.762 57.723 181.034 72.608" stroke-linecap="round" stroke-linejoin="round"/>
    <polyline stroke="#9CB4F7" points="165.979 32.775 170.907 36.497 172.905 41.596 175.519 43.526 179.291 54.139 179.291 56.758 189.789 91.353" stroke-linecap="round" stroke-linejoin="round"/>
    <path stroke="#9CB4F7" d="M184.9935 86.1157L186.5105 91.3532M167.11335 32.7754L163.80535 29.7429C159.25685 28.6404 157.32735 31.8529 157.32735 31.8529L162.07585 38.2884 160.22185 42.0099 175.79685 91.3534" stroke-linecap="round" stroke-linejoin="round"/>
    <path stroke="#9CB4F7" d="M162.07585,29.5127 C162.07585,29.5127 160.22185,25.1947 157.32735,24.0922 C155.05335,23.2257 152.35335,22.5297 150.09735,22.8727 C149.00235,23.0392 148.08685,23.7882 147.63835,24.8012 C146.93535,26.3902 146.09935,29.1192 146.99035,31.8527 C148.36835,36.0832 148.50635,37.1862 150.84935,37.1862 C153.19235,37.1862 157.87885,38.0132 158.01635,40.0802 C158.01635,40.0802 158.88935,43.6642 158.24635,44.3072 C158.24635,44.3072 156.04085,46.5127 156.50035,48.9932 L160.17585,63.1442 C160.17585,63.1442 161.55435,65.6252 163.66735,66.4517 C165.78085,67.2787 168.72135,68.9377 169.50685,71.4267" stroke-linecap="round" stroke-linejoin="round"/>
    <path stroke="#9CB4F7" d="M164.11525,66.6352 L167.74075,78.5277 C168.48675,80.9762 170.16525,83.0337 172.41375,84.2567 L173.79375,85.0072" stroke-linecap="round" stroke-linejoin="round"/>
    <polygon stroke="#9CB4F7" points="164.615 43.48 172.254 69.025 176.297 69.025 168.394 43.48" stroke-linecap="round" stroke-linejoin="round"/>
    <path stroke="#9CB4F7" d="M158.209 41.8008C158.209 41.8008 157.8625 41.4498 157.0435 41.5083L156.2245 41.5668 156.517 42.6198C156.517 42.6198 158.0985 42.2688 158.4775 43.2043M182.9924 75.7588L180.4314 77.5663M183.67025 77.97855L181.10925 79.78605M184.34815 80.1983L181.78715 82.0058M185.026 82.19205L182.465 83.99955M175.5192 43.52615L181.8567 43.52615M172.90505 41.59655L179.24255 41.59655M179.2913 54.1391L185.6288 54.1391M179.2913 56.75785L185.6288 56.75785M152.56265 22.8558C152.56265 22.8558 148.87365 26.3893 149.79265 31.1668 150.37815 34.2118 151.32665 37.1228 152.34115 37.2458M162.07585 47.88385C162.07585 47.88385 159.53285 48.99335 160.08385 50.37185 160.63535 51.74985 163.28835 51.72485 163.28835 51.72485M164.71735 56.2525C164.71735 56.2525 162.65685 56.62 162.84085 58.274 163.02435 59.928 165.97885 60.25 165.97885 60.25M156.5004 48.99345L153.4729 37.43245" stroke-linecap="round" stroke-linejoin="round"/>
    <path fill="#738BD7" d="M158.03015,82.32775 L158.02965,82.24125 C158.00015,80.47825 156.71315,79.00275 155.02815,78.64525 C155.04615,78.60025 155.05715,78.55175 155.05315,78.49975 C154.80365,75.23525 153.84215,72.67275 152.53915,70.66175 C152.53715,70.65625 152.53815,70.65075 152.53565,70.64575 C147.23115,59.14875 133.12365,59.01525 132.98165,59.01525 C119.86415,59.01525 113.10065,64.30125 109.73665,68.73575 C106.55765,72.92675 105.74715,77.06325 105.57715,78.19425 L104.79215,78.19425 C104.72465,78.19425 103.12715,78.22725 102.32465,81.08075 C101.61415,83.60725 100.78315,89.66275 101.51415,91.30775 C101.56715,91.42725 101.68565,91.50375 101.81615,91.50375 L158.06565,91.50375 C158.15665,91.50375 158.24415,91.46625 158.30665,91.39975 C158.36915,91.33375 158.40115,91.24475 158.39565,91.15325 C158.39215,91.09225 158.03015,85.01475 158.03015,82.32775"/>
    <path stroke="#9CB4F7" d="M154.22735,85.46925 C154.22735,85.46925 154.55785,66.04225 140.17385,66.04225 C125.78985,66.04225 118.51485,72.98625 115.37335,79.93075" stroke-linecap="round" stroke-linejoin="round"/>
    <path stroke="#9CB4F7" d="M113.47225,78.5252 C113.47225,78.5252 117.51175,64.9102 136.33675,63.5832 C139.72375,63.3447 143.13725,63.9627 146.16975,65.4907 C150.01575,67.4292 154.16375,71.2057 154.72325,78.5252" stroke-linecap="round" stroke-linejoin="round"/>
    <path stroke="#9CB4F7" d="M105.86685 78.5252C105.86685 78.5252 107.85085 59.3462 132.98185 59.3462 132.98185 59.3462 146.95835 59.3462 152.23535 70.7842M118.01895 85.46925L115.84495 80.66325C115.25595 79.36175 113.87645 79.00475 112.53095 78.52525 112.06695 78.35975 109.66945 78.52525 109.66945 78.52525M119.1763 88.1146L119.7548 88.1146M104.4615 82.98925L110.023 82.98925C110.665 82.98925 111.2485 83.36075 111.5205 83.94225L113.0265 87.16175C113.2985 87.74325 113.8825 88.11475 114.524 88.11475L117.6055 88.11475" stroke-linecap="round" stroke-linejoin="round"/>
    <path stroke="#9CB4F7" d="M101.8161 91.1733C101.1546 89.6853 101.8986 83.8158 102.6426 81.1703 103.3866 78.5253 104.7921 78.5253 104.7921 78.5253L110.4641 78.5253C111.8931 78.5253 113.1891 79.3618 113.7781 80.6633L115.4246 84.3028C115.7461 85.0128 116.4531 85.4693 117.2321 85.4693L134.0976 85.4693 135.2966 83.8158 146.8701 83.8158 148.2751 85.4693 155.7981 85.4693M153.48195 78.8922L154.24145 78.8922C156.11145 78.8922 157.66795 80.3767 157.69895 82.2467 157.69895 82.2737 157.69945 82.3007 157.69945 82.3277 157.69945 85.0557 158.06595 91.1732 158.06595 91.1732" stroke-linecap="round" stroke-linejoin="round"/>
    <path stroke="#9CB4F7" d="M120.5231 72.7454C120.5231 72.7454 121.8216 73.7304 122.9791 75.1359 124.1366 76.5414 127.3606 78.4519 127.3606 78.4519 127.3606 78.4519 129.5096 75.1359 131.2456 75.7559 132.9816 76.3759 134.4696 78.4519 134.4696 78.4519L134.4696 81.4184 136.4541 83.8159M145.38195 83.8159L147.69645 81.5014 147.69645 78.2804C147.69645 78.2804 148.02745 75.3839 148.85395 75.0529 149.68045 74.7224 150.34195 76.3759 150.34195 76.3759L152.00695 74.2674" stroke-linecap="round" stroke-linejoin="round"/>
    <polyline stroke="#9CB4F7" points="131.14 67.111 136.454 71.664 134.801 74.805 125.288 69.362" stroke-linecap="round" stroke-linejoin="round"/>
    <path stroke="#9CB4F7" d="M146.00055 67.3724C145.69855 67.2204 143.37555 71.0294 143.37555 71.0294L145.38205 73.3999 149.02505 69.8449M136.45385 83.8159L136.45385 91.1734M147.5313 87.54395C147.3248 87.75045 147.5313 91.17345 147.5313 91.17345M139.42985 86.5519L144.88185 86.5519M139.42985 88.8586L144.88185 88.8586" stroke-linecap="round" stroke-linejoin="round"/>
    <polygon stroke="#9CB4F7" points="139.43 74.23 140.252 73.73 140.252 78.525 138.43 78.525" stroke-linecap="round" stroke-linejoin="round"/>
    <polygon stroke="#9CB4F7" points="142.406 73.73 142.406 78.28 143.811 79.041 143.811 75.136" stroke-linecap="round" stroke-linejoin="round"/>
    <path stroke="#9CB4F7" d="M-80.5,91.50405 L869.5,91.50405" stroke-linecap="round" stroke-linejoin="round"/>
    <use fill="url(#b)" xlink:href="#a"/>
  </g>
</svg>
