<?xml version="1.0" encoding="UTF-8" standalone="no"?>
<svg width="22px" height="22px" viewBox="0 0 22 22" version="1.1" xmlns="http://www.w3.org/2000/svg" xmlns:xlink="http://www.w3.org/1999/xlink" xmlns:sketch="http://www.bohemiancoding.com/sketch/ns">
    <!-- Generator: Sketch 3.5.2 (25235) - http://www.bohemiancoding.com/sketch -->
    <title>emoji-nature-color</title>
    <desc>Created with Sketch.</desc>
    <defs>
        <path id="path-1" d="M0,0.912 L16.46,0.912 L16.46,18 L0,18"></path>
    </defs>
    <g id="General-Playground" stroke="none" stroke-width="1" fill="none" fill-rule="evenodd" sketch:type="MSPage">
        <g id="emoji-nature-color" sketch:type="MSArtboardGroup">
            <g id="Page-1" sketch:type="MSLayerGroup" transform="translate(3.000000, 2.000000)">
                <path d="M11.8973,11.0015 C12.5523,11.0015 13.1523,11.2165 13.6463,11.5725 C14.8423,9.3055 15.1983,6.5495 14.2623,3.7425 L14.2613,3.7385 L14.2573,3.7375 C6.3923,1.1155 -1.0897,8.5975 1.5323,16.4625 L1.5333,16.4665 L1.5373,16.4675 C4.3973,17.4215 7.2043,17.0335 9.4953,15.7825 C9.1243,15.2835 8.8973,14.6715 8.8973,14.0015 C8.8973,12.3445 10.2403,11.0015 11.8973,11.0015" id="Fill-1" fill="#A9E563" sketch:type="MSShapeGroup"></path>
                <g id="Group-5">
                    <mask id="mask-2" sketch:name="Clip 4" fill="white">
                        <use xlink:href="#path-1"></use>
                    </mask>
                    <g id="Clip-4"></g>
                    <path d="M11.0251,2.2034 L11.0241,2.2034 C7.5161,2.2034 4.1721,3.9374 2.0781,6.8424 C-0.0109,9.7404 -0.5559,13.3624 0.5831,16.7784 L0.7421,17.2534 L1.2181,17.4154 C2.3831,17.8034 3.5741,18.0004 4.7611,18.0004 C6.5671,18.0004 8.3701,17.5364 9.9751,16.6604 L10.9841,16.1094 L10.2981,15.1864 C10.0361,14.8334 9.8971,14.4234 9.8971,14.0014 C9.8971,12.8984 10.7941,12.0014 11.8971,12.0014 C12.3121,12.0014 12.7141,12.1334 13.0611,12.3834 L13.9931,13.0564 L14.5301,12.0394 C15.9341,9.3784 16.1761,6.3204 15.2111,3.4264 L15.0531,2.9514 L14.5761,2.7894 C13.4091,2.4004 12.2151,2.2034 11.0251,2.2034 M11.0251,3.2034 C12.0771,3.2034 13.1641,3.3724 14.2571,3.7374 L14.2611,3.7384 L14.2631,3.7424 C15.1981,6.5494 14.8421,9.3054 13.6461,11.5724 C13.1531,11.2164 12.5521,11.0014 11.8971,11.0014 C10.2401,11.0014 8.8971,12.3444 8.8971,14.0014 C8.8971,14.6714 9.1241,15.2834 9.4951,15.7824 C8.0781,16.5564 6.4641,17.0004 4.7611,17.0004 C3.7121,17.0004 2.6281,16.8314 1.5381,16.4674 L1.5331,16.4664 L1.5321,16.4624 C-0.7249,9.6904 4.5071,3.2024 11.0251,3.2034" id="Fill-3" fill="#282B2E" sketch:type="MSShapeGroup" mask="url(#mask-2)"></path>
                </g>
                <path d="M16.4598,0.912 L15.4348,0.912 C13.7708,4.955 5.7288,9.623 5.6478,9.669 L6.1468,10.536 C6.4898,10.339 14.5648,5.65 16.3598,1.293 C16.3598,1.293 16.4308,1.146 16.4598,0.912" id="Fill-6" fill="#282B2E" sketch:type="MSShapeGroup"></path>
            </g>
        </g>
    </g>
</svg>