<?xml version="1.0" encoding="UTF-8" standalone="no"?>
<svg width="22px" height="22px" viewBox="0 0 22 22" version="1.1" xmlns="http://www.w3.org/2000/svg" xmlns:xlink="http://www.w3.org/1999/xlink" xmlns:sketch="http://www.bohemiancoding.com/sketch/ns">
    <!-- Generator: Sketch 3.5.2 (25235) - http://www.bohemiancoding.com/sketch -->
    <title>emoji-custom-color</title>
    <desc>Created with Sketch.</desc>
    <defs></defs>
    <g id="General-Playground" stroke="none" stroke-width="1" fill="none" fill-rule="evenodd" sketch:type="MSPage">
        <g id="emoji-custom-color" sketch:type="MSArtboardGroup">
            <g id="Page-1" sketch:type="MSLayerGroup" transform="translate(3.000000, 3.000000)">
                <path d="M14.475,15 L1.525,15 C1.235,15 1,14.765 1,14.475 L1,1.525 C1,1.235 1.235,1 1.525,1 L14.475,1 C14.765,1 15,1.235 15,1.525 L15,14.475 C15,14.765 14.765,15 14.475,15" id="Fill-1" fill="#FFD655" sketch:type="MSShapeGroup"></path>
                <path d="M14.475,0 L1.525,0 C0.684,0 0,0.684 0,1.525 L0,14.475 C0,15.316 0.684,16 1.525,16 L14.475,16 C15.316,16 16,15.316 16,14.475 L16,1.525 C16,0.684 15.316,0 14.475,0 M14.475,1 C14.765,1 15,1.235 15,1.525 L15,14.475 C15,14.765 14.765,15 14.475,15 L1.525,15 C1.235,15 1,14.765 1,14.475 L1,1.525 C1,1.235 1.235,1 1.525,1 L14.475,1" id="Fill-3" fill="#282B2E" sketch:type="MSShapeGroup"></path>
                <path d="M4,3 C4,3.552 3.552,4 3,4 C2.448,4 2,3.552 2,3 C2,2.448 2.448,2 3,2 C3.552,2 4,2.448 4,3" id="Fill-5" fill="#CEA236" sketch:type="MSShapeGroup"></path>
                <path d="M4,13 C4,13.552 3.552,14 3,14 C2.448,14 2,13.552 2,13 C2,12.448 2.448,12 3,12 C3.552,12 4,12.448 4,13" id="Fill-7" fill="#CEA236" sketch:type="MSShapeGroup"></path>
                <path d="M14,13 C14,13.552 13.552,14 13,14 C12.448,14 12,13.552 12,13 C12,12.448 12.448,12 13,12 C13.552,12 14,12.448 14,13" id="Fill-9" fill="#CEA236" sketch:type="MSShapeGroup"></path>
                <path d="M14,3 C14,3.552 13.552,4 13,4 C12.448,4 12,3.552 12,3 C12,2.448 12.448,2 13,2 C13.552,2 14,2.448 14,3" id="Fill-11" fill="#CEA236" sketch:type="MSShapeGroup"></path>
                <path d="M9,12 C9,12.552 8.552,13 8,13 C7.448,13 7,12.552 7,12 C7,11.448 7.448,11 8,11 C8.552,11 9,11.448 9,12 L9,12 Z M5.689,5.467 C5.607,5.397 5.593,5.272 5.662,5.19 C6.375,4.34 7.246,4 8.072,4 C11.465,4 12.117,8.559 8.927,9.165 C8.841,9.182 8.774,9.249 8.763,9.336 L8.676,10.047 C8.664,10.147 8.579,10.222 8.478,10.222 L7.312,10.222 C7.206,10.222 7.119,10.139 7.113,10.033 L7.022,8.256 C7.016,8.131 7.126,8.029 7.25,8.049 C7.497,8.089 7.697,8.089 7.794,8.089 C9.566,8.089 9.629,5.506 7.756,5.671 C7.415,5.704 7.074,5.852 6.799,6.156 C6.728,6.235 6.607,6.242 6.526,6.174 L5.689,5.467 Z" id="Fill-13" fill="#282B2E" sketch:type="MSShapeGroup"></path>
            </g>
        </g>
    </g>
</svg>