<svg xmlns="http://www.w3.org/2000/svg" width="148" height="176" viewBox="0 0 148 176" xmlns:xlink="http://www.w3.org/1999/xlink">
  <defs>
    <polygon id="a" points="0 171 140 171 140 .899 0 .899"/>
    <path id="c" d="M36.7492,6.38307845 C31.0067268,3.3765088 22.7787803,0.743 11.574,0.743 C7.50700843,0.743 3.7794263,1.19553783 0.3842,2.01484385 L0.3842,13.7978 L36.7492,13.7978 L36.7492,6.38307845 L36.7492,6.38307845 Z"/>
  </defs>
  <g fill="none" fill-rule="evenodd">
    <g transform="translate(4)">
      <g transform="translate(0 .101)">
        <path fill="#FF7B78" d="M47.0997,135.384 L32.6037,135.384 C31.3717,135.384 30.3727,134.385 30.3727,133.154 L30.3727,125.348 C30.3727,124.116 31.3717,123.118 32.6037,123.118 L47.0997,123.118 C48.3317,123.118 49.3297,124.116 49.3297,125.348 L49.3297,133.154 C49.3297,134.385 48.3317,135.384 47.0997,135.384 L47.0997,135.384 Z"/>
        <path fill="#4F5D7F" d="M109.7315,166.9194 C87.3445,177.1994 60.8635,167.3854 50.5825,144.9994 C40.3025,122.6124 50.1165,96.1314 72.5025,85.8504 C94.8895,75.5704 121.3715,85.3844 131.6515,107.7704 C141.9325,130.1574 132.1185,156.6394 109.7315,166.9194"/>
        <path fill="#AABFF2" d="M97.7811,77.9566 C94.3251,73.2566 88.7591,70.1916 82.5111,70.1916 L69.1041,70.1916 L67.5831,70.1916 L58.9561,70.1916 L58.9561,111.2576 L67.5831,111.2576 L101.4561,111.2576 L101.4561,89.1356 C101.4561,84.9636 100.0891,81.0956 97.7811,77.9566"/>
        <path fill="#8BA4E8" d="M63.7231,70.1913 L52.3131,70.1913 C47.4071,70.1913 43.3921,74.2053 43.3921,79.1123 L43.3921,98.4023 C43.3921,103.3283 47.3861,107.3223 52.3131,107.3223 L63.7231,107.3223 L63.7231,70.1913 Z"/>
        <mask id="b" fill="white">
          <use xlink:href="#a"/>
        </mask>
        <polygon fill="#2F3849" points="45.749 122.003 103.004 122.003 103.004 89.958 45.749 89.958" mask="url(#b)"/>
        <path fill="#B7C2CE" d="M67.4227,139.8444 L40.6597,139.8444 C36.9647,139.8444 33.9697,136.8494 33.9697,133.1534 L33.9697,119.7724 L67.4227,127.5784 L67.4227,139.8444 Z" mask="url(#b)"/>
        <path fill="#7687B2" d="M103.2135,152.726 C88.6655,159.407 71.4565,153.029 64.7765,138.481 C58.0955,123.934 64.4725,106.725 79.0205,100.044 C93.5685,93.363 110.7775,99.741 117.4585,114.289 C124.1385,128.836 117.7615,146.045 103.2135,152.726" mask="url(#b)"/>
        <path fill="#EF8843" d="M126.0069,156.5909 C119.1789,156.5909 102.7849,138.4139 93.7019,126.5439 C93.7519,115.7129 95.1939,88.7829 101.4209,82.5469 C102.3159,81.6499 102.9979,81.5469 103.4319,81.5469 C103.6839,81.5469 103.9559,81.5889 104.2419,81.6729 C117.5749,85.6009 128.0289,94.5379 133.6789,106.8399 C140.7909,122.3279 138.5069,140.6359 127.5689,155.8129 C127.1709,156.3659 126.7189,156.5909 126.0069,156.5909" mask="url(#b)"/>
        <path stroke="#E4E9F8" stroke-width="4" d="M79.8508,76.166 L97.1898,76.166 C98.5548,76.166 99.7818,76.995 100.2928,78.26 L112.1018,107.542" stroke-linecap="round" stroke-linejoin="round" mask="url(#b)"/>
        <path fill="#FC964B" d="M91.4703,127.2942 C91.4703,127.2942 117.6173,84.7002 122.9063,89.1262 C128.1963,93.5512 132.6133,99.1762 135.7053,105.9092 C143.7213,123.3662 139.8933,142.5262 129.3783,157.1172 C121.9203,167.4662 91.4703,127.2942 91.4703,127.2942" mask="url(#b)"/>
        <path fill="#DAE2ED" d="M132.9992,151.1822 C131.5732,151.7342 129.6352,151.8572 127.0552,150.9012 C116.5812,147.0192 100.0612,126.5822 95.4882,120.7342 C91.6872,123.7882 89.2382,126.2892 89.2402,127.2972 L89.2412,128.0452 L89.6932,128.6412 C90.5352,129.7522 110.4512,155.8952 122.4432,160.3392 C127.4992,162.2132 130.0922,159.9422 131.1882,158.4212 C134.3472,154.0372 134.3682,150.6522 132.9992,151.1822" mask="url(#b)"/>
        <path fill="#2F3849" d="M49.5065,109.4718 L39.7615,109.4718 L39.7615,82.7098 C39.7615,80.8618 41.2585,79.3638 43.1065,79.3638 L46.1615,79.3638 C48.0085,79.3638 49.5065,80.8618 49.5065,82.7098 L49.5065,109.4718 Z" mask="url(#b)"/>
        <polygon fill="#C5CEDD" points="58.139 132.055 41.992 122.873 47.239 113.647 63.386 122.829" mask="url(#b)"/>
        <path fill="#DAE2ED" d="M43.076,126.7694 L1.772,107.5174 C0.974,107.1454 0.401,106.4094 0.272,105.5384 C-0.008,103.6464 0.084,99.9484 3.098,94.6494 C6.111,89.3494 9.242,87.3794 11.011,86.6544 C11.826,86.3194 12.752,86.4354 13.479,86.9314 L51.142,112.5864 C52.284,113.3644 52.638,114.8894 51.955,116.0914 L46.504,125.6764 C45.82,126.8774 44.329,127.3534 43.076,126.7694" mask="url(#b)"/>
        <path fill="#D0D9EB" d="M72.9728 143.5438L54.5198 133.0498C53.8828 132.6878 53.6608 131.8778 54.0228 131.2408L60.5818 119.7078C60.9438 119.0708 61.7538 118.8488 62.3908 119.2108L80.8428 129.7048 72.9728 143.5438zM24.6551 97.751C25.9291 98.475 26.3741 100.095 25.6501 101.369 24.9251 102.643 23.3051 103.089 22.0321 102.364M36.7025 108.7726C35.9785 110.0466 34.3585 110.4916 33.0845 109.7676 31.8105 109.0426 31.3645 107.4226 32.0895 106.1496" mask="url(#b)"/>
        <polygon fill="#D0D9EB" points="57.97 119.932 41.824 110.75 47.071 101.524 63.217 110.706" mask="url(#b)"/>
        <path fill="#ECEFF8" d="M42.9078,114.6459 L1.6038,95.3939 C0.8058,95.0219 0.2328,94.2859 0.1038,93.4149 C-0.1762,91.5229 -0.0842,87.8249 2.9298,82.5259 C5.9428,77.2259 9.0738,75.2559 10.8428,74.5309 C11.6578,74.1959 12.5838,74.3119 13.3108,74.8079 L50.9738,100.4629 C52.1158,101.2409 52.4698,102.7659 51.7868,103.9679 L46.3358,113.5529 C45.6518,114.7539 44.1608,115.2299 42.9078,114.6459" mask="url(#b)"/>
        <path fill="#DAE2ED" d="M72.8046,131.4204 L54.3516,120.9264 C53.7146,120.5644 53.4926,119.7544 53.8546,119.1174 L60.4136,107.5844 C60.7756,106.9474 61.5856,106.7254 62.2226,107.0874 L80.6746,117.5814 L72.8046,131.4204 Z" mask="url(#b)"/>
        <path fill="#B7C2CE" d="M43.5941 101.5644C43.1371 102.3674 42.1161 102.6484 41.3141 102.1914 40.5111 101.7344 40.2301 100.7134 40.6871 99.9114 41.1431 99.1084 42.1641 98.8274 42.9671 99.2844 43.7701 99.7404 44.0511 100.7614 43.5941 101.5644M35.6814 96.1641C35.2244 96.9671 34.2034 97.2481 33.4014 96.7911 32.5984 96.3341 32.3174 95.3131 32.7744 94.5111 33.2304 93.7081 34.2514 93.4271 35.0544 93.8841 35.8574 94.3401 36.1384 95.3611 35.6814 96.1641" mask="url(#b)"/>
        <path fill="#ECEFF8" d="M101.3526,148.6736 C89.0426,154.3266 74.4816,148.9296 68.8286,136.6206 C63.1756,124.3106 68.5726,109.7496 80.8816,104.0966 C93.1916,98.4436 107.7526,103.8396 113.4056,116.1496 C119.0586,128.4596 113.6626,143.0206 101.3526,148.6736" mask="url(#b)"/>
        <path fill="#DAE2ED" d="M99.7242,145.1277 C89.3732,149.8817 77.1282,145.3437 72.3742,134.9917 C67.6212,124.6407 72.1592,112.3957 82.5102,107.6427 C92.8612,102.8887 105.1062,107.4267 109.8602,117.7777 C114.6132,128.1297 110.0752,140.3737 99.7242,145.1277" mask="url(#b)"/>
        <path fill="#8BA4E8" d="M83.3087,73.993 L69.0827,73.993 C66.7387,73.993 64.8387,72.093 64.8387,69.749 L55.8907,69.749 L55.8907,89.823 L64.7707,89.823 C65.5927,85.154 69.6597,81.603 74.5637,81.603 L83.1417,81.603 C84.9827,81.603 86.6797,80.37 87.0377,78.565 C87.5187,76.14 85.6527,73.993 83.3087,73.993" mask="url(#b)"/>
        <path fill="#8BA4E8" d="M49.2964,70.2847 L85.9404,70.2847 C92.4764,70.2847 97.8234,64.9377 97.8234,58.4017 L97.8234,36.4137 C97.8234,29.8777 92.4764,24.5307 85.9404,24.5307 L49.2964,24.5307 C42.7604,24.5307 37.4134,29.8777 37.4134,36.4137 L37.4134,58.4017 C37.4134,64.9377 42.7604,70.2847 49.2964,70.2847" mask="url(#b)"/>
        <path fill="#AABFF2" d="M57.0146,70.2847 L93.6586,70.2847 C100.1946,70.2847 105.5416,64.9377 105.5416,58.4017 L105.5416,36.4137 C105.5416,29.8777 100.1946,24.5307 93.6586,24.5307 L57.0146,24.5307 C50.4786,24.5307 45.1316,29.8777 45.1316,36.4137 L45.1316,58.4017 C45.1316,64.9377 50.4786,70.2847 57.0146,70.2847" mask="url(#b)"/>
        <path fill="#AABFF2" d="M40.9797,55.6936 L49.7247,55.6936 L49.7247,34.3046 L40.9797,34.3046 C36.6047,34.3046 33.0577,37.8516 33.0577,42.2266 L33.0577,47.7716 C33.0577,52.1466 36.6047,55.6936 40.9797,55.6936" mask="url(#b)"/>
        <path fill="#8BA4E8" d="M49.7248,50.9405 L49.7248,39.0575 C49.7248,38.6205 49.3698,38.2655 48.9328,38.2655 L40.9798,38.2655 C38.7918,38.2655 37.0188,40.0385 37.0188,42.2265 L37.0188,47.7715 C37.0188,49.9595 38.7918,51.7325 40.9798,51.7325 L48.9328,51.7325 C49.3698,51.7325 49.7248,51.3785 49.7248,50.9405" mask="url(#b)"/>
        <path fill="#323132" d="M63.5051,48.7519 L63.5051,48.7519 C65.6561,48.7519 67.4161,46.9919 67.4161,44.8409 L67.4161,44.8409 C67.4161,42.6899 65.6561,40.9299 63.5051,40.9299 L63.5051,40.9299 C61.3541,40.9299 59.5941,42.6899 59.5941,44.8409 L59.5941,44.8409 C59.5941,46.9919 61.3541,48.7519 63.5051,48.7519" mask="url(#b)"/>
        <path fill="#B3C9F4" d="M105.8677,36.4133 L101.1147,36.4133 L84.4787,36.4133 L78.9337,36.4133 C76.3187,36.4133 74.1797,38.5523 74.1797,41.1663 L74.1797,46.7113 C74.1797,53.2473 79.5277,58.5943 86.0627,58.5943 L91.6087,58.5943 L93.9847,58.5943 L98.7377,58.5943 C105.2737,58.5943 110.6207,53.2473 110.6207,46.7113 L110.6207,41.1663 C110.6207,38.5523 108.4817,36.4133 105.8677,36.4133" mask="url(#b)"/>
        <path fill="#CBDAF8" d="M91.6082,58.5945 L98.7382,58.5945 C105.2732,58.5945 110.6212,53.2475 110.6212,46.7115 L110.6212,41.1665 C110.6212,38.5525 108.4822,36.4135 105.8672,36.4135 L84.4782,36.4135 C81.8642,36.4135 79.7252,38.5525 79.7252,41.1665 L79.7252,46.7115 C79.7252,53.2475 85.0722,58.5945 91.6082,58.5945" mask="url(#b)"/>
        <path fill="#AABFF2" d="M94.8056 49.6294L92.8256 49.6294 91.6366 49.6294 89.6566 49.6294C88.5666 49.6294 87.6756 50.5204 87.6756 51.6094L87.6756 51.6104C87.6756 52.6994 88.5666 53.5904 89.6566 53.5904L91.6366 53.5904 92.8256 53.5904 94.8056 53.5904C95.8946 53.5904 96.7856 52.6994 96.7856 51.6104L96.7856 51.6094C96.7856 50.5204 95.8946 49.6294 94.8056 49.6294M104.1138 49.6294L102.9258 49.6294 103.3218 49.6294 102.1338 49.6294C101.0438 49.6294 100.1528 50.5204 100.1528 51.6094L100.1528 51.6104C100.1528 52.6994 101.0438 53.5904 102.1338 53.5904L103.3218 53.5904 102.9258 53.5904 104.1138 53.5904C105.2028 53.5904 106.0938 52.6994 106.0938 51.6104L106.0938 51.6094C106.0938 50.5204 105.2028 49.6294 104.1138 49.6294" mask="url(#b)"/>
        <path fill="#8BA4E8" d="M92.6319,63.302 L95.8009,63.302 C96.5289,63.302 97.1189,62.712 97.1189,61.984 C97.1189,61.256 96.5289,60.666 95.8009,60.666 L92.6319,60.666 C91.9039,60.666 91.3139,61.256 91.3139,61.984 C91.3139,62.712 91.9039,63.302 92.6319,63.302" mask="url(#b)"/>
        <path fill="#EF8843" d="M38.0298,66.8599 C37.4248,66.8599 36.9338,66.3689 36.9338,65.7639 C36.9338,65.1589 37.4248,64.6689 38.0298,64.6689 C38.6348,64.6689 39.1258,65.1589 39.1258,65.7639 C39.1258,66.3689 38.6348,66.8599 38.0298,66.8599 L38.0298,66.8599 Z M38.0298,72.7039 C37.4248,72.7039 36.9338,72.2129 36.9338,71.6079 C36.9338,71.0029 37.4248,70.5119 38.0298,70.5119 C38.6348,70.5119 39.1258,71.0029 39.1258,71.6079 C39.1258,72.2129 38.6348,72.7039 38.0298,72.7039 L38.0298,72.7039 Z M38.0298,46.0199 L33.5338,49.1779 L33.5338,74.8289 L38.0298,77.9869 L42.5258,74.8289 L42.5258,49.1779 L38.0298,46.0199 Z" mask="url(#b)"/>
        <path fill="#D0D9EB" d="M69.371,11.6085 C69.371,11.6085 55.074,43.3105 52.277,50.4595 C48.259,60.7255 31.142,59.4725 31.142,44.8645 L69.371,11.6085 Z" mask="url(#b)"/>
        <path fill="#ECEFF8" d="M102.6275,24.0408 C102.6275,24.0408 92.6815,9.7438 66.5735,9.7438 C40.4655,9.7438 28.3445,28.3918 28.3445,42.9998 C28.3445,57.6078 45.4625,58.8608 49.4795,48.5948 C52.2765,41.4458 57.2495,30.2568 57.2495,30.2568 L102.6275,24.0408 Z" mask="url(#b)"/>
      </g>
      <g transform="translate(55 9.101)">
        <mask id="d" fill="white">
          <use xlink:href="#c"/>
        </mask>
        <path fill="#FC964B" d="M36.7492,13.4868 C36.7492,13.4868 31.4652,2.6088 12.8172,0.1218 L0.3842,0.7438 C0.3842,0.7438 20.2762,-0.1892 29.9112,13.7978 L36.7492,13.4868 Z" mask="url(#d)"/>
      </g>
      <g transform="translate(30 16.101)">
        <path fill="#647096" d="M27.2495,14.257 L89.4115,14.257 C89.4115,14.257 79.7765,5.865 58.6415,6.176 C37.5065,6.487 27.2495,14.257 27.2495,14.257"/>
        <path fill="#7687B2" d="M15.3828,26.2026 C14.7848,31.0576 10.9848,34.5856 6.8968,34.0826 C2.8078,33.5786 -0.0222,29.2346 0.5758,24.3786 C1.1738,19.5236 4.9738,15.9956 9.0618,16.4996 C13.1508,17.0026 15.9808,21.3476 15.3828,26.2026"/>
        <path fill="#FFFFFF" d="M12.3072,25.9386 C11.8822,29.3886 9.1822,31.8956 6.2772,31.5376 C3.3722,31.1796 1.3612,28.0926 1.7862,24.6426 C2.2112,21.1926 4.9112,18.6866 7.8162,19.0436 C10.7212,19.4016 12.7322,22.4886 12.3072,25.9386"/>
        <path fill="#F8AE69" d="M10.6314,25.7547 C10.3274,28.2257 8.3934,30.0207 6.3134,29.7647 C4.2324,29.5077 2.7924,27.2977 3.0974,24.8267 C3.4014,22.3557 5.3344,20.5607 7.4154,20.8167 C9.4954,21.0737 10.9354,23.2837 10.6314,25.7547"/>
        <path fill="#FFFFFF" d="M24.2503,0.9808 C24.6773,1.8228 24.2793,2.8828 23.3613,3.3488 C22.4423,3.8148 21.3513,3.5108 20.9243,2.6688 C20.4973,1.8268 20.8953,0.7668 21.8133,0.2998 C22.7323,-0.1662 23.8233,0.1388 24.2503,0.9808"/>
        <path fill="#C5CEDD" d="M70.0237,98.179 L76.5417,109.469 C76.9407,110.159 76.9407,111.009 76.5417,111.699 L70.0237,122.989 C69.6257,123.679 68.8887,124.104 68.0927,124.104 L55.0557,124.104 C54.2597,124.104 53.5227,123.679 53.1247,122.989 L46.6067,111.699 C46.2077,111.009 46.2077,110.159 46.6067,109.469 L53.1247,98.179 C53.5227,97.489 54.2597,97.064 55.0557,97.064 L68.0927,97.064 C68.8887,97.064 69.6257,97.489 70.0237,98.179"/>
        <path fill="#ECEFF8" d="M64.1,116.8805 C60.513,118.5275 56.269,116.9555 54.622,113.3675 C52.974,109.7805 54.547,105.5365 58.134,103.8895 C61.722,102.2425 65.965,103.8145 67.613,107.4025 C69.26,110.9895 67.687,115.2335 64.1,116.8805"/>
      </g>
    </g>
    <rect width="148" height="176"/>
  </g>
</svg>
