<?xml version="1.0" encoding="UTF-8" standalone="no"?>
<svg width="158px" height="130px" viewBox="0 0 158 130" version="1.1" xmlns="http://www.w3.org/2000/svg" xmlns:xlink="http://www.w3.org/1999/xlink" xmlns:sketch="http://www.bohemiancoding.com/sketch/ns">
    <!-- Generator: Sketch 3.5.2 (25235) - http://www.bohemiancoding.com/sketch -->
    <title>icon-oauth-check</title>
    <desc>Created with Sketch.</desc>
    <defs>
        <rect id="path-1" x="0" y="0" width="80" height="80" rx="40"></rect>
    </defs>
    <g id="Bot-bot" stroke="none" stroke-width="1" fill="none" fill-rule="evenodd" sketch:type="MSPage">
        <g id="Desktop-HD---Add-Bot" sketch:type="MSArtboardGroup" transform="translate(-910.000000, -599.000000)">
            <g id="Page-1" sketch:type="MSLayerGroup" transform="translate(912.000000, 601.000000)">
                <g id="Group-246">
                    <g id="icon-oauth-check">
                        <g id="Group-14" sketch:type="MSShapeGroup">
                            <g id="icon-bot-added">
                                <g id="Group-13">
                                    <g>
                                        <path d="M149.113,80.556 C149.113,83.072 147.073,85.112 144.557,85.112 C142.04,85.112 140,83.072 140,80.556 C140,78.04 142.04,76 144.557,76 C147.073,76 149.113,78.04 149.113,80.556 L149.113,80.556 Z" id="Stroke-59" stroke="#595D63" stroke-width="2.252" stroke-linecap="round"></path>
                                        <path d="M113.113,17.556 C113.113,20.072 111.073,22.112 108.557,22.112 C106.04,22.112 104,20.072 104,17.556 C104,15.04 106.04,13 108.557,13 C111.073,13 113.113,15.04 113.113,17.556 L113.113,17.556 Z" id="Stroke-59" stroke="#595D63" stroke-width="2.252" stroke-linecap="round" transform="translate(108.556500, 17.556000) scale(-1, 1) translate(-108.556500, -17.556000) "></path>
                                        <path d="M35.113,33.556 C35.113,36.072 33.073,38.112 30.557,38.112 C28.04,38.112 26,36.072 26,33.556 C26,31.04 28.04,29 30.557,29 C33.073,29 35.113,31.04 35.113,33.556 L35.113,33.556 Z" id="Stroke-59" stroke="#595D63" stroke-width="2.252" stroke-linecap="round" transform="translate(30.556500, 33.556000) scale(-1, 1) translate(-30.556500, -33.556000) "></path>
                                        <path d="M30.113,109.556 C30.113,112.072 28.073,114.112 25.557,114.112 C23.04,114.112 21,112.072 21,109.556 C21,107.04 23.04,105 25.557,105 C28.073,105 30.113,107.04 30.113,109.556 L30.113,109.556 Z" id="Stroke-59" stroke="#595D63" stroke-width="2.252" stroke-linecap="round" transform="translate(25.556500, 109.556000) scale(-1, 1) translate(-25.556500, -109.556000) "></path>
                                        <path d="M9.113,80.556 C9.113,83.072 7.073,85.112 4.557,85.112 C2.04,85.112 0,83.072 0,80.556 C0,78.04 2.04,76 4.557,76 C7.073,76 9.113,78.04 9.113,80.556 L9.113,80.556 Z" id="Stroke-59" stroke="#595D63" stroke-width="2.252" stroke-linecap="round" transform="translate(4.556500, 80.556000) scale(-1, 1) translate(-4.556500, -80.556000) "></path>
                                        <g id="Group-11" transform="translate(40.000000, 41.000000)" stroke="#494C51" stroke-width="2.252" stroke-linecap="round">
                                            <path d="M0.927,0.1694 L2.162,1.4044" id="Stroke-87"></path>
                                            <path d="M8.4279,7.6703 L9.6629,8.9053" id="Stroke-89"></path>
                                            <path d="M0.927,8.9057 L2.162,7.6707" id="Stroke-91"></path>
                                            <path d="M8.4279,1.4048 L9.6629,0.1698" id="Stroke-93"></path>
                                        </g>
                                        <path d="M122,58 L125.341,58" id="Stroke-103" stroke="#494C51" stroke-width="2.252" stroke-linecap="round"></path>
                                        <path d="M129,58 L132.341,58" id="Stroke-105" stroke="#494C51" stroke-width="2.252" stroke-linecap="round"></path>
                                        <path d="M127,55.087 L127,54" id="Stroke-107" stroke="#494C51" stroke-width="2.252" stroke-linecap="round"></path>
                                        <path d="M127,62.087 L127,61" id="Stroke-109" stroke="#494C51" stroke-width="2.252" stroke-linecap="round"></path>
                                        <g id="Group-16" transform="translate(125.000000, 98.730000)" stroke-linecap="round" stroke-width="2.252" stroke="#595D63">
                                            <g id="Group-7">
                                                <path d="M4.5325,11.753 L4.5325,8.412" id="Stroke-111"></path>
                                                <path d="M4.5325,3.9051 L4.5325,0.5641" id="Stroke-113"></path>
                                                <path d="M1.6956,6.1587 L0.6086,6.1587" id="Stroke-115"></path>
                                                <path d="M8.4564,6.1587 L7.3694,6.1587" id="Stroke-117"></path>
                                            </g>
                                        </g>
                                        <g id="Group-16" transform="translate(38.500000, 121.000000) scale(-1, 1) translate(-38.500000, -121.000000) translate(34.000000, 115.000000)" stroke-linecap="round" stroke-width="2.252" stroke="#595D63">
                                            <g id="Group-7">
                                                <path d="M4.5325,11.753 L4.5325,8.412" id="Stroke-111"></path>
                                                <path d="M4.5325,3.9051 L4.5325,0.5641" id="Stroke-113"></path>
                                                <path d="M1.6956,6.1587 L0.6086,6.1587" id="Stroke-115"></path>
                                                <path d="M8.4564,6.1587 L7.3694,6.1587" id="Stroke-117"></path>
                                            </g>
                                        </g>
                                        <g id="Group-25" transform="translate(134.000000, 40.000000)" stroke="#494C51" stroke-width="2.252" stroke-linecap="round">
                                            <path d="M4.6617,11.228 L4.6617,7.887" id="Stroke-119"></path>
                                            <path d="M4.6617,3.3801 L4.6617,0.0391" id="Stroke-121"></path>
                                            <path d="M1.8248,5.6337 L0.7378,5.6337" id="Stroke-123"></path>
                                            <path d="M8.5856,5.6337 L7.4986,5.6337" id="Stroke-125"></path>
                                        </g>
                                        <g id="Group-25" transform="translate(89.000000, 0.000000)" stroke="#494C51" stroke-width="2.252" stroke-linecap="round">
                                            <path d="M4.6617,11.228 L4.6617,7.887" id="Stroke-119"></path>
                                            <path d="M4.6617,3.3801 L4.6617,0.0391" id="Stroke-121"></path>
                                            <path d="M1.8248,5.6337 L0.7378,5.6337" id="Stroke-123"></path>
                                            <path d="M8.5856,5.6337 L7.4986,5.6337" id="Stroke-125"></path>
                                        </g>
                                        <g id="Group-25" transform="translate(119.500000, 118.730000) scale(-1, 1) translate(-119.500000, -118.730000) translate(115.000000, 112.730000)" stroke="#494C51" stroke-width="2.252" stroke-linecap="round">
                                            <path d="M4.6617,11.228 L4.6617,7.887" id="Stroke-119"></path>
                                            <path d="M4.6617,3.3801 L4.6617,0.0391" id="Stroke-121"></path>
                                            <path d="M1.8248,5.6337 L0.7378,5.6337" id="Stroke-123"></path>
                                            <path d="M8.5856,5.6337 L7.4986,5.6337" id="Stroke-125"></path>
                                        </g>
                                        <g id="Group-15" transform="translate(42.000000, 9.000000)" stroke="#494C51" stroke-width="2.252" stroke-linecap="round">
                                            <path d="M4.1521,0.1548 L4.1521,3.4958" id="Stroke-143"></path>
                                            <path d="M4.1521,8.0027 L4.1521,11.3437" id="Stroke-145"></path>
                                            <path d="M6.9889,5.7491 L8.0759,5.7491" id="Stroke-147"></path>
                                            <path d="M0.2281,5.7491 L1.3151,5.7491" id="Stroke-149"></path>
                                        </g>
                                        <g id="Group-12" transform="translate(150.500000, 97.000000) scale(-1, 1) translate(-150.500000, -97.000000) translate(146.000000, 92.000000)">
                                            <path d="M0.1585,0.3591 L1.3935,1.5941" id="Stroke-95" stroke="#494C51" stroke-width="2.252" stroke-linecap="round"></path>
                                            <path d="M7.6594,7.86 L8.8944,9.095" id="Stroke-97" stroke="#494C51" stroke-width="2.252" stroke-linecap="round"></path>
                                            <path d="M0.1585,9.0954 L1.3935,7.8604" id="Stroke-99" stroke="#494C51" stroke-width="2.252" stroke-linecap="round"></path>
                                            <path d="M7.6594,1.5945 L8.8944,0.3595" id="Stroke-101" stroke="#494C51" stroke-width="2.252" stroke-linecap="round"></path>
                                            <path d="M5.647,4.7272 C5.647,5.3462 5.145,5.8472 4.527,5.8472 C3.908,5.8472 3.406,5.3462 3.406,4.7272 C3.406,4.1082 3.908,3.6072 4.527,3.6072 C5.145,3.6072 5.647,4.1082 5.647,4.7272" id="Fill-151" fill="#494C51"></path>
                                        </g>
                                        <g id="Group-12" transform="translate(121.500000, 36.000000) scale(-1, 1) translate(-121.500000, -36.000000) translate(117.000000, 31.000000)">
                                            <path d="M0.1585,0.3591 L1.3935,1.5941" id="Stroke-95" stroke="#494C51" stroke-width="2.252" stroke-linecap="round"></path>
                                            <path d="M7.6594,7.86 L8.8944,9.095" id="Stroke-97" stroke="#494C51" stroke-width="2.252" stroke-linecap="round"></path>
                                            <path d="M0.1585,9.0954 L1.3935,7.8604" id="Stroke-99" stroke="#494C51" stroke-width="2.252" stroke-linecap="round"></path>
                                            <path d="M7.6594,1.5945 L8.8944,0.3595" id="Stroke-101" stroke="#494C51" stroke-width="2.252" stroke-linecap="round"></path>
                                            <path d="M5.647,4.7272 C5.647,5.3462 5.145,5.8472 4.527,5.8472 C3.908,5.8472 3.406,5.3462 3.406,4.7272 C3.406,4.1082 3.908,3.6072 4.527,3.6072 C5.145,3.6072 5.647,4.1082 5.647,4.7272" id="Fill-151" fill="#494C51"></path>
                                        </g>
                                        <g id="Group-12" transform="translate(28.500000, 80.000000) scale(-1, 1) translate(-28.500000, -80.000000) translate(24.000000, 75.000000)">
                                            <path d="M0.1585,0.3591 L1.3935,1.5941" id="Stroke-95" stroke="#494C51" stroke-width="2.252" stroke-linecap="round"></path>
                                            <path d="M7.6594,7.86 L8.8944,9.095" id="Stroke-97" stroke="#494C51" stroke-width="2.252" stroke-linecap="round"></path>
                                            <path d="M0.1585,9.0954 L1.3935,7.8604" id="Stroke-99" stroke="#494C51" stroke-width="2.252" stroke-linecap="round"></path>
                                            <path d="M7.6594,1.5945 L8.8944,0.3595" id="Stroke-101" stroke="#494C51" stroke-width="2.252" stroke-linecap="round"></path>
                                            <path d="M5.647,4.7272 C5.647,5.3462 5.145,5.8472 4.527,5.8472 C3.908,5.8472 3.406,5.3462 3.406,4.7272 C3.406,4.1082 3.908,3.6072 4.527,3.6072 C5.145,3.6072 5.647,4.1082 5.647,4.7272" id="Fill-151" fill="#494C51"></path>
                                        </g>
                                        <g id="Group-8" transform="translate(77.000000, 15.000000)">
                                            <path d="M6,0 L6,1.747" id="Stroke-173" stroke="#595D63" stroke-width="2.252" stroke-linecap="round"></path>
                                            <path d="M6,10 L6,11.747" id="Stroke-175" stroke="#595D63" stroke-width="2.252" stroke-linecap="round"></path>
                                            <path d="M0,6 L1.747,6" id="Stroke-177" stroke="#595D63" stroke-width="2.252" stroke-linecap="round"></path>
                                            <path d="M11,6 L12.747,6" id="Stroke-179" stroke="#595D63" stroke-width="2.252" stroke-linecap="round"></path>
                                            <path d="M6.9125,6.9125 C6.4745,7.3505 5.7655,7.3505 5.3285,6.9125 C4.8905,6.4745 4.8905,5.7655 5.3285,5.3285 C5.7655,4.8905 6.4745,4.8905 6.9125,5.3285 C7.3505,5.7655 7.3505,6.4745 6.9125,6.9125" id="Fill-181" fill="#494C51"></path>
                                        </g>
                                        <path d="M145.729,116.365 C145.729,117.119 145.118,117.73 144.364,117.73 C143.611,117.73 143,117.119 143,116.365 C143,115.611 143.611,115 144.364,115 C145.118,115 145.729,115.611 145.729,116.365" id="Fill-183" fill="#494C51"></path>
                                        <path d="M17.729,97.365 C17.729,98.119 17.118,98.73 16.364,98.73 C15.611,98.73 15,98.119 15,97.365 C15,96.611 15.611,96 16.364,96 C17.118,96 17.729,96.611 17.729,97.365" id="Fill-187" fill="#494C51" transform="translate(16.364500, 97.365000) scale(-1, 1) translate(-16.364500, -97.365000) "></path>
                                        <path d="M59.729,27.365 C59.729,28.119 59.118,28.73 58.364,28.73 C57.611,28.73 57,28.119 57,27.365 C57,26.611 57.611,26 58.364,26 C59.118,26 59.729,26.611 59.729,27.365" id="Fill-189" fill="#595D63"></path>
                                        <path d="M65.729,10.365 C65.729,11.119 65.118,11.73 64.364,11.73 C63.611,11.73 63,11.119 63,10.365 C63,9.611 63.611,9 64.364,9 C65.118,9 65.729,9.611 65.729,10.365" id="Fill-191" fill="#595D63"></path>
                                        <path d="M86.729,45.365 C86.729,46.119 86.118,46.73 85.364,46.73 C84.611,46.73 84,46.119 84,45.365 C84,44.611 84.611,44 85.364,44 C86.118,44 86.729,44.611 86.729,45.365" id="Fill-198" fill="#595D63"></path>
                                        <path d="M108.729,39.365 C108.729,40.119 108.118,40.73 107.364,40.73 C106.611,40.73 106,40.119 106,39.365 C106,38.611 106.611,38 107.364,38 C108.118,38 108.729,38.611 108.729,39.365" id="Fill-200" fill="#595D63"></path>
                                        <path d="M150.729,67.365 C150.729,68.119 150.118,68.73 149.364,68.73 C148.611,68.73 148,68.119 148,67.365 C148,66.611 148.611,66 149.364,66 C150.118,66 150.729,66.611 150.729,67.365" id="Fill-202" fill="#595D63"></path>
                                        <path d="M15.729,120.365 C15.729,121.119 15.118,121.73 14.364,121.73 C13.611,121.73 13,121.119 13,120.365 C13,119.611 13.611,119 14.364,119 C15.118,119 15.729,119.611 15.729,120.365" id="Fill-202" fill="#595D63" transform="translate(14.364500, 120.365000) scale(-1, 1) translate(-14.364500, -120.365000) "></path>
                                        <g id="Group-27" transform="translate(11.000000, 48.500000)">
                                            <path d="M6.5405,0.4168 L6.5405,2.5448" id="Stroke-204" stroke="#494C51" stroke-width="2.252" stroke-linecap="round"></path>
                                            <path d="M6.5405,11.4057 L6.5405,13.1527" id="Stroke-206" stroke="#494C51" stroke-width="2.252" stroke-linecap="round"></path>
                                            <path d="M0.363,6.9754 L2.11,6.9754" id="Stroke-208" stroke="#494C51" stroke-width="2.252" stroke-linecap="round"></path>
                                            <path d="M10.9709,6.9754 L12.7179,6.9754" id="Stroke-210" stroke="#494C51" stroke-width="2.252" stroke-linecap="round"></path>
                                            <path d="M7.3327,7.7676 C6.8957,8.2056 6.1857,8.2056 5.7487,7.7676 C5.3107,7.3296 5.3107,6.6206 5.7487,6.1836 C6.1857,5.7456 6.8957,5.7456 7.3327,6.1836 C7.7707,6.6206 7.7707,7.3296 7.3327,7.7676" id="Fill-212" fill="#494C51"></path>
                                        </g>
                                    </g>
                                </g>
                            </g>
                        </g>
                        <g id="Group" transform="translate(38.000000, 41.000000)">
                            <g id="Rectangle-468-+-=-Server-+-Check">
                                <g id="Rectangle-468">
                                    <use stroke-opacity="0.2" stroke="#FFFFFF" stroke-width="6" sketch:type="MSShapeGroup" xlink:href="#path-1"></use>
                                    <use stroke="none" xlink:href="#path-1"></use>
                                </g>
                                <g id="=-Server"></g>
                                <path d="M22.7692308,38.24 L17.6,43.52 L31.3846154,57.6 L62.4,27.68 L57.2307692,22.4 L31.3846154,47.04 L22.7692308,38.24 Z" id="Check" fill="#43B581" sketch:type="MSShapeGroup"></path>
                            </g>
                        </g>
                    </g>
                </g>
            </g>
        </g>
    </g>
</svg>