<svg xmlns="http://www.w3.org/2000/svg" width="134" height="100" viewBox="0 0 134 100">
  <g fill="none" fill-rule="evenodd">
    <path fill="#EBEFF7" d="M62.9436455,23.9522909 L60.3353727,24.4604727 C60.0174636,24.5219273 59.8106455,24.8303818 59.8721,25.1494727 L60.5150091,28.4455636 C60.5469182,28.6110182 60.6142818,28.7682 60.7135545,28.9052909 L62.2061909,30.9876545 L68.3410091,62.0860182 L69.7958273,61.8012 L63.6610091,30.7040182 L64.2637364,28.2127455 C64.3027364,28.0496545 64.3062818,27.8782909 64.2743727,27.7128364 L63.6314636,24.4167455 C63.5700091,24.0988364 63.2615545,23.8908364 62.9436455,23.9522909 Z"/>
    <polygon fill="#DAE2ED" points="43.579 72.135 42.186 72.643 33.791 49.643 35.185 49.135"/>
    <path fill="#B7C2CE" d="M31.4564636,38.2011182 L29.6010091,38.8783 C29.2074636,39.0224818 28.9202818,39.3652091 28.8470091,39.7776636 L28.4605545,41.9805727 C28.4144636,42.2453 28.4605545,42.5194818 28.5917364,42.7546636 L33.0294636,50.7083 C33.3095545,51.2129364 33.9146455,51.4374818 34.4571,51.2401182 L35.7051,50.7839364 C36.2463727,50.5865727 36.5642818,50.0240273 36.4543727,49.4591182 L34.7253727,40.5163 C34.6745545,40.2515727 34.5339182,40.0128455 34.3271,39.8391182 L32.6122818,38.4032091 C32.2908273,38.1349364 31.8500091,38.0569364 31.4564636,38.2011182"/>
    <path fill="#FFFFFF" d="M36.0111909,56.6035636 C35.5384636,56.6035636 35.1555545,56.9864727 35.1555545,57.4592 C35.1555545,57.9319273 35.5384636,58.3148364 36.0111909,58.3148364 C36.4839182,58.3148364 36.8680091,57.9319273 36.8680091,57.4592 C36.8680091,56.9864727 36.4839182,56.6035636 36.0111909,56.6035636"/>
    <path fill="#4F5D7F" d="M102.671409,49.8657818 L102.671409,36.3694182 C102.671409,33.1288727 100.044227,30.5016909 96.8036818,30.5016909 C93.5619545,30.5016909 90.9347727,33.1288727 90.9347727,36.3694182 L90.9347727,49.8657818 C90.9347727,55.0516 86.7322273,59.2553273 81.5464091,59.2553273 L80.3728636,59.2553273 C79.7240455,59.2553273 79.1993182,59.7800545 79.1993182,60.4288727 L79.1993182,86.8354182 C79.1993182,88.1306909 80.2499545,89.1825091 81.5464091,89.1825091 L112.059773,89.1825091 C113.357409,89.1825091 114.408045,88.1306909 114.408045,86.8354182 L114.408045,60.4288727 C114.408045,59.7800545 113.882136,59.2553273 113.2345,59.2553273 L112.059773,59.2553273 C106.875136,59.2553273 102.671409,55.0516 102.671409,49.8657818"/>
    <path fill="#B7C2CE" d="M104.431373,34.3722636 C103.3441,34.0295364 102.739009,32.8701727 103.081736,31.7817182 C103.424464,30.6944455 104.585009,30.0893545 105.672282,30.4332636 C106.760736,30.7759909 107.363464,31.9353545 107.021918,33.0226273 C106.679191,34.1110818 105.518645,34.7149909 104.431373,34.3722636 M106.199373,28.7621727 L106.198191,28.7621727 C104.320282,28.1700818 102.328918,29.2656273 101.8231,31.1683545 L92.9204636,67.1263545 L95.0867364,67.8094455 L108.404645,33.2412636 C109.080645,31.3929 108.077282,29.3542636 106.199373,28.7621727"/>
    <polygon fill="#C5CEDD" points="102.791 79.494 107.376 79.107 104.607 46.261 100.021 46.647"/>
    <path fill="#D0D9EA" d="M100.027327,52.1878182 L105.528691,51.7233636 C106.034509,51.6808182 106.411509,51.2364545 106.368964,50.7294545 L105.672873,42.4768182 C105.630327,41.971 105.184782,41.5951818 104.678964,41.6377273 L99.1764182,42.101 C98.6706,42.1435455 98.2947818,42.5890909 98.3373273,43.0960909 L99.0334182,51.3487273 C99.0759636,51.8545455 99.5203273,52.2303636 100.027327,52.1878182"/>
    <path fill="#DAE2ED" d="M83.4062364,47.6781182 C83.2301455,47.5032091 83.2242364,47.2136636 83.3932364,47.0316636 C89.8660545,40.0412091 95.7609636,39.6193 95.7609636,39.6193 L96.1935091,39.5826636 L99.3146909,39.3191182 L106.738873,38.6927545 C106.991782,38.6714818 107.215145,38.8605727 107.236418,39.1134818 C107.257691,39.3663909 107.479873,39.5543 107.732782,39.5330273 L110.484055,39.3013909 C110.736964,39.2801182 110.959145,39.4680273 110.980418,39.7209364 L111.290055,43.3893 C111.311327,43.6422091 111.123418,43.8643909 110.870509,43.8856636 L110.411964,43.9246636 C108.892145,44.0523 107.764691,45.3889364 107.893509,46.9075727 L108.009327,48.2832091 C108.0306,48.5361182 107.842691,48.7583 107.5886,48.7795727 L97.5029636,49.6304818 C97.2500545,49.6517545 97.0266909,49.4638455 97.0054182,49.2109364 L96.8506,47.3803 C96.7158727,45.7694818 95.2256,44.6042091 93.6360545,44.8890273 C88.1725091,45.8652091 85.5039636,47.6793 84.6636909,48.3576636 C84.4828727,48.5042091 84.2228727,48.4864818 84.0586,48.3222091 L83.4062364,47.6781182 Z"/>
    <path fill="#EBEFF7" d="M111.4496,45.2798545 L113.283782,45.1250364 C113.7896,45.0824909 114.165418,44.6381273 114.122873,44.1311273 L113.6596,38.6297636 C113.615873,38.1227636 113.171509,37.7469455 112.664509,37.7894909 L110.831509,37.9443091 C110.324509,37.9868545 109.948691,38.4324 109.991236,38.9382182 L110.455691,44.4407636 C110.498236,44.9465818 110.9426,45.3224 111.4496,45.2798545"/>
    <path fill="#DAE2ED" d="M29.2780182,50.5201545 L27.6648364,51.3592455 C27.4674727,51.4620636 27.3906545,51.7043364 27.4934727,51.9017 L28.5547455,53.9427 C28.6079273,54.0443364 28.6835636,54.1341545 28.7745636,54.2050636 L30.1584727,55.2828818 L40.2192909,74.5157909 L41.1198364,74.0466091 L31.0590182,54.8148818 L30.9715636,53.0622455 C30.9656545,52.9464273 30.9349273,52.8341545 30.8817455,52.7313364 L29.8192909,50.6915182 C29.7176545,50.4941545 29.4753818,50.4185182 29.2780182,50.5201545"/>
    <polygon fill="#C5CEDD" points="68.793 62.049 66.673 64.046 59.565 56.502 61.685 54.505"/>
    <polygon fill="#DAE2ED" points="66.142 64.546 65.082 65.545 57.974 58.001 59.034 57.003"/>
    <polygon fill="#D0D9EA" points="61.177 58.214 59.057 60.213 57.444 58.501 59.565 56.503"/>
    <polygon fill="#C5CEDD" points="55.385 58.44 61.686 54.504 58.362 50.977 52.7 58.511"/>
    <path fill="#EBEFF7" d="M63.4624636,54.0592273 L57.4245545,59.7485 C57.1881909,59.9706818 56.8171,59.9600455 56.5937364,59.7236818 L55.7865545,58.8668636 C55.5643727,58.6305 55.5761909,58.2594091 55.8113727,58.0372273 L61.8504636,52.3479545 C62.0856455,52.1257727 62.4579182,52.1375909 62.6801,52.3727727 L63.4872818,53.2295909 C63.7094636,53.4659545 63.6988273,53.8370455 63.4624636,54.0592273"/>
    <path fill="#A2B8DB" d="M99.1507727,35.7826455 C99.1507727,37.0791 98.1001364,38.1297364 96.8036818,38.1297364 C95.5072273,38.1297364 94.4565909,37.0791 94.4565909,35.7826455 C94.4565909,34.4861909 95.5072273,33.4355545 96.8036818,33.4355545 C98.1001364,33.4355545 99.1507727,34.4861909 99.1507727,35.7826455"/>
    <polygon fill="#A2B8DB" points="44.865 38.13 96.803 38.13 96.803 33.436 44.865 33.436"/>
    <polygon fill="#C5CEDD" points="69.07 82.778 66.973 82.398 73.263 47.766 75.361 48.146"/>
    <path fill="#EBEFF7" d="M78.6755364,31.8742545 L75.8817182,31.3672545 C75.2884455,31.2585273 74.6833545,31.4759818 74.2933545,31.9357091 L72.2145364,34.3879818 C71.9639909,34.6834364 71.8221727,35.0557091 71.8139,35.4445273 L71.5420818,48.5343455 C71.5255364,49.3628 72.1117182,50.0813455 72.9271727,50.2302545 L74.8086273,50.5718 C75.6229,50.7195273 76.4253545,50.2538909 76.7007182,49.4715273 L81.0498091,37.1215273 C81.1786273,36.7551636 81.1774455,36.3568909 81.0462636,35.9917091 L79.9625364,32.9650727 C79.7592636,32.3978 79.2688091,31.9818 78.6755364,31.8742545"/>
    <path fill="#7687B2" d="M43.9907091,60.6464003 L113.233436,60.6464003 C113.882255,60.6464003 114.406982,61.1965179 114.406982,61.8767309 L114.406982,89.5610269 C114.406982,90.9202139 113.356345,92.021688 112.059891,92.021688 L41.6436182,92.021688"/>
    <path fill="#8DA0C4" d="M49.8589091,50.8027646 L49.8589091,36.6533437 C49.8589091,33.2559959 47.2317273,30.5016909 43.9911818,30.5016909 C40.7494545,30.5016909 38.1222727,33.2559959 38.1222727,36.6533437 L38.1222727,50.8027646 C38.1222727,56.2395124 33.9197273,60.6466481 28.7339091,60.6466481 L27.5603636,60.6466481 C26.9115455,60.6466481 26.3868182,61.1967657 26.3868182,61.8769787 L26.3868182,89.5612747 C26.3868182,90.9192227 27.4374545,92.0219358 28.7339091,92.0219358 L61.5955455,92.0219358 L61.5955455,60.6466481 L59.2472727,60.6466481 C54.0626364,60.6466481 49.8589091,56.2395124 49.8589091,50.8027646"/>
    <path fill="#A2B8DB" d="M46.3382727,35.7826455 C46.3382727,37.0791 45.2876364,38.1297364 43.9911818,38.1297364 C42.6947273,38.1297364 41.6440909,37.0791 41.6440909,35.7826455 C41.6440909,34.4861909 42.6947273,33.4355545 43.9911818,33.4355545 C45.2876364,33.4355545 46.3382727,34.4861909 46.3382727,35.7826455"/>
    <polygon fill="#A2B8DB" points="41.644 38.13 43.716 38.13 43.716 33.436 41.644 33.436"/>
    <path fill="#FFFFFF" d="M43.9907091,35.7826455 C43.9907091,37.0791 42.9400727,38.1297364 41.6436182,38.1297364 C40.3471636,38.1297364 39.2965273,37.0791 39.2965273,35.7826455 C39.2965273,34.4861909 40.3471636,33.4355545 41.6436182,33.4355545 C42.9400727,33.4355545 43.9907091,34.4861909 43.9907091,35.7826455"/>
    <polygon fill="#C5CEDD" points="54.032 54.879 58.273 50.883 53.039 45.327 48.797 49.323"/>
    <path fill="#EBEFF7" d="M55.8447 45.9740545L41.9689727 59.0461455C41.5825182 59.4101455 40.9502455 59.1158727 40.9809727 58.5852364L41.4170636 51.0310545C41.4253364 50.8809636 41.4903364 50.7403273 41.5990636 50.6375091L51.4743364 41.3342364C51.7095182 41.1120545 52.0817909 41.1238727 52.3039727 41.3590545L55.8695182 45.1444182C56.0917 45.3807818 56.0810636 45.7518727 55.8447 45.9740545M57.7513273 47.9972091L47.2095091 57.9280273C46.8041455 58.3097545 47.1078727 58.9881182 47.6609636 58.9408455L52.4957818 58.5283909C52.6281455 58.5165727 52.7522364 58.4610273 52.8491455 58.3700273L60.6231455 51.0463C60.8595091 50.8241182 60.8701455 50.4518455 60.6479636 50.2154818L58.5809636 48.0220273C58.3587818 47.7856636 57.9865091 47.7750273 57.7513273 47.9972091"/>
    <path fill="#C5CEDD" d="M51.4353364 45.7496273C50.8834273 45.1634455 49.9616091 45.1362636 49.3766091 45.6881727 48.7904273 46.2400818 48.7632455 47.1619 49.3151545 47.7469 49.8658818 48.3330818 50.7888818 48.3602636 51.3738818 47.8083545 51.9600636 47.2564455 51.9872455 46.3346273 51.4353364 45.7496273M38.3840455 88.3060727C35.0265 89.8483455 31.0544091 88.3769818 29.5133182 85.0182545 27.9710455 81.6607091 29.4435909 77.6898 32.7999545 76.1475273 36.1586818 74.6064364 40.1295909 76.0778 41.6718636 79.4353455 43.2129545 82.7928909 41.7415909 86.7649818 38.3840455 88.3060727M50.0285 81.3688L43.9279545 70.8033455C43.5545 70.1580727 42.8655 69.7598 42.1209545 69.7598L29.9198636 69.7598C29.1741364 69.7598 28.4851364 70.1580727 28.1116818 70.8033455L22.0111364 81.3688C21.6388636 82.0152545 21.6388636 82.8106182 22.0111364 83.4570727L28.1116818 94.0225273C28.4851364 94.6689818 29.1741364 95.0660727 29.9198636 95.0660727L42.1209545 95.0660727C42.8655 95.0660727 43.5545 94.6689818 43.9279545 94.0225273L50.0285 83.4570727C50.4007727 82.8106182 50.4007727 82.0152545 50.0285 81.3688"/>
    <path fill="#EBEFF7" d="M33.6896273,88.3060727 C30.3320818,89.8483455 26.3599909,88.3769818 24.8189,85.0182545 C23.2766273,81.6607091 24.7491727,77.6898 28.1055364,76.1475273 C31.4630818,74.6064364 35.4351727,76.0778 36.9774455,79.4353455 C38.5185364,82.7928909 37.0471727,86.7649818 33.6896273,88.3060727 M45.3340818,81.3688 L39.2335364,70.8033455 C38.8600818,70.1580727 38.1710818,69.7598 37.4265364,69.7598 L25.2254455,69.7598 C24.4797182,69.7598 23.7907182,70.1580727 23.4172636,70.8033455 L17.3167182,81.3688 C16.9444455,82.0152545 16.9444455,82.8106182 17.3167182,83.4570727 L23.4172636,94.0225273 C23.7907182,94.6689818 24.4797182,95.0660727 25.2254455,95.0660727 L37.4265364,95.0660727 C38.1710818,95.0660727 38.8600818,94.6689818 39.2335364,94.0225273 L45.3340818,83.4570727 C45.7063545,82.8106182 45.7063545,82.0152545 45.3340818,81.3688"/>
    <path fill="#C5CEDD" d="M13.7690182,97.1448909 L7.90129091,97.1448909 C7.25247273,97.1448909 6.72774545,96.6201636 6.72774545,95.9713455 C6.72774545,95.3225273 7.25247273,94.7978 7.90129091,94.7978 L13.7690182,94.7978 C14.4166545,94.7978 14.9425636,95.3225273 14.9425636,95.9713455 C14.9425636,96.6201636 14.4166545,97.1448909 13.7690182,97.1448909"/>
    <path fill="#DAE2ED" d="M14.9276727,98.6117636 L12.5805818,98.6117636 C12.2555818,98.6117636 11.9932182,98.3494 11.9932182,98.0255818 L11.9932182,93.9175818 C11.9932182,93.5937636 12.2555818,93.3302182 12.5805818,93.3302182 L14.9276727,93.3302182 C15.2514909,93.3302182 15.5150364,93.5937636 15.5150364,93.9175818 L15.5150364,98.0255818 C15.5150364,98.3494 15.2514909,98.6117636 14.9276727,98.6117636"/>
    <path fill="#C5CEDD" d="M118.305091,93.3460545 L118.305091,88.6506909 C118.305091,88.0030545 118.829818,87.4783273 119.478636,87.4783273 C120.127455,87.4783273 120.652182,88.0030545 120.652182,88.6506909 L120.652182,93.3460545 C120.652182,93.9936909 120.127455,94.5196 119.478636,94.5196 C118.829818,94.5196 118.305091,93.9936909 118.305091,93.3460545"/>
    <path fill="#DAE2ED" d="M116.837627,94.5042364 L116.837627,93.3306909 C116.837627,93.0068727 117.101173,92.7445091 117.424991,92.7445091 L121.531809,92.7445091 C121.856809,92.7445091 122.119173,93.0068727 122.119173,93.3306909 L122.119173,94.5042364 C122.119173,94.8280545 121.856809,95.0916 121.531809,95.0916 L117.424991,95.0916 C117.101173,95.0916 116.837627,94.8280545 116.837627,94.5042364"/>
    <path fill="#C5CEDD" d="M21.2678909,93.3212364 L21.2678909,88.6270545 C21.2678909,87.9782364 21.7938,87.4535091 22.4414364,87.4535091 C23.0902545,87.4535091 23.6149818,87.9782364 23.6149818,88.6270545 L23.6149818,93.3212364 C23.6149818,93.9688727 23.0902545,94.4947818 22.4414364,94.4947818 C21.7938,94.4947818 21.2678909,93.9688727 21.2678909,93.3212364"/>
    <path fill="#DAE2ED" d="M19.8010182,94.4800091 L19.8010182,93.3064636 C19.8010182,92.9814636 20.0633818,92.7191 20.3883818,92.7191 L24.4952,92.7191 C24.8202,92.7191 25.0825636,92.9814636 25.0825636,93.3064636 L25.0825636,94.4800091 C25.0825636,94.8038273 24.8202,95.0661909 24.4952,95.0661909 L20.3883818,95.0661909 C20.0633818,95.0661909 19.8010182,94.8038273 19.8010182,94.4800091"/>
    <path stroke="#D5DBED" d="M50.4930727 10.1363636L49.9683455 10.8348182M47.8686091 13.0448182L47.3438818 13.7444545M50.4930727 13.7442182L49.9683455 13.0445818M47.8686091 10.8351727L47.3438818 10.1367182M16.3726818 41.1746909C16.3726818 41.9641455 15.7321364 42.6046909 14.9426818 42.6046909 14.1532273 42.6046909 13.5126818 41.9641455 13.5126818 41.1746909 13.5126818 40.3852364 14.1532273 39.7446909 14.9426818 39.7446909 15.7321364 39.7446909 16.3726818 40.3852364 16.3726818 41.1746909zM124.908973 48.2021364L124.908973 51.0621364M126.339445 49.6321364L123.479445 49.6321364M21.2309 27.1712091L21.2309 30.0312091M22.6614909 28.6010909L19.8014909 28.6010909" stroke-linecap="round" stroke-linejoin="round"/>
  </g>
</svg>
