<svg width="200" height="265" viewBox="0 0 200 265" fill="none" xmlns="http://www.w3.org/2000/svg">
<path d="M128 58.75C128.688 58.75 129.25 58.1875 129.25 57.5V56.25C129.25 55.5625 128.688 55 128 55C127.312 55 126.75 55.5625 126.75 56.25V57.5C126.75 58.1875 127.312 58.75 128 58.75Z" fill="#7289DA"/>
<path d="M128 61.25C127.312 61.25 126.75 61.8125 126.75 62.5V63.75C126.75 64.4375 127.312 65 128 65C128.688 65 129.25 64.4375 129.25 63.75V62.5C129.25 61.8125 128.7 61.25 128 61.25Z" fill="#7289DA"/>
<path d="M131.75 58.75H130.5C129.812 58.75 129.25 59.3125 129.25 60C129.25 60.6875 129.812 61.25 130.5 61.25H131.75C132.438 61.25 133 60.6875 133 60C133 59.3125 132.45 58.75 131.75 58.75Z" fill="#7289DA"/>
<path d="M125.5 58.75H124.25C123.562 58.75 123 59.3125 123 60C123 60.6875 123.562 61.25 124.25 61.25H125.5C126.188 61.25 126.75 60.6875 126.75 60C126.75 59.3125 126.2 58.75 125.5 58.75Z" fill="#7289DA"/>
<path d="M169 206.75C169.688 206.75 170.25 206.188 170.25 205.5V204.25C170.25 203.562 169.688 203 169 203C168.312 203 167.75 203.562 167.75 204.25V205.5C167.75 206.188 168.312 206.75 169 206.75Z" fill="url(#paint0_linear)"/>
<path d="M169 217.25C168.312 217.25 167.75 217.812 167.75 218.5V219.75C167.75 220.438 168.312 221 169 221C169.688 221 170.25 220.438 170.25 219.75V218.5C170.25 217.812 169.7 217.25 169 217.25Z" fill="url(#paint1_linear)"/>
<path d="M176.75 210.75H175.5C174.812 210.75 174.25 211.312 174.25 212C174.25 212.688 174.812 213.25 175.5 213.25H176.75C177.438 213.25 178 212.688 178 212C178 211.312 177.45 210.75 176.75 210.75Z" fill="url(#paint2_linear)"/>
<path d="M162.5 210.75H161.25C160.562 210.75 160 211.312 160 212C160 212.688 160.562 213.25 161.25 213.25H162.5C163.188 213.25 163.75 212.688 163.75 212C163.75 211.312 163.2 210.75 162.5 210.75Z" fill="url(#paint3_linear)"/>
<path d="M60 118.75C60.6875 118.75 61.25 118.188 61.25 117.5V116.25C61.25 115.562 60.6875 115 60 115C59.3125 115 58.75 115.562 58.75 116.25V117.5C58.75 118.188 59.3125 118.75 60 118.75Z" fill="#B9BBBE"/>
<path d="M60 121.25C59.3125 121.25 58.75 121.812 58.75 122.5V123.75C58.75 124.438 59.3125 125 60 125C60.6875 125 61.25 124.438 61.25 123.75V122.5C61.25 121.812 60.7 121.25 60 121.25Z" fill="#B9BBBE"/>
<path d="M63.75 118.75H62.5C61.8125 118.75 61.25 119.312 61.25 120C61.25 120.688 61.8125 121.25 62.5 121.25H63.75C64.4375 121.25 65 120.688 65 120C65 119.312 64.45 118.75 63.75 118.75Z" fill="#B9BBBE"/>
<path d="M57.5 118.75H56.25C55.5625 118.75 55 119.312 55 120C55 120.688 55.5625 121.25 56.25 121.25H57.5C58.1875 121.25 58.75 120.688 58.75 120C58.75 119.312 58.2 118.75 57.5 118.75Z" fill="#B9BBBE"/>
<rect x="20" y="20" width="80" height="80" rx="40" fill="url(#paint4_linear)"/>
<path d="M60 35L51 44V56L60 65L69 56V44L60 35ZM64.62 45.27L60.5 41.16V36.91L67.62 44.03L64.62 45.27ZM56 53.93V46.07L60 42.07L64 46.07V53.93L60 57.93L56 53.93ZM59.5 41.16L55.38 45.28L52.38 44.04L59.5 36.91V41.16ZM55 46.2V53.8L52 55.04V44.96L55 46.2ZM55.38 54.73L59.5 58.85V63.09L52.38 55.97L55.38 54.73ZM60.5 58.84L64.62 54.72L67.62 55.96L60.5 63.09V58.84ZM65 53.8V46.2L68 44.96V55.05L65 53.8Z" fill="white"/>
<path d="M45.9835 82L45.7075 80.224H43.1635V73.72H41.1115V82H45.9835ZM52.2388 82V80.332H48.9868V78.58H51.6508L51.3868 76.936H48.9868V75.376H52.1308V73.72H46.9708V82H52.2388ZM60.8084 73.72H58.6724L56.8844 79.444L55.0004 73.636L52.8044 73.972L55.6604 82.048H57.8684L60.8084 73.72ZM66.981 82V80.332H63.729V78.58H66.393L66.129 76.936H63.729V75.376H66.873V73.72H61.713V82H66.981ZM73.0186 82L72.7426 80.224H70.1986V73.72H68.1466V82H73.0186ZM79.8258 82V73.876H78.0378L75.9618 74.836L76.1898 76.396L77.8098 75.76V82H79.8258Z" fill="white"/>
<rect x="100" y="93" width="80" height="80" rx="40" fill="url(#paint5_linear)"/>
<path fill-rule="evenodd" clip-rule="evenodd" d="M140.5 108.46L148.62 116.58L144.62 118.23L140.5 114.12V108.46ZM135 119.16L131 117.5V128.42L135 126.76V119.16ZM140.5 131.8V137.46L148.62 129.34L144.62 127.68L140.5 131.8ZM139.5 114.12V108.46L131.38 116.58L135.38 118.23L139.5 114.12ZM139.5 137.46L131.38 129.34L135.38 127.68L139.5 131.8V137.46ZM145 126.76L149 128.42V117.5L145 119.16V126.76ZM140 115.03L144 119.03V126.89L140 130.89L136 126.89V119.03L140 115.03Z" fill="white"/>
<path d="M124.616 155L124.34 153.224H121.796V146.72H119.744V155H124.616ZM130.872 155V153.332H127.62V151.58H130.284L130.02 149.936H127.62V148.376H130.764V146.72H125.604V155H130.872ZM139.441 146.72H137.305L135.517 152.444L133.633 146.636L131.437 146.972L134.293 155.048H136.501L139.441 146.72ZM145.614 155V153.332H142.362V151.58H145.026L144.762 149.936H142.362V148.376H145.506V146.72H140.346V155H145.614ZM151.651 155L151.375 153.224H148.831V146.72H146.779V155H151.651ZM154.871 155H160.595L160.343 153.404H157.283L158.903 151.844C159.887 150.908 160.439 150.188 160.439 149.084C160.439 147.632 159.407 146.756 157.739 146.756C156.599 146.756 155.747 147.092 155.051 147.56L155.291 149.264C155.987 148.76 156.719 148.436 157.439 148.436C158.099 148.436 158.483 148.748 158.483 149.3C158.483 149.84 158.207 150.224 157.667 150.776L154.871 153.572V155Z" fill="white"/>
<rect x="20" y="165" width="80" height="80" rx="40" fill="url(#paint6_linear)"/>
<path fill-rule="evenodd" clip-rule="evenodd" d="M73 181C73 181.55 72.55 182 72 182C71.45 182 71 181.55 71 181V180C71 179.45 71.45 179 72 179C72.55 179 73 179.45 73 180V181ZM46.94 204.94L48 203L49.06 204.94L51 206L49.06 207.06L48 209L46.94 207.06L45 206L46.94 204.94ZM72 184C71.45 184 71 184.45 71 185V186C71 186.55 71.45 187 72 187C72.55 187 73 186.55 73 186V185C73 184.45 72.56 184 72 184ZM74 182H75C75.56 182 76 182.45 76 183C76 183.55 75.55 184 75 184H74C73.45 184 73 183.55 73 183C73 182.45 73.45 182 74 182ZM70 182H69C68.45 182 68 182.45 68 183C68 183.55 68.45 184 69 184H70C70.55 184 71 183.55 71 183C71 182.45 70.56 182 70 182ZM59.6201 180.46V186.12L55.5001 190.23L51.5001 188.58L59.6201 180.46ZM68.7401 188.58L60.6201 180.46V186.12L64.7401 190.23L68.7401 188.58ZM51.1201 189.5L55.1201 191.16V198.76L51.1201 200.42V189.5ZM60.6201 203.8V209.46L68.7401 201.34L64.7401 199.68L60.6201 203.8ZM59.6201 209.46L51.5001 201.34L55.5001 199.68L59.6201 203.8V209.46ZM65.1201 198.76L69.1201 200.42V189.5L65.1201 191.16V198.76ZM63.7301 190.64L64.1201 191.03V198.89L60.1201 202.89L56.1201 198.89V198.38L63.7301 190.64ZM56.1201 196.95L63.0201 189.93L62.2401 189.15L56.1201 195.38V196.95ZM61.5301 188.44L56.1201 193.95V191.03L60.1201 187.03L61.5301 188.44Z" fill="white"/>
<path d="M44.6573 227L44.3813 225.224H41.8373V218.72H39.7853V227H44.6573ZM50.9127 227V225.332H47.6607V223.58H50.3247L50.0607 221.936H47.6607V220.376H50.8047V218.72H45.6447V227H50.9127ZM59.4823 218.72H57.3463L55.5583 224.444L53.6743 218.636L51.4783 218.972L54.3343 227.048H56.5423L59.4823 218.72ZM65.6549 227V225.332H62.4029V223.58H65.0669L64.8029 221.936H62.4029V220.376H65.5469V218.72H60.3869V227H65.6549ZM71.6925 227L71.4165 225.224H68.8725V218.72H66.8205V227H71.6925ZM77.4676 227.156C79.2196 227.156 80.5276 226.304 80.5276 224.732C80.5276 223.664 79.9396 223.1 78.9676 222.788C79.8076 222.476 80.3956 221.936 80.3956 220.868C80.3956 219.608 79.3636 218.732 77.5516 218.732C76.4836 218.732 75.5596 219.044 74.9236 219.476L75.1756 221C75.7876 220.58 76.5076 220.328 77.2516 220.328C78.0316 220.328 78.4156 220.64 78.4156 221.156C78.4156 221.732 77.9716 222.104 76.9396 222.104H76.0756L76.3156 223.592H76.9996C78.1276 223.592 78.5716 223.964 78.5716 224.624C78.5716 225.236 78.0796 225.56 77.2876 225.56C76.4836 225.56 75.7276 225.332 75.0556 224.96L74.8036 226.52C75.4876 226.904 76.4236 227.156 77.4676 227.156Z" fill="white"/>
<path d="M26 127L22.4667 133.467L16 137L22.4667 140.533L26 147L29.5333 140.533L36 137L29.5333 133.467L26 127Z" fill="#8EA1E1"/>
<path d="M162 71L159.88 74.88L156 77L159.88 79.12L162 83L164.12 79.12L168 77L164.12 74.88L162 71Z" fill="url(#paint7_linear)"/>
<path d="M114 232L112.587 234.587L110 236L112.587 237.413L114 240L115.413 237.413L118 236L115.413 234.587L114 232Z" fill="#8EA1E1"/>
<circle cx="133" cy="208" r="4" fill="#B9BBBE"/>
<circle cx="55" cy="148" r="3" fill="url(#paint8_linear)"/>
<circle cx="158" cy="40" r="4" fill="#B9BBBE"/>
<defs>
<linearGradient id="paint0_linear" x1="167.75" y1="206.75" x2="171.212" y2="204.442" gradientUnits="userSpaceOnUse">
<stop stop-color="#B473F5"/>
<stop offset="1" stop-color="#E292AA"/>
</linearGradient>
<linearGradient id="paint1_linear" x1="167.75" y1="221" x2="171.212" y2="218.692" gradientUnits="userSpaceOnUse">
<stop stop-color="#B473F5"/>
<stop offset="1" stop-color="#E292AA"/>
</linearGradient>
<linearGradient id="paint2_linear" x1="174.25" y1="213.25" x2="176.558" y2="209.788" gradientUnits="userSpaceOnUse">
<stop stop-color="#B473F5"/>
<stop offset="1" stop-color="#E292AA"/>
</linearGradient>
<linearGradient id="paint3_linear" x1="160" y1="213.25" x2="162.308" y2="209.788" gradientUnits="userSpaceOnUse">
<stop stop-color="#B473F5"/>
<stop offset="1" stop-color="#E292AA"/>
</linearGradient>
<linearGradient id="paint4_linear" x1="20" y1="100" x2="100" y2="20" gradientUnits="userSpaceOnUse">
<stop stop-color="#B473F5"/>
<stop offset="1" stop-color="#E292AA"/>
</linearGradient>
<linearGradient id="paint5_linear" x1="100" y1="173" x2="180" y2="93" gradientUnits="userSpaceOnUse">
<stop stop-color="#B473F5"/>
<stop offset="1" stop-color="#E292AA"/>
</linearGradient>
<linearGradient id="paint6_linear" x1="20" y1="245" x2="100" y2="165" gradientUnits="userSpaceOnUse">
<stop stop-color="#B473F5"/>
<stop offset="1" stop-color="#E292AA"/>
</linearGradient>
<linearGradient id="paint7_linear" x1="156" y1="83" x2="168" y2="71" gradientUnits="userSpaceOnUse">
<stop stop-color="#B473F5"/>
<stop offset="1" stop-color="#E292AA"/>
</linearGradient>
<linearGradient id="paint8_linear" x1="52" y1="151" x2="58" y2="145" gradientUnits="userSpaceOnUse">
<stop stop-color="#B473F5"/>
<stop offset="1" stop-color="#E292AA"/>
</linearGradient>
</defs>
</svg>
