<svg width="224" height="80" viewBox="0 0 224 80" fill="none" xmlns="http://www.w3.org/2000/svg">
<g clip-path="url(#clip0)">
<path d="M136.382 64.9462H127.249L131.815 48.6021L136.382 64.9462Z" fill="#3E70DD"/>
<path d="M60.3077 46.4516H25.8462L43.0769 0L60.3077 46.4516Z" fill="#3E70DD"/>
<path d="M118.031 45.1183V44.3871C118.031 37.4624 112.388 31.828 105.452 31.828H85.0769C81.3723 31.828 78.4 28.8602 78.4 25.1613C78.4 21.4624 75.4277 18.4946 71.7231 18.4946H51.0461C45.7046 18.4946 41.3538 22.8387 41.3538 28.172C41.3538 33.5054 37.0031 37.8495 31.6615 37.8495H28.6461C14 37.8495 2.15384 49.6774 2.15384 64.3011V80H41.3538H78.4H112.431H118.031H160.246L154.689 72.043C150.08 65.4194 142.498 61.5054 134.443 61.5054C125.397 61.5054 118.031 54.1505 118.031 45.1183Z" fill="#202225"/>
<path d="M77.5385 80H0L12.88 57.9785C15.0338 54.2796 18.9969 52.043 23.2615 52.043C27.2677 52.043 31.0585 54.0645 33.2985 57.3763L38.3385 64.9462C41.0523 68.9892 45.5754 71.3978 50.4431 71.3978H68.9662C73.6615 71.3978 77.5385 75.2688 77.5385 80Z" fill="#AEC7FF"/>
<path d="M105.538 39.1398C106.49 39.1398 107.262 38.3695 107.262 37.4193C107.262 36.4692 106.49 35.6989 105.538 35.6989C104.587 35.6989 103.815 36.4692 103.815 37.4193C103.815 38.3695 104.587 39.1398 105.538 39.1398Z" fill="#FFD836"/>
<path d="M101.662 33.5484H100.8V46.4516H101.662V33.5484Z" fill="#7196FF"/>
<path d="M105.969 33.5484H105.108V35.2688H105.969V33.5484Z" fill="#7196FF"/>
<path d="M191.262 67.0968H156.8L174.031 5.16129L191.262 67.0968Z" fill="#83DDC5"/>
<path d="M75.8154 18.4946L80.1231 5.5914H62.8923L49.9692 18.4946H75.8154Z" fill="#D4E4FF"/>
<path d="M91.3231 27.0968L98.6461 31.828H57.2923L64.6154 27.0968H91.3231Z" fill="white"/>
<path d="M98.6462 31.828H61.6V48.6022H98.6462V31.828Z" fill="#D4E4FF"/>
<path d="M44.3692 48.6022H61.6V31.828L44.3692 31.828V48.6022Z" fill="#AEC7FF"/>
<path d="M68.9231 18.4946H51.6923V27.0968H68.9231V18.4946Z" fill="#3E70DD"/>
<path d="M91.3231 18.4946H68.9231V27.0968H91.3231V18.4946Z" fill="#AEC7FF"/>
<path d="M51.6923 27.0968H68.9231L61.6 31.828H44.3692L51.6923 27.0968Z" fill="#D4E4FF"/>
<path d="M93.0462 18.4946L80.1231 5.5914L67.2 18.4946H93.0462Z" fill="white"/>
<path d="M93.9077 33.5484H89.6V38.2796H93.9077V33.5484Z" fill="white"/>
<path d="M86.1538 33.5484H81.8461V38.2796H86.1538V33.5484Z" fill="white"/>
<path d="M78.4 33.5484H74.0923V38.2796H78.4V33.5484Z" fill="white"/>
<path d="M70.6461 33.5484H66.3384V38.2796H70.6461V33.5484Z" fill="white"/>
<path d="M59.0154 33.5484H54.7077V38.2796H59.0154V33.5484Z" fill="#7196FF"/>
<path d="M51.2616 33.5484H46.9539V38.2796H51.2616V33.5484Z" fill="#7196FF"/>
<path d="M88.7385 20.2151H71.5077V22.7957H88.7385V20.2151Z" fill="#D4E4FF"/>
<path d="M66.7692 20.2151H53.8461V22.7957H66.7692V20.2151Z" fill="#7196FF"/>
<path d="M105.969 42.1505H37.0461V48.6021H105.969V42.1505Z" fill="#9FC2FF"/>
<path d="M61.6 42.1505H37.0461V48.6021H61.6V42.1505Z" fill="#3E70DD"/>
<path d="M43.0316 50.8017L41.8141 52.0191L59.8933 70.0983L61.1108 68.8808L43.0316 50.8017Z" fill="#3E70DD"/>
<path d="M59.8933 50.7887L41.8141 68.8679L43.0316 70.0853L61.1108 52.0061L59.8933 50.7887Z" fill="#3E70DD"/>
<path d="M43.9385 52.043H41.3539V80H43.9385V52.043Z" fill="#3E70DD"/>
<path d="M61.6 52.043H59.0154V80H61.6V52.043Z" fill="#3E70DD"/>
<path d="M60.307 68.8172H41.7839V71.3978H60.307V68.8172Z" fill="#3E70DD"/>
<path d="M64.2919 50.6495L62.7701 52.1713L80.8493 70.2505L82.3711 68.7287L64.2919 50.6495Z" fill="#D4E4FF"/>
<path d="M80.8493 50.6367L62.7701 68.7159L64.2919 70.2377L82.3711 52.1586L80.8493 50.6367Z" fill="#D4E4FF"/>
<path d="M82.3842 50.6496L80.8623 52.1714L98.9415 70.2506L100.463 68.7288L82.3842 50.6496Z" fill="#D4E4FF"/>
<path d="M98.9415 50.6369L80.8623 68.716L82.3842 70.2378L100.463 52.1587L98.9415 50.6369Z" fill="#D4E4FF"/>
<path d="M101.662 52.043H99.0769V80H101.662V52.043Z" fill="#D4E4FF"/>
<path d="M64.1846 52.043H61.6V80H64.1846V52.043Z" fill="#D4E4FF"/>
<path d="M99.9385 68.8172H63.3231V71.3978H99.9385V68.8172Z" fill="#D4E4FF"/>
<path d="M105.969 33.5484H100.8V34.4086H105.969V33.5484Z" fill="#7196FF"/>
<path d="M107.262 36.129H103.815L105.108 35.2688H105.969L107.262 36.129Z" fill="#7196FF"/>
<path d="M195.569 67.0968H169.723L182.646 20.6452L195.569 67.0968Z" fill="#F47FFF"/>
<path d="M136.511 80H115.446L125.957 42.1505L136.511 80Z" fill="#AEC7FF"/>
<path d="M182.345 44.7742L154.215 67.785C148.615 72.3441 141.637 74.8387 134.4 74.8387C128.757 74.8387 123.2 76.3871 118.332 79.2688L117.169 80H145.6H172.738H224L202.203 47.6989C199.662 43.957 195.483 41.7204 190.96 41.7204C187.815 41.7204 184.757 42.7957 182.345 44.7742Z" fill="#7196FF"/>
<path d="M168.388 15.6559L168.215 15.3979C166.751 13.0323 164.166 11.6129 161.409 11.6129H159.686C156.929 11.6129 154.345 13.0323 152.88 15.3979C152.578 15.914 152.018 16.2151 151.415 16.2151H150.209C147.926 16.2151 146.031 18.0645 146.031 20.3871C146.031 20.7742 146.332 21.1183 146.763 21.1183H173.772C174.16 21.1183 174.505 20.8172 174.505 20.3871V20.086C174.505 17.9355 172.782 16.2151 170.628 16.2151H169.378C168.948 16.2151 168.603 16 168.388 15.6559Z" fill="white"/>
<path d="M126.215 6.02151C126.215 2.92474 123.717 0.430115 120.615 0.430115H118.031C114.929 0.430115 112.431 2.92474 112.431 6.02151C112.431 7.44087 111.268 8.60215 109.846 8.60215H105.108C103.686 8.60215 102.523 9.76344 102.523 11.1828C102.523 11.6559 102.911 12.043 103.385 12.043H130.092C131.298 12.043 132.246 11.0968 132.246 9.89248C132.246 8.21506 130.911 6.88173 129.231 6.88173H127.077C126.603 6.88173 126.215 6.49463 126.215 6.02151Z" fill="white"/>
<path d="M138.492 25.3763H135.477C134.4 25.3763 133.538 24.5161 133.538 23.4409C133.538 22.3656 134.4 21.5054 135.477 21.5054H138.492C139.569 21.5054 140.431 22.3656 140.431 23.4409C140.431 24.5161 139.569 25.3763 138.492 25.3763Z" fill="white"/>
<path d="M38.1231 16.3441H32.9539C31.6615 16.3441 30.5846 15.2688 30.5846 13.9785C30.5846 12.6882 31.6615 11.6129 32.9539 11.6129H38.1231C39.4154 11.6129 40.4923 12.6882 40.4923 13.9785C40.4923 15.2688 39.4154 16.3441 38.1231 16.3441Z" fill="white"/>
<path d="M182.172 80H159.385L170.757 39.0538L182.172 80Z" fill="#3E70DD"/>
<path d="M199.618 80H191.262L195.44 64.9462L199.618 80Z" fill="white"/>
<path d="M29.8954 80H21.5385L25.7169 64.9462L29.8954 80Z" fill="#FF9A15"/>
<path d="M104.246 48.6021H41.3539V52.043H104.246V48.6021Z" fill="#3E70DD"/>
<path d="M61.6 48.6021H38.7692V52.043H61.6V48.6021Z" fill="#202225"/>
<path d="M207.372 37.5914L206.554 39.3118C206.381 39.6989 206.769 40.129 207.2 39.957L208.923 39.1398C209.052 39.0968 209.181 39.0968 209.311 39.1398L211.034 39.957C211.422 40.129 211.852 39.7419 211.68 39.3118L210.862 37.5914C210.818 37.4624 210.818 37.3333 210.862 37.2043L211.68 35.4839C211.852 35.0968 211.465 34.6667 211.034 34.8387L209.311 35.6559C209.181 35.6989 209.052 35.6989 208.923 35.6559L207.2 34.8387C206.812 34.6667 206.381 35.0538 206.554 35.4839L207.372 37.2043C207.458 37.3333 207.458 37.4624 207.372 37.5914Z" fill="#9FC2FF"/>
<path d="M19.2554 25.1183H19.1692C18.9108 25.1183 18.7385 24.9032 18.7385 24.6882V23.6129C18.7385 23.3548 18.9538 23.1828 19.1692 23.1828H19.2554C19.5139 23.1828 19.6862 23.3979 19.6862 23.6129V24.6882C19.7292 24.9462 19.5139 25.1183 19.2554 25.1183Z" fill="#D4E4FF"/>
<path d="M19.2554 30.0645H19.1692C18.9108 30.0645 18.7385 29.8495 18.7385 29.6344V28.5591C18.7385 28.3011 18.9538 28.129 19.1692 28.129H19.2554C19.5139 28.129 19.6862 28.3441 19.6862 28.5591V29.6344C19.7292 29.8495 19.5139 30.0645 19.2554 30.0645Z" fill="#D4E4FF"/>
<path d="M20.6769 26.6667V26.5807C20.6769 26.3226 20.8923 26.1505 21.1077 26.1505H22.1846C22.4431 26.1505 22.6154 26.3656 22.6154 26.5807V26.6667C22.6154 26.9247 22.4 27.0968 22.1846 27.0968H21.1077C20.8923 27.0968 20.6769 26.8817 20.6769 26.6667Z" fill="#D4E4FF"/>
<path d="M15.7662 26.6667V26.5807C15.7662 26.3226 15.9816 26.1505 16.1969 26.1505H17.2739C17.5323 26.1505 17.7046 26.3656 17.7046 26.5807V26.6667C17.7046 26.9247 17.4892 27.0968 17.2739 27.0968H16.1969C15.9816 27.0968 15.7662 26.8817 15.7662 26.6667Z" fill="#D4E4FF"/>
<path d="M210.56 20.6022L196.129 13.8065C197.637 10.5806 201.514 9.2043 204.745 10.7097L207.458 12C210.689 13.5484 212.111 17.3763 210.56 20.6022Z" fill="#D4E4FF"/>
<path d="M196.818 14.6237L209.397 20.5591L202.634 22.7527L198.498 20.6452L196.818 14.6237ZM196.172 13.8065L198.154 20.9032L202.634 23.1828L210.603 20.6022L196.172 13.8065Z" fill="#D4E4FF"/>
<path d="M201.858 25.8925L201.471 25.7204L202.418 23.0968L198.326 20.9893L195.957 24.8602L195.612 24.6022L198.154 20.4301L202.978 22.8817L201.858 25.8925Z" fill="#D4E4FF"/>
<path d="M199.963 25.7204C200.222 24.9462 199.877 24.086 199.145 23.6989C198.24 23.2688 197.163 23.7419 196.862 24.6882C196.603 25.5484 196.129 26.3656 195.483 26.9677C195.182 27.2688 194.923 27.6559 194.794 28.129C194.406 29.4193 195.138 30.7957 196.388 31.2688C197.766 31.7849 199.317 31.0107 199.748 29.5914C199.877 29.1613 199.877 28.7312 199.791 28.3011C199.662 27.4839 199.705 26.5806 199.963 25.7204Z" fill="#040505"/>
<path d="M192.554 31.8279C192.468 31.8279 192.425 31.8279 192.382 31.7849C192.166 31.6989 192.08 31.4408 192.209 31.2258L193.502 28.6451C193.588 28.5161 193.717 28.3871 193.889 28.3871H196.043C196.302 28.3871 196.474 28.5591 196.474 28.8172C196.474 29.0753 196.302 29.2473 196.043 29.2473H194.148L192.985 31.5699C192.855 31.7419 192.726 31.8279 192.554 31.8279Z" fill="#040505"/>
<path d="M194.148 33.5484C193.975 33.5484 193.846 33.4624 193.76 33.2903C193.674 33.0753 193.76 32.8172 193.975 32.7312C196.517 31.5269 198.197 28.6452 198.24 28.6021C198.326 28.4731 198.455 28.3871 198.628 28.3871C200.825 28.3871 201.212 25.8495 201.212 25.7634C201.255 25.5484 201.471 25.3763 201.686 25.4194C201.902 25.4624 202.074 25.6774 202.031 25.8925C201.858 27.0108 200.997 29.1183 198.843 29.2473C198.369 29.9785 196.775 32.3871 194.363 33.5054C194.277 33.5484 194.191 33.5484 194.148 33.5484Z" fill="#040505"/>
<path d="M196 27.957C195.957 27.957 195.914 27.957 195.914 27.957C195.225 27.785 194.966 27.3979 194.837 27.0968C194.449 26.0215 195.526 24.4731 195.655 24.3011C195.785 24.129 196.086 24.086 196.258 24.2151C196.431 24.3441 196.474 24.6452 196.345 24.8172C196.043 25.2473 195.44 26.2796 195.612 26.8387C195.655 26.9247 195.742 27.0968 196.086 27.1828C196.302 27.2258 196.474 27.4839 196.388 27.6989C196.388 27.828 196.172 27.957 196 27.957Z" fill="#040505"/>
</g>
<defs>
<clipPath id="clip0">
<rect width="224" height="80" fill="white"/>
</clipPath>
</defs>
</svg>
