<svg width="128" height="120" fill="none" 
  xmlns="http://www.w3.org/2000/svg">
  <g clip-path="url(#clip0)">
    <path d="M70.883 34.137v24.311h33.393l9.221 9.179v-33.49H70.883z" fill="#F47FFF"/>
    <path d="M104.992 48.107H79.146v2.556h25.846v-2.556zm0-6.195H79.146v2.555h25.846v-2.555z" fill="#fff"/>
    <path d="M114.412 85.841l8.747-2.544a5.55 5.55 0 0 0 3.977-4.88 5.497 5.497 0 0 0-1.608-4.32 5.561 5.561 0 0 0-3.922-1.623c-.144 0-.287 0-.419.01-2.292.176-4.264 1.766-4.903 3.96l-2.555 8.706a.516.516 0 0 0 .143.538c.066.076.253.23.54.153zm7.491 28.654h-7.326V97.301c0-6.832-5.564-12.381-12.438-12.381H64.46v35.069h62.974c0-3.038-2.479-5.494-5.531-5.494z" fill="#7196FF"/>
    <path d="M77.075 73.625H35.662c-6.533 0-11.832 5.275-11.832 11.778v18.324c0 6.502 5.299 11.777 11.832 11.777h41.402c6.533 0 11.832-5.275 11.832-11.777V85.402c.011-6.502-5.288-11.777-11.821-11.777z" fill="#92BEFF"/>
    <path d="M42.911 108.299H30.407c-5.806 0-10.521-4.682-10.521-10.472v-7.852a3.931 3.931 0 0 1 3.944-3.925H50.8a3.931 3.931 0 0 1 3.944 3.925v6.547c0 6.503-5.3 11.777-11.833 11.777z" fill="#C2E1FF"/>
    <path d="M42.89 73.625h30.23c6.533 0 11.832 5.275 11.832 11.778v.657h6.577c0-9.035-7.36-16.36-16.437-16.36H46.833a3.931 3.931 0 0 0-3.944 3.925z" fill="#B9BBBE"/>
    <path d="M35.001 73.625h34.175c6.533 0 11.832 5.275 11.832 11.778v.657h7.227c0-9.035-7.36-16.36-16.437-16.36H38.945a3.931 3.931 0 0 0-3.944 3.925z" fill="#EBEFF7"/>
    <path d="M92.19 105.679h-5.255c-2.908 0-5.255-2.347-5.255-5.231V89.975c0-2.895 2.358-5.23 5.255-5.23h5.255c2.909 0 5.255 2.346 5.255 5.23v10.473c0 2.895-2.357 5.231-5.255 5.231z" fill="#C5CEDD"/>
    <path d="M88.246 105.679h-7.888c-2.908 0-5.255-2.347-5.255-5.231V89.975c0-2.895 2.358-5.23 5.255-5.23h7.888c2.909 0 5.255 2.346 5.255 5.23v10.473c0 2.895-2.357 5.231-5.255 5.231z" fill="#EBEFF7"/>
    <path d="M86.935 101.106H81.68a1.966 1.966 0 0 1-1.972-1.963V91.29c0-1.085.881-1.963 1.972-1.963h5.255c1.09 0 1.972.878 1.972 1.963v7.852a1.973 1.973 0 0 1-1.972 1.963z" fill="#C5CEDD"/>
    <path d="M94.526 44.489h-55.79c-2.523 0-4.561-2.029-4.561-4.54V6.744a4.545 4.545 0 0 1 4.56-4.54h55.79c2.524 0 4.562 2.029 4.562 4.54v33.205c0 2.511-2.038 4.54-4.561 4.54z" fill="#D7E6FF"/>
    <path d="M53.465 44.489h-14.73a4.545 4.545 0 0 1-4.56-4.54V6.799a4.545 4.545 0 0 1 4.56-4.54h14.73v42.23z" fill="#AEC7FF"/>
    <path d="M43.815 15.43a3.415 3.415 0 0 1-3.427-3.411 3.415 3.415 0 0 1 3.427-3.41 3.415 3.415 0 0 1 3.426 3.41 3.422 3.422 0 0 1-3.426 3.41zm0 11.349a3.415 3.415 0 0 1-3.427-3.41 3.415 3.415 0 0 1 3.427-3.411 3.415 3.415 0 0 1 3.426 3.41 3.415 3.415 0 0 1-3.426 3.41z" fill="#7196FF"/>
    <path d="M90.516 15.429H68.834a2.28 2.28 0 0 1-2.28-2.27 2.28 2.28 0 0 1 2.28-2.27h21.67a2.28 2.28 0 0 1 2.281 2.27c.011 1.25-1.013 2.27-2.27 2.27zm-28.523 0a2.28 2.28 0 0 1-2.28-2.27 2.28 2.28 0 0 1 2.28-2.27 2.28 2.28 0 0 1 2.28 2.27c0 1.25-1.013 2.27-2.28 2.27zm28.523 10.209H68.834a2.28 2.28 0 0 1-2.28-2.27 2.28 2.28 0 0 1 2.28-2.27h21.67a2.28 2.28 0 0 1 2.281 2.27 2.257 2.257 0 0 1-2.27 2.27zm-28.523 0a2.28 2.28 0 0 1-2.28-2.27 2.28 2.28 0 0 1 2.28-2.27 2.28 2.28 0 0 1 2.28 2.27 2.266 2.266 0 0 1-2.28 2.27zm28.523 10.22H68.834a2.28 2.28 0 0 1-2.28-2.27 2.28 2.28 0 0 1 2.28-2.27h21.67a2.28 2.28 0 0 1 2.281 2.27c.011 1.25-1.013 2.27-2.27 2.27zm-28.523 0a2.28 2.28 0 0 1-2.28-2.27 2.28 2.28 0 0 1 2.28-2.27 2.28 2.28 0 0 1 2.28 2.27c0 1.25-1.013 2.27-2.28 2.27z" fill="#AEC7FF"/>
    <path d="M31.619 102.74h-3.283a1.642 1.642 0 0 1-1.642-1.634c0-.899.738-1.634 1.642-1.634h3.283c.903 0 1.641.735 1.641 1.634 0 .899-.738 1.634-1.641 1.634zm11.347 0H38.13a1.642 1.642 0 0 1-1.642-1.634c0-.899.738-1.634 1.642-1.634h4.836c.904 0 1.642.735 1.642 1.634.01.899-.738 1.634-1.642 1.634z" fill="#7196FF"/>
    <path d="M43.583 115.493l-5.574-27.93a1.886 1.886 0 0 0-1.851-1.513H17.153l5.884 29.443h20.546z" fill="#fff"/>
    <path d="M31.365 86.06H15.424a1.875 1.875 0 0 0-1.851 2.238L19.897 120h20.558L34.13 88.32a2.816 2.816 0 0 0-2.766-2.26z" fill="#317BFF"/>
    <path d="M22.111 117.741a2.256 2.256 0 0 1-2.258 2.248c-1.245 0-2.402-1.009-2.402-2.248 0-1.239 1.157-2.248 2.402-2.248a2.256 2.256 0 0 1 2.258 2.248zm17.693-2.248c-1.707.055-3.084 1.042-3.084 2.248 0 1.206 1.366 2.193 3.084 2.237v.011h74.751v-4.496h-74.75zm7.767-77.332c0-13.071-10.653-23.675-23.785-23.675C10.653 14.486 0 25.09 0 38.161c0 11.306 7.965 20.737 18.608 23.095l5.145 6.58.033-.034.033.033 5.145-6.58C39.606 58.91 47.57 49.468 47.57 38.162z" fill="#7196FF"/>
    <path d="M108.11 25.222l-1.036 2.127c-.242.493.287 1.02.782.779l2.138-1.031a.587.587 0 0 1 .507 0l2.137 1.03c.496.242 1.024-.285.782-.778l-1.014-2.127a.58.58 0 0 1 0-.505l1.036-2.127c.242-.494-.286-1.02-.782-.779l-2.137 1.031a.587.587 0 0 1-.507 0l-2.138-1.03c-.495-.242-1.024.284-.782.778l1.036 2.127a.667.667 0 0 1-.022.505zM22.387 0a.812.812 0 0 0-.816.811v.812c0 .45.364.811.816.811a.811.811 0 0 0 .815-.811V.811A.826.826 0 0 0 22.387 0zm0 6.448a.812.812 0 0 0-.816.811v.812c0 .45.364.811.816.811a.811.811 0 0 0 .815-.811v-.812a.826.826 0 0 0-.815-.811zm3.646-2.818h-.815a.811.811 0 1 0 0 1.623h.815a.812.812 0 0 0 .816-.812.819.819 0 0 0-.816-.811zm-6.489 0h-.815a.811.811 0 1 0 0 1.623h.815a.811.811 0 1 0 0-1.623zM9.387 65.236h-.133a.54.54 0 0 1-.54-.537V63.36a.54.54 0 0 1 .54-.537h.133a.54.54 0 0 1 .54.537v1.34a.54.54 0 0 1-.54.537zm0 6.042h-.133a.54.54 0 0 1-.54-.537v-1.338a.54.54 0 0 1 .54-.537h.133a.54.54 0 0 1 .54.537v1.338a.54.54 0 0 1-.54.537zm1.751-4.167v-.131a.54.54 0 0 1 .54-.538h1.344a.54.54 0 0 1 .54.538v.131a.54.54 0 0 1-.54.538h-1.344a.547.547 0 0 1-.54-.538zm-6.07 0v-.131a.54.54 0 0 1 .54-.538h1.344a.54.54 0 0 1 .54.538v.131a.54.54 0 0 1-.54.538H5.608a.54.54 0 0 1-.54-.538z" fill="#fff"/>
    <path d="M61.442 95.338c0-1.7 1.388-3.082 3.096-3.082a3.091 3.091 0 0 1 3.095 3.082" stroke="#202225" stroke-width="2.135" stroke-miterlimit="10"/>
    <path d="M34.483 30.376c-3.481-2.588-6.82-2.523-6.82-2.523l-.34.384c4.142 1.24 6.059 3.049 6.059 3.049a20.186 20.186 0 0 0-7.327-2.303 20.875 20.875 0 0 0-4.913.044c-.144 0-.265.022-.419.044-.848.098-2.92.383-5.53 1.524-.904.384-1.433.68-1.433.68s1.994-1.92 6.38-3.147l-.243-.297s-3.316-.076-6.82 2.523c0 0-3.503 6.272-3.503 14.003 0 0 2.049 3.487 7.425 3.663 0 0 .904-1.064 1.63-1.985-3.095-.921-4.263-2.84-4.263-2.84s.242.164.683.416c.022 0 .044.022.1.044.077.044.143.077.22.121.606.34 1.212.603 1.773.822 1.003.417 2.193.779 3.581 1.042 1.829.34 3.966.46 6.302.022a17.711 17.711 0 0 0 3.525-1.042 14.39 14.39 0 0 0 2.798-1.425s-1.211 1.963-4.406 2.862c.727.9 1.608 1.94 1.608 1.94 5.376-.164 7.426-3.662 7.426-3.629.022-7.72-3.493-13.992-3.493-13.992zM19.247 42.12c-1.366 0-2.48-1.184-2.48-2.665 0-1.48 1.091-2.664 2.48-2.664 1.388 0 2.512 1.184 2.479 2.664 0 1.48-1.091 2.665-2.48 2.665zm8.89 0c-1.366 0-2.478-1.184-2.478-2.665 0-1.48 1.09-2.664 2.478-2.664 1.366 0 2.48 1.184 2.48 2.664 0 1.48-1.091 2.665-2.48 2.665z" fill="#fff"/>
  </g>
  <defs>
    <clipPath id="clip0">
      <path fill="#fff" d="M0 0h127.434v120H0z"/>
    </clipPath>
  </defs>
</svg>
